<?xml version="1.0" encoding="UTF-8"?>
<svg id="Layer_1" data-name="Layer 1" xmlns="http://www.w3.org/2000/svg" viewBox="0 0 2414.98 1375.63">
  <defs>
    <style>
      .cls-1 {
        fill: #f57e25;
      }

      .cls-2 {
        fill: #fffdeb;
      }

      .cls-3 {
        fill: #f2728e;
      }

      .cls-4 {
        fill: #ff7b3a;
      }

      .cls-5 {
        fill: #ff7aab;
      }

      .cls-6 {
        fill: #73973f;
      }

      .cls-7 {
        fill: #bab930;
      }
    </style>
  </defs>
  <path class="cls-2" d="M1.04,0H2414.98V1366.04c-803.18,0-1606.35,0-2409.53,0-1.47,0-2.94,0-4.41,0V0Z"/>
  <circle class="cls-5" cx="2072.48" cy="576.34" r="98.6" transform="translate(199.48 1634.27) rotate(-45)"/>
  <path class="cls-7" d="M2037.56,684.78c7.42,8.75,15.49,19.83,22.86,33.41,13.93,25.69,19.55,49.79,21.98,66.81,.17-14.89,2.54-40.77,16.71-68.58,8.33-16.35,18.26-28.53,26.38-36.93-10.21,4.82-28.83,11.88-52.76,11.42-14.53-.28-26.58-3.25-35.17-6.15h0Z"/>
  <path class="cls-7" d="M2205.79,628.81c-10.54-15.02-16.63-29.5-20.24-40.62-.53,11.28-3.02,31.03-14.65,51.95-7.06,12.7-15.34,21.94-21.94,28.17,11.21-2.44,24.78-4.39,40.23-4.52,29.22-.25,53.15,6.1,69.32,11.94-13.06-7.14-34.81-21.37-52.73-46.92h.01Z"/>
  <path class="cls-7" d="M2180.66,528.73c5.6,13.43,7.72,25.63,8.52,34.67,5.03-10.32,11.92-22.18,21.38-34.38,17.92-23.1,37.71-37.93,52.32-47.01-13.69,5.82-38.34,14.07-69.5,12.31-18.31-1.04-33.45-5.23-44.42-9.29,8.52,7.4,22.49,21.6,31.69,43.69h0Z"/>
  <path class="cls-7" d="M2094.14,461.95c14.34,2.46,25.79,7.21,33.84,11.37-6.01-9.78-12.33-21.94-17.58-36.47-9.91-27.5-11.83-52.16-11.67-69.36-2.41,14.69-8.66,39.92-26.83,65.29-10.69,14.92-22.33,25.44-31.64,32.53,10.82-3.23,30.28-7.42,53.86-3.36h.01Z"/>
  <path class="cls-7" d="M1965.18,531.87c4.61-10.3,14.14-27.79,32.6-43.02,11.21-9.25,22.28-14.84,30.7-18.22-11.33-1.82-24.68-4.95-39.11-10.47-27.3-10.44-47.26-25.06-60.19-36.41,9.55,11.41,24.61,32.6,31.98,62.93,4.33,17.83,4.72,33.53,4.03,45.19h-.01Z"/>
  <path class="cls-7" d="M1964.75,624.34c-4.36-10.42-10.57-29.33-9.03-53.22,.94-14.51,4.45-26.39,7.75-34.85-9.08,7.01-20.51,14.59-34.42,21.32-26.3,12.75-50.62,17.27-67.75,18.93,14.86,.86,40.61,4.39,67.75,19.79,15.96,9.05,27.67,19.53,35.69,28.03h0Z"/>
  <path class="cls-7" d="M1963.72,627.8c-.7,11.45-2.52,25.05-6.59,39.94-7.71,28.2-20.32,49.49-30.33,63.47,10.42-10.63,30.03-27.68,59.49-37.97,17.33-6.05,32.91-7.97,44.59-8.43-10.71-3.58-29.04-11.34-46.01-28.22-10.3-10.25-16.94-20.73-21.15-28.76h0Z"/>
  <path class="cls-7" d="M703.49,1270.01c-3.97,7.07-7.93,14.13-11.9,21.2-.2,24.78-.4,49.56-.6,74.34,69.9,.16,139.8,.32,209.69,.48,49.58-101.88,99.17-203.77,148.75-305.65-15.54-15.19-31.09-30.39-46.63-45.59-5.41,1.57-10.83,3.14-16.24,4.72-94.36,83.5-188.71,167-283.07,250.5h0Z"/>
  <path class="cls-2" d="M1189.72,1368.64v.08c5.88,0,11.77-.02,17.65-.03,0-.02,.02-.05,.03-.07-5.89,0-11.79,0-17.68,.01h0Z"/>
  <path class="cls-2" d="M930.76,1368.85c-66.53,.05-133.05,.11-199.58,.16h-29.53c.02,.18,.04,.36,.06,.53,90.21-.15,180.41-.3,270.61-.45h-41.57v-.24h.01Z"/>
  <path class="cls-2" d="M972.41,1368.81v.27c56.11-.09,112.21-.19,168.32-.28v-.13c-56.11,.04-112.21,.09-168.32,.13h0Z"/>
  <path class="cls-1" d="M1508.36,1359.23h3.15c-.08-.06-.16-.13-.24-.2h-3.01c.03,.06,.06,.13,.1,.19h0Z"/>
  <path class="cls-7" d="M353.65,1369.01h197.34v-99.1h145.63v12.1c67.94-52.54,153.16-123.47,245.01-213.12,18.57-18.12,35.79-35.44,51.86-51.99-2.16-2.17-4.35-4.31-6.54-6.44-1.64,3.59-3.88,6.85-6.72,9.32-11.66,10.13-26.02,.82-45.26,6.17-12.85,3.57-29.35,14.1-44.23,45.26,2.58-16.91,10.7-51.82,40.12-74.06,6.63-5.01,15.81-10.49,24.94-14.24-1.24-.98-2.5-1.95-3.75-2.92-9.32,3.52-31.15,13.29-47.06,36.61-9.39,13.76-13.25,27.17-14.99,35.93-.68-2.24-3.33-9.97-11.31-15.2-6.37-4.17-12.7-4.49-15.26-4.48-4.14-37.71,18.44-67.97,44.23-71.68,8.31-1.2,16.03,.51,22.68,3.3-131.76-86.79-268.72-52.57-399.22,25.25,7.35,11.64,9.58,16.71,10.23,23.12,1.48,14.58-6.13,26.65-10.7,32.7-3.88-9.21-10.2-21.52-20.48-34.23-1.6-1.98-3.21-3.84-4.83-5.63-3.03,1.94-6.05,3.91-9.07,5.9,3.2,3.24,5.97,6.29,8.35,9.06,18.56,21.59,17.88,31.22,17.49,34.19-2.28,17.65-24.22,32.32-34.19,27.83-4.78-2.15-4.18-7.51-11.13-40.56-1.28-6.1-2.38-11.02-3.34-15.11-140.29,97.38-270.77,233.08-376.19,305.99-.65,8-.8,16.96-.02,26.68,.26,3.23,.61,6.35,1.03,9.35h225.83c9.28-.54,19.32-.68,29.55,0Zm509.61-244.98c-5.33,8.66-24.54,2.55-48.51,1.59-19.53-.78-47.37,1.65-81.91,16.7,24.78-20.59,47.94-32.23,64.41-38.97,21.75-8.89,40.31-16.19,54.07-7.16,9.93,6.52,16.26,20.81,11.93,27.83h0Zm-7.54-86.76c14.4-4.02,30.63,6.82,32.71,18.46,2.26,12.66-11.51,30.24-34.63,31.33,16.48-7.26,21.14-24.31,15.92-32.44-4.42-6.87-17.47-9.82-29.93-3.89,1.21-2.24,6.13-10.73,15.93-13.46Zm-59.44,28.78c6.67-1.06,16.33-2.35,26.13,2.56,9.66,4.83,14.78,13.33,17.2,18.31-16.28,3.38-36.61,9.2-58.67,19.56-16.73,7.86-30.65,16.54-41.8,24.54,.64-1.55,6.5-16.37-2.11-30.29-6.38-10.31-16.58-13.5-19.16-14.22,12.86-4.32,47.28-15.49,78.4-20.45h0Zm-76.97,47.93c1.26-8.07-6.53-18.95-19.79-22.79,2.39-.87,11.71-3.95,20.85,.52,13.43,6.56,18.37,25.45,12.19,35.53-6.72,10.97-28.7,14.96-46.69,.42,17.14,5.52,31.95-4.13,33.44-13.67h0Zm-58.04,60.15c-6.6,.6-9.6-6.77-28.63-27.04-2.48-2.64-15.06-16.04-25.45-24.65-9.39-7.79-24.23-17.67-46.92-24.65,44.97-1.46,75.1,9.63,91.45,17.49,17.23,8.29,24.01,15.34,26.24,23.86,3.94,15.08-6.55,34.07-16.7,34.99h.01Zm-69.62-136.88c26.07,11.4,45.24,23.87,58.01,33.3,15.78,11.65,24.29,20.51,25.78,32.59,.82,6.65-.72,12.36-2.15,16.11-8.2-6.23-20.52-14.15-36.88-20.05-18.52-6.68-34.89-8.13-45.83-8.24,2.61-4.14,6.21-11.12,7.52-20.41,2.29-16.23-3.94-28.82-6.45-33.3h0Zm-27.91,.45c13.8,0,24.99,11.33,24.99,25.31s-11.19,25.31-24.99,25.31-24.99-11.33-24.99-25.31,11.19-25.31,24.99-25.31Z"/>
  <path class="cls-1" d="M324.1,1369.01h29.55c-10.22-.68-20.27-.54-29.55,0Z"/>
  <path class="cls-1" d="M1091.26,1121.64c-.58-.56-1.19-1.11-1.77-1.67v1.67h1.77Z"/>
  <path class="cls-7" d="M835.58,1316.1c-15.16-.21-27.73-.72-37.62-1.56-15.56-1.31-71.31-7.32-90.35,21.6-6.4,9.73-7.05,21.02-6.28,29.88h150.04c-17.85-.61-35.7-1.22-53.55-1.83,12.58-16.03,25.16-32.07,37.75-48.1h.01Z"/>
  <polygon class="cls-7" points="1166.74 902.39 1213.04 902.39 1213.04 934.65 1244.51 934.65 1244.51 882.56 1140.69 882.56 1140.69 934.64 1137.45 934.64 1137.45 934.65 1166.74 934.65 1166.74 902.39"/>
  <rect x="1129.34" y="882.56" width="11.36" height="52.08"/>
  <rect x="1244.51" y="882.56" width="12.23" height="52.09"/>
  <rect class="cls-3" x="1119.69" y="953" width="8.46" height="78.23"/>
  <rect class="cls-3" x="1128.15" y="953" width="8.46" height="78.23"/>
  <rect class="cls-3" x="1261.2" y="953" width="8.34" height="78.23"/>
  <rect class="cls-3" x="1252.85" y="953" width="8.34" height="78.23"/>
  <rect class="cls-3" x="1166.07" y="996.4" width="59.41" height="34.82"/>
  <polygon class="cls-2" points="1108.05 1076.69 1108.05 1031.51 1070.49 1031.51 1070.49 1076.87 1096.93 1076.87 1096.93 1076.69 1108.05 1076.69"/>
  <polygon points="1261.2 1031.52 1261.2 1032.38 1136.6 1032.38 1136.6 1032.41 1119.69 1032.41 1119.69 1031.22 1119.41 1031.22 1119.41 1076.65 1269.68 1076.65 1269.68 1031.22 1269.54 1031.22 1269.54 1031.52 1261.2 1031.52"/>
  <polygon class="cls-7" points="1252.85 1031.22 1225.47 1031.22 1225.47 1032.22 1166.07 1032.22 1166.07 1031.22 1136.6 1031.22 1136.6 1032.38 1261.2 1032.38 1261.2 1031.52 1252.85 1031.52 1252.85 1031.22"/>
  <polygon class="cls-7" points="1136.6 1032.41 1136.6 1032.38 1128.15 1032.38 1128.15 1031.22 1119.69 1031.22 1119.69 1032.41 1136.6 1032.41"/>
  <rect class="cls-7" x="1128.15" y="1031.22" width="8.46" height="1.16"/>
  <rect class="cls-7" x="1261.2" y="1031.22" width="8.34" height=".3"/>
  <rect class="cls-7" x="1252.85" y="1031.22" width="8.34" height=".3"/>
  <rect class="cls-3" x="1166.07" y="1031.22" width="59.41" height="1"/>
  <polygon class="cls-7" points="1227.88 1122.12 1238.49 1122.12 1238.49 1121.97 1247.2 1121.97 1247.2 1076.69 1108.05 1076.69 1108.05 1076.87 1096.93 1076.87 1096.93 1121.64 1227.88 1121.64 1227.88 1122.12"/>
  <rect class="cls-7" x="1096.93" y="1076.69" width="11.12" height=".18"/>
  <polygon class="cls-3" points="1299.46 1077.3 1316.67 1077.3 1316.67 1031.87 1281.72 1031.87 1281.72 1076.8 1299.46 1076.8 1299.46 1077.3"/>
  <path class="cls-2" d="M1089.49,1119.97v-43.02h-40.77c13.24,14.74,26.62,29.3,40.77,43.02Z"/>
  <path class="cls-5" d="M1070.17,1121.77h7.44v-.13h11.87v-1.67c-14.15-13.73-27.53-28.28-40.77-43.02h-.88v44.73h22.33v.09h.01Z"/>
  <polygon class="cls-2" points="1280.14 1122.54 1299.46 1122.54 1299.46 1077.3 1281.72 1077.3 1281.72 1076.8 1257.81 1076.8 1257.81 1121.97 1280.14 1121.97 1280.14 1122.54"/>
  <rect class="cls-3" x="1281.72" y="1076.8" width="17.74" height=".5"/>
  <path d="M1145.29,1165.12h67.4v.14h15.19v-43.14h-130.95v-.49h-5.68c6.37,6.12,12.88,12.09,19.62,17.81,11.67,9.9,23.08,18.29,34.41,25.67h.01Z"/>
  <path d="M1089.49,1121.77h-11.87v43.36h67.67c-11.33-7.38-22.74-15.77-34.41-25.67-6.74-5.72-13.25-11.69-19.62-17.81h-1.77v.13h0Z"/>
  <rect class="cls-7" x="1096.93" y="1121.64" width="130.95" height=".49"/>
  <rect class="cls-7" x="1077.61" y="1121.64" width="11.87" height=".13"/>
  <polygon class="cls-5" points="1070.17 1165.12 1070.17 1121.77 1047.84 1121.77 1047.84 1121.68 1028.52 1121.68 1028.52 1165.68 1062.43 1165.68 1062.43 1165.12 1070.17 1165.12"/>
  <rect class="cls-3" x="1047.84" y="1121.68" width="22.33" height=".09"/>
  <polygon class="cls-2" points="1238.49 1122.12 1238.49 1165.34 1264.96 1165.34 1264.96 1165.68 1280.14 1165.68 1280.14 1122.54 1257.81 1122.54 1257.81 1121.97 1247.2 1121.97 1247.2 1122.12 1238.49 1122.12"/>
  <rect class="cls-3" x="1238.49" y="1121.97" width="8.71" height=".15"/>
  <rect class="cls-2" x="1257.81" y="1121.97" width="22.33" height=".56"/>
  <path class="cls-7" d="M1145.5,1165.26c22.25,14.47,44.21,24.93,67.19,34.48v-34.48h-67.19Z"/>
  <path class="cls-7" d="M1186.82,1205.76h10.61v-.13h15.26v-5.88c-22.98-9.55-44.94-20.01-67.19-34.48h-67.89v-.14h-7.44v.56h-7.74v39.9h124.39v.17Z"/>
  <path class="cls-7" d="M1212.69,1165.12h-67.4c.07,.05,.14,.09,.21,.14h67.19v-.14Z"/>
  <path class="cls-7" d="M1077.61,1165.12v.14h67.89c-.07-.05-.14-.09-.21-.14h-67.68Z"/>
  <rect class="cls-7" x="1062.43" y="1165.12" width="7.74" height=".56"/>
  <polygon class="cls-5" points="1029.11 1206.18 1036.56 1206.18 1036.56 1205.59 1054.98 1205.59 1054.98 1165.91 1013.33 1165.91 1013.33 1205.71 1029.11 1205.71 1029.11 1206.18"/>
  <path class="cls-2" d="M1238.49,1165.34h-15.18v38.73c1.3,.52,2.6,1.04,3.9,1.56h11.88v.55h25.87v-40.5h-26.47v-.34h0Z"/>
  <path class="cls-2" d="M1227.21,1205.62c-1.3-.52-2.61-1.04-3.9-1.56v1.56h3.9Z"/>
  <rect class="cls-2" x="1238.49" y="1165.34" width="26.47" height=".34"/>
  <polygon points="1036.56 1206.18 1036.56 1247.34 1171.07 1247.34 1171.07 1247.38 1181.68 1247.38 1181.68 1247.25 1186.82 1247.25 1186.82 1205.76 1062.43 1205.76 1062.43 1205.59 1054.98 1205.59 1054.98 1206.18 1036.56 1206.18"/>
  <rect class="cls-7" x="1062.43" y="1205.59" width="124.39" height=".17"/>
  <rect class="cls-7" x="1036.56" y="1205.59" width="18.43" height=".59"/>
  <polygon class="cls-5" points="1013.37 1247.8 1020.81 1247.8 1020.81 1247.34 1029.11 1247.34 1029.11 1206.18 1013.33 1206.18 1013.33 1205.71 987.46 1205.71 987.46 1247.77 1013.37 1247.77 1013.37 1247.8"/>
  <rect class="cls-3" x="1013.33" y="1205.71" width="15.78" height=".46"/>
  <path class="cls-5" d="M1239.08,1210.3v-4.12h-10.5c3.47,1.37,6.97,2.75,10.5,4.12Z"/>
  <path class="cls-5" d="M1223.3,1206.17v-.55h-10.61v.13h-15.26v41.5h25.9v.54h15.75v-37.5c-3.53-1.38-7.03-2.75-10.5-4.12h-5.28Z"/>
  <rect class="cls-3" x="1197.43" y="1205.62" width="15.26" height=".13"/>
  <path class="cls-3" d="M1227.21,1205.62c.46,.18,.92,.37,1.38,.55h10.5v-.55h-11.88Z"/>
  <path class="cls-3" d="M1223.3,1206.17h5.28c-.46-.18-.92-.37-1.38-.55h-3.9v.55Z"/>
  <polygon class="cls-7" points="1150.81 1288.15 1150.81 1288.43 1161.42 1288.43 1161.42 1288.36 1171.07 1288.36 1171.07 1247.38 1036.56 1247.38 1036.56 1247.34 1029.11 1247.34 1029.11 1247.8 1020.81 1247.8 1020.81 1288.15 1150.81 1288.15"/>
  <rect class="cls-7" x="1036.56" y="1247.34" width="134.51" height=".04"/>
  <rect class="cls-7" x="1020.81" y="1247.34" width="8.3" height=".46"/>
  <polygon class="cls-5" points="993.1 1288.86 1000.55 1288.86 1000.55 1288.15 1013.37 1288.15 1013.37 1247.8 987.46 1247.8 987.46 1247.77 971.71 1247.77 971.71 1288.29 993.1 1288.29 993.1 1288.86"/>
  <rect class="cls-3" x="987.46" y="1247.77" width="25.9" height=".03"/>
  <polygon class="cls-5" points="1203.08 1288.36 1203.08 1288.85 1223.34 1288.85 1223.34 1247.79 1197.43 1247.79 1197.43 1247.25 1186.82 1247.25 1186.82 1247.38 1181.68 1247.38 1181.68 1288.36 1203.08 1288.36"/>
  <rect class="cls-3" x="1181.68" y="1247.25" width="5.14" height=".12"/>
  <rect class="cls-3" x="1197.43" y="1247.25" width="25.9" height=".54"/>
  <path d="M1150.81,1303.8v-15.36h-130v-.28h-7.44v.7h-12.82v23.06c44.06-2.02,94.21-4.74,150.26-8.12Z"/>
  <path d="M1000.55,1311.92v15.94h129.57v1.31h20.69v-25.36c-56.06,3.38-106.21,6.1-150.26,8.12h0Z"/>
  <rect class="cls-7" x="1020.81" y="1288.15" width="130" height=".28"/>
  <rect class="cls-7" x="1000.55" y="1288.15" width="12.82" height=".7"/>
  <path class="cls-5" d="M993.1,1288.86h-21.39v-.56h-20.26v25.68c13.19-.49,27.08-1.07,41.65-1.72v-23.4Z"/>
  <path class="cls-5" d="M972.41,1327.54v.26h20.69v-15.55c-14.58,.65-28.47,1.23-41.65,1.72v13.57h20.96Z"/>
  <rect class="cls-3" x="971.71" y="1288.29" width="21.39" height=".56"/>
  <path class="cls-5" d="M1181.68,1288.36h-10.61v.07h-9.65v14.72c13.55-.83,27.44-1.69,41.65-2.59v-11.71h-21.39v-.49h0Z"/>
  <path class="cls-5" d="M1161.42,1329.15h28.3v.43h13.35v-29.02c-14.21,.9-28.11,1.77-41.65,2.59v26Z"/>
  <rect class="cls-3" x="1161.42" y="1288.36" width="9.65" height=".07"/>
  <rect class="cls-3" x="1181.68" y="1288.36" width="21.39" height=".49"/>
  <path class="cls-7" d="M979.86,1368.67h150.26v-2.64h-150.26v2.64Z"/>
  <path class="cls-7" d="M1000.55,1329.16v-1.31h-20.69v38.17h150.26v-36.86h-129.57Z"/>
  <rect class="cls-7" x="1000.55" y="1327.86" width="129.57" height="1.31"/>
  <path class="cls-3" d="M930.76,1368.85v.24h41.65v-.27c-13.88,.01-27.77,.02-41.65,.03Z"/>
  <path class="cls-3" d="M930.76,1366.03v2.82c13.88-.01,27.77-.02,41.65-.03v-2.78h-41.65Z"/>
  <path class="cls-5" d="M972.41,1327.8h-20.96v-.26h-20.69v38.49h41.65v-38.23Z"/>
  <rect class="cls-3" x="951.45" y="1327.54" width="20.96" height=".26"/>
  <path class="cls-5" d="M1161.42,1329.58v-.43h-20.69v36.87h48.99v-36.45h-28.3Z"/>
  <rect class="cls-3" x="1140.73" y="1329.15" width="10.08" height=".01"/>
  <rect class="cls-3" x="1161.42" y="1329.15" width="28.3" height=".43"/>
  <path class="cls-7" d="M1413.38,1286.31c-.01-.07-.03-.14-.04-.22-.02,.07-.05,.15-.07,.22h.11Z"/>
  <path class="cls-7" d="M1385.59,1278.92c3.51,2.11,7.07,4.3,10.66,6.54,2.34-6.92,3.57-13.17,7.18-24.7,.82-2.6,1.77-5.63,2.79-8.77-1.44-6.89-2.87-13.77-4.31-20.66-3.14,13.65-8.12,25.78-15.16,44.48-.36,.97-.75,2.01-1.16,3.1h0Z"/>
  <path class="cls-7" d="M1361.72,1248.38c-3.98,3.25-7.9,6.74-11.7,10.46,3.51,1.85,7.07,3.77,10.68,5.75,.54-.5,1.05-1,1.61-1.51-.23,.61-.47,1.29-.72,1.99,1.94,1.07,3.91,2.2,5.88,3.3,.19-.85,.38-1.64,.57-2.33,2.37-2.4,5.85-6.32,8.95-11.8,1.64-2.9,6.29-11.71,8.95-35.4,1.92-17.1,.96-25.51,6.51-28.48,.26-.14,.57-.21,.86-.32-4.33-20.78-8.67-41.56-13-62.34,3.03-.86,6.14-1.69,9.24-2.52-8.74-17.88-17.47-35.76-26.21-53.63-11.41,.29-22.81,.57-34.22,.86-20.43,49.71-40.85,99.42-61.28,149.13,23.33,9.26,48.4,19.86,76.23,34.2,6.68-3.48,12.87-5.82,17.64-7.37h.01Z"/>
  <path class="cls-7" d="M1393.31,1190.05c2.31-.91,5.14-.9,7.28,.32,2.12,1.22,6.69,5.38,3.66,28.07-.61,4.58-1.39,8.8-2.33,12.89,1.44,6.89,2.87,13.77,4.31,20.66,3.7-11.36,8.34-24.23,11.04-23.78,3.05,.51,3.22,17.94,1.63,32.14-1.11,9.91-2.99,17.4-5.56,25.74,.01,.07,.03,.14,.04,.22h-.11c-.81,2.64-1.7,5.37-2.65,8.29,4.72,3.05,9.36,6.09,13.85,9.1,2.39-5.64,4.47-9.45,5.82-9.17,1.9,.39,1.77,8.77,1.5,14.11,30.93,21.05,55.99,40.41,74.48,55.44-38.91-79.63-77.81-159.26-116.71-238.89-3.1,.83-6.21,1.66-9.24,2.52,4.33,20.78,8.67,41.56,13,62.34h-.01Z"/>
  <path class="cls-7" d="M1358.13,1290.21c3.12-.22,6.22-.43,9.36-.65-.26-1.15-.49-2.33-.67-3.57-1.07-7.26-.29-13.39,.65-17.61-1.96-1.11-3.94-2.24-5.88-3.3-1.38,4.02-2.87,9.56-3.4,16.24-.24,3.09-.25,6.04-.07,8.89h.01Z"/>
  <path class="cls-7" d="M1324.76,1292.52c5.1-.35,10.24-.7,15.4-1.06,3.98-8.08,10.31-17.3,20.53-26.87-3.6-1.98-7.16-3.9-10.68-5.75-9.71,9.52-18.54,20.66-25.26,33.68h.01Z"/>
  <path class="cls-7" d="M1396.25,1285.46c-3.6-2.25-7.15-4.43-10.66-6.54-1.05,2.81-2.25,6.04-3.56,9.62,4.47-.31,8.96-.63,13.48-.95,.26-.72,.51-1.42,.74-2.12h0Z"/>
  <path class="cls-7" d="M1305.56,1293.82c1.57-3.24,3.4-6.4,5.57-9.57,9.49-13.82,21.89-22.74,32.95-28.51-27.83-14.35-52.9-24.94-76.23-34.2-10.53,25.63-21.06,51.26-31.59,76.89,22.35-1.45,45.45-2.99,69.31-4.61h0Z"/>
  <path class="cls-7" d="M1305.56,1293.82c-23.86,1.62-46.96,3.16-69.31,4.61-9.26,22.53-18.52,45.06-27.78,67.6h85.31c.17-4.35,.45-9.01,.88-14.12,2.24-26.93,3.76-43.34,10.9-58.08h0Z"/>
  <path class="cls-7" d="M1431.79,1308.64c-.11,2.07-.23,3.7-.28,4.2-1.55,18.86-7.01,31.46-13.43,48.82-.5,1.35-1.04,2.83-1.59,4.36h90.72c-.32-.65-.63-1.3-.95-1.95-18.48-15.03-43.55-34.4-74.48-55.44h.01Z"/>
  <path class="cls-7" d="M1394.89,1351.09c-2.62-5.63-5.23-11.74-7.73-18.31-2.37-6.24-4.39-12.23-6.1-17.9,3.23-4.58,7.72-11.59,11.8-20.75,1.06-2.38,1.91-4.51,2.65-6.54-4.51,.32-9.01,.64-13.48,.95-1.99,5.43-4.23,11.66-6.67,18.61-2.26-3.17-5.98-9.19-7.88-17.59-3.14,.22-6.25,.44-9.36,.65,.78,12.08,5,22.32,9.48,32.87,3,7.08,7.78,16.84,15.29,27.65,1.23,5.18,1.85,10.31,1.96,15.3h15.16c-.35-.94-.7-1.87-1.05-2.74,1.63-2.46,3.99-6.22,6.51-10.99,5.6-10.58,7.27-17.26,11.8-29.7,2.44-6.71,4.96-13.61,7.2-18.9-4.49-3-9.13-6.04-13.85-9.1-1.55,4.75-3.26,9.99-5.15,16.2-2.8,9.22-6.73,23-10.58,40.28h0Z"/>
  <path class="cls-7" d="M1335.25,1304.26c1.05-3.77,2.59-8.1,4.91-12.8-5.17,.36-10.3,.71-15.4,1.06-2.5,4.83-4.72,9.91-6.57,15.27-2.22,6.44-3.14,11.02-5.16,58.24h22.68c-.8-26.74-6.08-41.55-.46-61.77h0Z"/>
  <path class="cls-5" d="M1361.72,1248.38c-4.77,1.56-10.96,3.89-17.64,7.37,1.97,1.02,3.94,2.03,5.94,3.09,3.8-3.72,7.72-7.21,11.7-10.46h0Z"/>
  <path class="cls-5" d="M1350.02,1258.84c-2-1.05-3.97-2.07-5.94-3.09-11.06,5.77-23.45,14.69-32.95,28.51-2.18,3.17-4.01,6.33-5.57,9.57,6.35-.43,12.74-.87,19.2-1.31,6.73-13.02,15.56-24.16,25.26-33.68h0Z"/>
  <path class="cls-5" d="M1318.19,1307.79c1.85-5.37,4.07-10.44,6.57-15.27-6.45,.44-12.85,.88-19.2,1.31-7.14,14.74-8.66,31.15-10.9,58.08-.43,5.12-.7,9.78-.88,14.12h19.24c2.02-47.22,2.94-51.8,5.16-58.24h.01Z"/>
  <path class="cls-7" d="M1362.31,1263.08c-.56,.5-1.08,1-1.61,1.51,.3,.17,.59,.32,.9,.49,.24-.71,.48-1.38,.72-1.99h-.01Z"/>
  <path class="cls-2" d="M1340.16,1291.45c5.94-.41,11.94-.83,17.96-1.25-.18-2.85-.18-5.8,.07-8.89,.53-6.69,2.02-12.23,3.4-16.24-.3-.17-.6-.32-.9-.49-10.22,9.56-16.55,18.78-20.53,26.87h0Z"/>
  <path class="cls-2" d="M1382.9,1350.73c-7.52-10.81-12.29-20.57-15.29-27.65-4.47-10.56-8.7-20.79-9.48-32.87-6.03,.42-12.02,.84-17.96,1.25-2.32,4.7-3.86,9.03-4.91,12.8-5.62,20.22-.35,35.03,.46,61.77h11.61c.06-.58,.14-1.16,.28-1.74,1.68-7.16,8.75-11.62,15.79-9.97,5.63,1.32,9.53,6.16,10.01,11.71h11.46c-.11-4.99-.73-10.12-1.96-15.3h-.01Zm-23.47-15.96c-1.15,4.89-5.98,7.94-10.79,6.81s-7.78-6.01-6.63-10.9,5.98-7.94,10.79-6.81,7.78,6.01,6.63,10.9Z"/>
  <g>
    <path d="M1430.29,1294.53c-1.34-.28-3.42,3.53-5.82,9.17,2.48,1.66,4.91,3.3,7.31,4.94,.27-5.34,.4-13.72-1.5-14.11h0Z"/>
    <path d="M1417.27,1322.61c-4.53,12.44-6.2,19.12-11.8,29.7-2.52,4.76-4.88,8.52-6.51,10.99,.35,.87,.7,1.79,1.05,2.74h16.48c.56-1.54,1.1-3.01,1.59-4.36,6.42-17.36,11.87-29.96,13.43-48.82,.04-.51,.17-2.13,.28-4.2-2.41-1.64-4.84-3.28-7.31-4.94-2.24,5.29-4.76,12.2-7.2,18.9h-.01Z"/>
  </g>
  <g>
    <path d="M1396.25,1285.46c.24,.15,.47,.29,.71,.44,.76,.48,1.49,.95,2.25,1.42,4.66-.33,9.35-.66,14.06-1,.02-.07,.05-.15,.07-.22l-7.11-34.11c-1.02,3.14-1.98,6.18-2.79,8.77-3.62,11.53-4.85,17.77-7.18,24.7h0Z"/>
    <path d="M1410.62,1294.61c.95-2.91,1.83-5.65,2.65-8.29-4.71,.34-9.39,.67-14.06,1,3.88,2.44,7.67,4.87,11.41,7.29Z"/>
    <path d="M1418.9,1260.35c1.59-14.2,1.42-31.63-1.63-32.14-2.7-.45-7.35,12.42-11.04,23.78l7.11,34.11c2.57-8.34,4.45-15.83,5.56-25.74h0Z"/>
    <path d="M1399.21,1287.32c-.76-.48-1.49-.95-2.25-1.42-.24-.15-.47-.29-.71-.44-.24,.7-.48,1.4-.74,2.12,1.23-.09,2.47-.17,3.7-.26Z"/>
    <path d="M1395.51,1287.58c-.74,2.03-1.59,4.16-2.65,6.54-4.08,9.16-8.57,16.17-11.8,20.75,1.72,5.67,3.73,11.66,6.1,17.9,2.5,6.57,5.11,12.68,7.73,18.31,3.85-17.28,7.77-31.06,10.58-40.28,1.89-6.21,3.61-11.45,5.15-16.2-3.74-2.42-7.53-4.85-11.41-7.29-1.24,.09-2.47,.17-3.7,.26h0Z"/>
  </g>
  <path d="M1404.25,1218.45c3.03-22.69-1.54-26.86-3.66-28.07-2.14-1.22-4.97-1.24-7.28-.32l8.61,41.28c.94-4.09,1.72-8.3,2.33-12.89h0Z"/>
  <g>
    <path d="M1386.75,1275.82c7.04-18.7,12.03-30.83,15.16-44.48l-8.61-41.28c-.29,.11-.59,.18-.86,.32-5.55,2.97-4.59,11.38-6.51,28.48-2.66,23.69-7.31,32.5-8.95,35.4-3.1,5.47-6.58,9.4-8.95,11.8-.19,.68-.38,1.48-.57,2.33,5.92,3.34,11.94,6.82,18.12,10.54,.41-1.09,.8-2.13,1.16-3.1h0Z"/>
    <path d="M1366.82,1285.99c.18,1.23,.41,2.42,.67,3.57,4.82-.34,9.67-.68,14.55-1.02,1.31-3.58,2.5-6.8,3.56-9.62-6.18-3.72-12.2-7.2-18.12-10.54-.94,4.22-1.72,10.35-.65,17.61h-.01Z"/>
    <path d="M1382.03,1288.53c-4.88,.34-9.73,.68-14.55,1.02,1.9,8.4,5.61,14.42,7.88,17.59,2.44-6.95,4.69-13.18,6.67-18.61h0Z"/>
  </g>
  <path class="cls-7" d="M925.65,1314.87c39.33-80.58,78.65-161.17,117.98-241.75-5.73-.08-11.46-.16-17.19-.23-63.62,81.07-127.24,162.15-190.86,243.22,23.71,.33,53.8-.1,90.07-1.24h0Z"/>
  <path class="cls-7" d="M835.58,1316.1c-13.13,16.64-26.25,33.28-39.38,49.93h104.48c8.32-17.05,16.65-34.11,24.97-51.16-36.27,1.14-66.37,1.56-90.07,1.24h0Z"/>
  <path class="cls-5" d="M1363.39,1354.32c-7.04-1.65-14.11,2.81-15.79,9.97-.14,.58-.22,1.16-.28,1.74h26.08c-.48-5.55-4.38-10.38-10.01-11.71h0Z"/>
  <path class="cls-5" d="M1352.79,1323.87c-4.81-1.13-9.64,1.92-10.79,6.81s1.82,9.77,6.63,10.9,9.64-1.92,10.79-6.81-1.82-9.77-6.63-10.9Z"/>
  <polygon points="1249.64 939.69 1249.64 935.48 1244.51 935.48 1244.51 934.65 1213.04 934.65 1213.04 937.33 1166.74 937.33 1166.74 934.65 1137.45 934.65 1137.45 939.69 1249.64 939.69"/>
  <rect x="1249.64" y="934.65" width="7.1" height=".83"/>
  <rect x="1244.51" y="934.65" width="5.13" height=".83"/>
  <g>
    <polygon points="1249.64 935.48 1249.64 939.69 1137.45 939.69 1137.45 934.65 1103.25 934.65 1103.25 953 1119.69 953 1119.69 949.98 1128.15 949.98 1128.15 943.82 1261.2 943.82 1261.2 948.2 1269.54 948.2 1269.54 953 1298.07 953 1298.07 934.65 1256.74 934.65 1256.74 935.48 1249.64 935.48"/>
    <rect x="1166.74" y="934.65" width="46.3" height="2.68"/>
    <polygon points="1136.6 953 1252.85 953 1252.85 948.2 1261.2 948.2 1261.2 943.82 1128.15 943.82 1128.15 949.98 1136.6 949.98 1136.6 953"/>
    <rect x="1119.69" y="949.98" width="8.46" height="3.02"/>
    <rect x="1128.15" y="949.98" width="8.46" height="3.02"/>
    <rect x="1261.2" y="948.2" width="8.34" height="4.8"/>
    <rect x="1252.85" y="948.2" width="8.34" height="4.8"/>
  </g>
  <path class="cls-3" d="M1103.59,865.84v16.72h12.43c5-5.75,9.83-11.32,14.52-16.72h-26.95Z"/>
  <path d="M1129.34,877.85h8.11v-6.37h112.19v8.96h7.1v2.12h28.35v-16.72h-154.54c-4.69,5.4-9.52,10.96-14.52,16.72h13.32v-4.71h0Z"/>
  <polygon points="1140.69 882.56 1244.51 882.56 1244.51 880.44 1249.64 880.44 1249.64 871.48 1137.45 871.48 1137.45 877.85 1140.69 877.85 1140.69 882.56"/>
  <rect x="1129.34" y="877.85" width="8.11" height="4.71"/>
  <rect x="1137.45" y="877.85" width="3.24" height="4.71"/>
  <rect x="1249.64" y="880.44" width="7.1" height="2.12"/>
  <rect x="1244.51" y="880.44" width="5.13" height="2.12"/>
  <path d="M634.61,565.32c.78-9,34.08-15.28,61.69-13.37,16.16,1.12,29.24,4.97,38.04,8.23-.61-9.82-3.23-24.83-14.39-34.96-9.44-8.57-20.13-9.24-48.32-12.34-12.72-1.4-32.12-3.63-56.38-6.85,.91,13.58,.83,30.24-1.88,49.01-1.85,12.78-4.59,24.15-7.54,33.93,15.42-3.43,30.84-6.85,46.27-10.28-14.77-6.17-17.73-10.49-17.48-13.37h0Z"/>
  <path d="M924.54,687.66c23.11,9.61,49.86,34.65,67.26,101.47,7.32-44.62-2.39-67.34-13.8-79.88-18.16-19.98-58.84-34.22-70.94-55.52-1.55-2.73-4.86-8.74-4.11-16.45,.78-8.09,5.63-13.81,8.22-16.45-17.8-14.03-38.51-14.99-47.29-6.17-10.41,10.46-2.71,33.34,7.2,46.27,14.54,18.96,35.37,19.21,53.46,26.73h0Z"/>
  <path d="M560.38,644.47c4.96-.87,25.05-4.4,33.93-21.39,2.82-5.4,3.67-10.55,3.93-14.02,2.54-5.9,5.08-11.8,7.62-17.7-1.41,.91-2.83,1.83-4.24,2.74-1.87,2.24-21,24.44-49.26,21.59-6.44-.65-11.96-2.49-16.55-4.62v32.98c9.56,3.03,19.51,1.31,24.56,.42h.01Z"/>
  <path d="M406.8,915.68c5.08,10.57,25.86,15.46,35.79,7.95,8.95-6.78,8.02-22.88,4.4-41.07h-29.01c-7.06,15.11-15.42,24.32-11.18,33.12h0Z"/>
  <path class="cls-5" d="M453.72,979.29c3.99,6.14,9.64,15.86,14.31,28.63,1.3,3.54,2.86,8.26,5.41,19.09,7.58-5.26,15.19-10.41,22.82-15.43-9.81-9.94-23.64-21.62-42.54-32.29h0Z"/>
  <path class="cls-2" d="M487.91,1082.67c9.97,4.49,31.91-10.18,34.19-27.83,.38-2.98,1.06-12.61-17.49-34.19-2.38-2.77-5.16-5.82-8.35-9.06-7.63,5.02-15.24,10.17-22.82,15.43,.96,4.08,2.06,9.01,3.34,15.11,6.96,33.04,6.35,38.41,11.13,40.56v-.02Z"/>
  <path class="cls-2" d="M651.73,1115.28c-16.35-7.87-46.48-18.96-91.45-17.49,22.69,6.98,37.53,16.86,46.92,24.65,10.39,8.61,22.97,22.01,25.45,24.65,19.03,20.27,22.03,27.64,28.63,27.04,10.15-.92,20.64-19.91,16.7-34.99-2.23-8.52-9.01-15.57-26.24-23.86h-.01Z"/>
  <path class="cls-2" d="M851.33,1096.19c-13.76-9.03-32.33-1.74-54.07,7.16-16.48,6.74-39.63,18.37-64.41,38.97,34.54-15.05,62.37-17.48,81.91-16.7,23.97,.96,43.17,7.06,48.51-1.59,4.33-7.03-2-21.32-11.93-27.83h-.01Z"/>
  <path class="cls-7" d="M985.36,981.73c-6.03-5.65-17.76-3.67-29.58,1.19,10.9,8.65,21.23,17.9,31.16,27.56,4.66-10.2,4.38-23.16-1.58-28.74h0Z"/>
  <path class="cls-2" d="M890.73,1071.21c14.88-31.16,31.37-41.68,44.23-45.26,19.24-5.35,33.59,3.95,45.26-6.17,2.84-2.47,5.08-5.72,6.72-9.32-9.93-9.66-20.26-18.91-31.16-27.56-9.13,3.75-18.3,9.23-24.94,14.24-29.41,22.24-37.54,57.14-40.12,74.06h.01Z"/>
  <path class="cls-5" d="M852.56,770.36c17.34-5.95,33.96,9.3,34.97,10.25-.5-1.18-12.33-27.88-38.06-30.86-25.38-2.94-51.68,18.68-51.43,42.17,.18,17.25,14.7,37.52,31.89,37.03,14.97-.43,29.14-16.53,26.74-25.71-2.29-8.78-18.85-8.05-20.05-16.37-.94-6.49,8.16-13.84,15.94-16.51h0Z"/>
  <path class="cls-6" d="M622.79,606.2c-4.72,7.47-6.06,19.99,1.79,28.19,5.79,6.04,15.02,8.11,23.71,5.37-8.85-4.33-14.03-13.45-12.97-22.37,1.29-10.93,11.72-19.82,24.16-19.24-14.28-6.76-30.03-2.5-36.69,8.05Z"/>
  <path class="cls-6" d="M739.55,614.91c6.7,4.65,17.08,10.7,30.89,14.66,15.87,4.55,29.57,4.42,38.22,3.66-4.98-4.68-13.83-11.74-26.7-16.23-18.87-6.58-35.3-3.76-42.4-2.09h-.01Z"/>
  <path class="cls-4" d="M539.69,686.45c-4.3-8.66,2.2-25.09,19.37-30.5-23.1-1.45-38.71,14.52-37.85,27.34,.79,11.79,15.74,24.35,30.5,21.93,10.05-1.64,15.85-9.54,17.3-11.64-13.03,4.53-25.68,.17-29.32-7.14h0Z"/>
  <path class="cls-4" d="M732.56,1127.22c6.17-10.08,1.24-28.96-12.19-35.53-9.14-4.47-18.45-1.39-20.85-.52,13.26,3.84,21.06,14.71,19.79,22.79-1.49,9.55-16.3,19.2-33.44,13.67,18,14.54,39.98,10.55,46.69-.42h0Z"/>
  <path class="cls-4" d="M869.72,1054.6c5.22,8.13,.57,25.18-15.92,32.44,23.11-1.08,36.89-18.67,34.63-31.33-2.08-11.64-18.31-22.47-32.71-18.46-9.8,2.73-14.72,11.22-15.93,13.46,12.46-5.94,25.51-2.99,29.93,3.89Z"/>
  <path class="cls-4" d="M952.18,920.19c-10.97-4.41-28.76,3.61-32.99,17.95-2.88,9.76,1.71,18.43,2.97,20.64,1.57-13.71,10.99-23.22,19.16-23.32,9.66-.12,21.65,12.87,19.06,30.69,11.34-20.17,3.73-41.17-8.2-45.97h0Z"/>
  <path class="cls-4" d="M981.55,902.84c1.09-3.67,4.54-16.92-1.98-31.18-4.28-9.36-10.88-14.83-14.35-17.32-3.43,.47-17.01,2.75-27.22,14.85-8.02,9.5-9.53,19.8-9.9,23.75,10.55-8.65,24.42-11.21,36.13-6.43,10.76,4.39,15.83,13.4,17.32,16.33h0Z"/>
  <path d="M778.25,775.43c2.57-5.08,14.5-27.25,41.35-36.76,25.25-8.94,46.88-.75,54.56,2.3,29.79,11.81,42.81,37.07,45.95,43.65,.19-4.77,.92-34.74-22.4-56.86-19.25-18.26-49.6-26.16-76.96-14.36-24.65,10.63-41.17,34.78-42.5,62.03h0Z"/>
  <path class="cls-4" d="M942.1,733.34c-9.84-16.39-26.38-20.87-29.79-21.71,10.62,22.32,21.24,44.64,31.87,66.96,.91-1.99,10.59-24.14-2.08-45.25Z"/>
  <path class="cls-7" d="M981.67,785.83c-7.36-18.76-17.8-32.31-25.85-40.99-.5,6.29-1.26,15.74-2.22,27.26-1.83,21.98-2.13,24.2-2.22,27.46-.33,11.47,2.01,28.06,14.59,49.38,2.68,1.26,6.34,3.39,9.9,6.9,5.98,5.92,8.36,12.52,9.33,15.95,3.69-13.1,11.48-47.7-3.52-85.96h-.01Z"/>
  <path d="M754.04,583.96c-19.02-.94-33.98,8.51-67.19,6.67-11.58-.64-21-2.41-27.16-3.81,7.31,7.78,14.61,15.57,21.92,23.35,8.71-.9,22.7-2.37,40.03-4.29,30.76-3.4,36.51-4.27,45.27-3.34,11.38,1.22,28.63,5.58,48.61,21.44-24.94-31.68-46.24-39.27-61.47-40.03h-.01Z"/>
  <path class="cls-4" d="M685.49,560.71c-12.63,0-23.08,2.74-30.41,5.38,12.27,11.86,22.71,14.81,29.87,15.36,9.3,.72,14.53-2.47,29.6-3.7,10.53-.86,19.17-.21,24.62,.43-7.86-5.55-27.16-17.5-53.69-17.48h.01Z"/>
  <path class="cls-5" d="M765.71,559.49c3.1-1.5,6.06-2.27,8.55-2.65-5.85-2.31-12.45-4.55-19.76-6.49-5.19-1.37-10.13-2.43-14.75-3.24,3.24,10.23,6.49,20.45,9.73,30.68,1.35-3.43,5.75-13.21,16.22-18.29h.01Z"/>
  <path d="M755.09,575.42c7.02,0,23.44,1,40.41,11.5,15.14,9.37,23.11,21.62,26.55,27.73-.1-5.38-1.08-17.88-9.44-30.38-11.39-17.03-28.48-22.1-33.04-23.3-4.42,1.77-8.85,3.54-13.27,5.31-3.74,3.05-7.47,6.1-11.21,9.14h0Z"/>
  <path d="M528.5,985.64c-6.2-9.6-14.85-22.43-25.98-37.29,.16,3.23,.1,10.96-4.58,18.95-6.32,10.78-16.58,14.42-19.26,15.28,7.42,4.96,17.06,12.44,26.65,23.1,8.56-5.5,17.15-10.82,25.77-15.96-.81-1.28-1.66-2.62-2.6-4.08h0Z"/>
  <path d="M530.64,1045.55c4.57-6.05,12.18-18.13,10.7-32.7-.65-6.41-2.89-11.48-10.23-23.12-8.62,5.14-17.21,10.47-25.77,15.96,1.61,1.79,3.23,3.65,4.83,5.63,10.28,12.71,16.6,25.02,20.48,34.23h-.01Z"/>
  <path d="M590.58,1090.95c10.95,.11,27.31,1.55,45.83,8.24,16.36,5.9,28.68,13.83,36.88,20.05,1.42-3.76,2.97-9.46,2.15-16.11-1.49-12.07-10-20.93-25.78-32.59-12.77-9.44-31.94-21.9-58.01-33.3,2.5,4.49,8.73,17.07,6.45,33.3-1.31,9.29-4.91,16.27-7.52,20.41h0Z"/>
  <path d="M737.04,1100.69c8.61,13.93,2.75,28.75,2.11,30.29,11.15-8,25.07-16.69,41.8-24.54,22.07-10.36,42.39-16.17,58.67-19.56-2.43-4.98-7.55-13.48-17.2-18.31-9.8-4.9-19.46-3.62-26.13-2.56-31.12,4.96-65.54,16.13-78.4,20.45,2.57,.72,12.78,3.91,19.16,14.22h0Z"/>
  <path class="cls-5" d="M952.03,979.99c.12-.04,.25-.1,.37-.14-1.57-1.66-10.02-10.32-22.08-15.38,5.77,3.8,11.53,7.8,17.28,12.07,1.51,1.12,2.95,2.31,4.43,3.45Z"/>
  <path d="M907.64,961.17c-25.79,3.72-48.37,33.98-44.23,71.68,2.56-.01,8.89,.31,15.26,4.48,7.98,5.22,10.63,12.96,11.31,15.2,1.73-8.75,5.6-22.17,14.99-35.93,15.91-23.32,37.74-33.09,47.06-36.61-1.48-1.14-2.93-2.33-4.43-3.45-5.75-4.27-11.51-8.27-17.28-12.07-6.64-2.79-14.37-4.5-22.68-3.3Z"/>
  <path class="cls-4" d="M807.42,644.13c-5.74,2.97-11.48,3.54-22.73,4.55-17.25,1.54-31.59,.6-41.47-.57,6.91,4.22,20.28,11.08,38.07,11.93,10.55,.51,38.21,1.84,50.57-17.61,12.29-19.36-.17-44.17-1.14-46.02-.64,8.62-3.74,37.59-23.3,47.73h0Z"/>
  <path class="cls-4" d="M563.74,1088.31c13.8,0,24.99-11.33,24.99-25.31s-11.19-25.31-24.99-25.31-24.99,11.33-24.99,25.31,11.19,25.31,24.99,25.31Z"/>
  <path class="cls-5" d="M585.84,646.6c-12.12,0-21.94,10.23-21.94,22.85s9.82,22.85,21.94,22.85,21.94-10.23,21.94-22.85-9.82-22.85-21.94-22.85Z"/>
  <path d="M515.63,613.98c-3.54,12.39,8.73,23.38,9.83,24.34,3.21,2.79,6.75,4.59,10.35,5.73v-32.98c-5.58-2.6-9.77-5.67-12.24-7.71-2.28,1.62-6.36,5.07-7.95,10.63h.01Z"/>
  <path d="M463.35,764.9c36.32-11.18,40.11-78.95,40.26-82.33,.44-9.75-.33-18.01-1.2-24.04-16.78,45.24-33.12,56.94-45.67,58.29-7.75,.83-15.47-2.14-24.64,3-9.77,5.48-17.66,18.2-15.02,28.24,3.76,14.36,28.72,22.23,46.27,16.83h0Z"/>
  <path d="M421.91,806.73c8.38,31.45,4.71,53.53-.8,68.39-.98,2.64-2.04,5.1-3.13,7.44h29.01c-1.46-7.34-3.34-15-5.2-22.55-5.62-22.78-13.54-40.84-19.88-53.28Z"/>
  <path class="cls-7" d="M462.72,782.94c-17.73,10.53-21.21,30.13-14.13,39.14,6.51,8.28,23.81,10.02,33.46,.83,6.57-6.25,6.88-14.99,6.9-17.26-7.32,9.89-18.82,13.03-25.18,9.47-7.52-4.21-10.98-19.57-1.05-32.18Z"/>
  <g>
    <path class="cls-5" d="M454.93,919.65h.01c7.1-.17,19.36-1.58,27.16-10.34,4.63-5.21,6.05-11.19,6.85-26.74h-36.2c2.1,14.18,2.5,26.8,2.18,37.08Z"/>
    <path class="cls-5" d="M490.37,826.04c-1.83,1.79-12.23,11.65-28.35,11.22-14.54-.38-23.85-8.87-25.98-10.92,4.77,10.37,9.66,23.24,13.29,38.38,1.48,6.18,2.58,12.12,3.43,17.84h36.2c.2-3.92,.37-8.42,.53-13.71,.48-15.37,.75-29.68,.89-42.81h-.01Z"/>
  </g>
  <path class="cls-5" d="M551.57,710.36c-1.96,.71-8.01,2.7-15.75,2.03h0c-3.09-.28-6.45-.95-9.92-2.32-9.98-3.93-15.24-11.21-17.03-13.96h0c-2.65,10.91-5.66,20.2-8.38,27.67-4.98,13.63-7.59,20.6-13.39,28.17-4.11,5.36-10.8,12.32-21.5,18.15,4.53,4.29,17.31,15.29,31.55,12.84,2.89-.5,11.89-2.59,30.99-30.71,2.31-3.41,4.92-7.42,7.69-12h0c4.94-8.15,10.4-18.11,15.75-29.87Z"/>
  <path class="cls-4" d="M1757.53,1032.42h0c-4.3-26.52-16.42-51.7-34.91-71.23h0c-43.62-46.08-117.19-55.1-174.66-19.11,62.1-8.17,118.96,32.91,131.21,89.53h0c.28,1.27,.56,2.54,.78,3.83,5.49,30.74-2.85,61.75-20.76,86.4h0c.62,.63,1.23,1.26,1.85,1.89h0s-3.2-.03-3.2-.03h0c-19.13,25.32-48.5,43.56-83.38,47.2,42.76,17.13,88.93,11.93,124.46-9.77,15.25-9.31,28.54-21.67,38.75-36.6h0c1.73-2.51,3.38-5.08,4.93-7.74,15.17-26.17,19.51-56.03,14.92-84.35Z"/>
  <path class="cls-7" d="M1614.97,964.98c-.52,.73-1.02,1.46-1.55,2.18h3.73c-.73-.73-1.46-1.45-2.18-2.18h0Z"/>
  <path class="cls-7" d="M633.8,1369.01c-.48-3.93-.86-8.05-1.13-12.33-.6-9.62-.5-18.56,.02-26.68,18.93-13.79,40.4-29.8,63.93-47.99v-12.1h-145.63v99.1h82.81Z"/>
  <path class="cls-7" d="M2007.05,1256.5c-1.42,.03-2.77,.04-4.03,.05-1.41-6.19-2.81-12.38-4.22-18.58,.13-.32,.29-.68,.43-1-9.38-18.01-23.97-33.65-36.94-41.93-.18,0-.35,.03-.53,.03-4.92,0-9.31-2.29-12.16-5.86-9.36-2.58-20.14-2.14-31.04,.7-1.36,.63-2.83,1.06-4.37,1.28-10.21,3.25-20.38,8.53-29.44,15.33-1.59,2.2-3.74,3.97-6.24,5.1-6.31,5.59-11.86,11.95-16.21,18.89,.01,.25,.04,.49,.04,.74,0,5.26-2.62,9.9-6.61,12.71-16.15,44.67,18.11,96.39,38.34,123.78h105.07c5.95-14.95,10.98-32.58,12.65-52,.71-8.26,2.87-33.33-4.73-59.24h-.01Z"/>
  <path class="cls-5" d="M1846.78,1215.69c-8.59,0-15.56,6.96-15.56,15.56s6.97,15.56,15.56,15.56c3.33,0,6.41-1.06,8.95-2.84,.76-2.1,1.59-4.19,2.58-6.26,1.18-2.46,2.52-4.86,3.99-7.2-.39-8.24-7.18-14.81-15.52-14.81h0Z"/>
  <path class="cls-5" d="M1872.14,1181.87c-8.59,0-15.56,6.96-15.56,15.56s6.96,15.56,15.56,15.56c2.27,0,4.42-.5,6.37-1.37,2.01-1.78,4.09-3.48,6.24-5.1,1.85-2.56,2.95-5.69,2.95-9.08,0-8.59-6.97-15.56-15.56-15.56h0Z"/>
  <path class="cls-5" d="M1927.6,1175.79c0-8.59-6.97-15.56-15.56-15.56s-15.56,6.96-15.56,15.56,6.97,15.56,15.56,15.56c.73,0,1.44-.07,2.14-.16,1.46-.46,2.91-.9,4.37-1.28,5.34-2.47,9.05-7.85,9.05-14.11h0Z"/>
  <path class="cls-5" d="M1977.31,1179.51c0-8.59-6.97-15.56-15.56-15.56s-15.56,6.96-15.56,15.56c0,3.67,1.28,7.03,3.4,9.69,1.7,.47,3.36,1.01,4.95,1.68,2.47,1.04,5.07,2.45,7.74,4.16,8.34-.28,15.02-7.12,15.02-15.53h.01Z"/>
  <path class="cls-5" d="M2125.87,1152.9c-2.11-2.07-5-3.35-8.19-3.35-6.48,0-11.72,5.25-11.72,11.73s5.25,11.72,11.72,11.72c1.93,0,3.72-.51,5.32-1.33,3.79-1.94,6.41-5.84,6.41-10.39,0-3.29-1.36-6.25-3.54-8.38h0Z"/>
  <path class="cls-5" d="M2138.95,1180.62c-2.11-2.07-5-3.35-8.19-3.35-6.48,0-11.72,5.25-11.72,11.73s5.25,11.72,11.72,11.72c1.93,0,3.72-.51,5.32-1.33,3.79-1.94,6.41-5.84,6.41-10.39,0-3.29-1.36-6.25-3.54-8.38h0Z"/>
  <path class="cls-5" d="M2096.56,1141.29c-.59-1.15-1.32-2.22-2.23-3.12-2.11-2.07-5-3.35-8.19-3.35-6.48,0-11.72,5.25-11.72,11.73,0,5.31,3.55,9.74,8.38,11.18,1.07,.32,2.17,.54,3.34,.54,1.93,0,3.72-.51,5.32-1.33,3.79-1.94,6.41-5.84,6.41-10.39,0-1.9-.5-3.67-1.3-5.26h-.01Z"/>
  <rect class="cls-1" x="1227.88" y="1122.12" width="10.61" height="43.22"/>
  <rect class="cls-1" x="1212.69" y="1165.12" width="12.56" height="40.57"/>
  <rect class="cls-1" x="1052.3" y="1165.12" width="12.56" height="40.57"/>
  <rect class="cls-1" x="1065.64" y="1121.55" width="12.56" height="43.43"/>
  <path class="cls-7" d="M1997.99,1238.08c1.44,6.32,2.87,12.63,4.31,18.95,10.76-.04,27.4-.73,47.37-4.31,33.8-6.05,55.32-9.9,66.32-27.56,8.44-13.55,9.93-34,0-49.1-13.19-20.06-41.39-22.84-59.43-16.37-15.13,5.43-23.07,17.35-37.9,39.62-10.1,15.17-16.6,28.93-20.67,38.76h0Z"/>
  <rect class="cls-7" x="603.63" y="1257.5" width="296.01" height="110.02"/>
  <path class="cls-7" d="M0,1370.88c18.66-3.75,42.11-10.27,67.65-22.04,21.05-9.69,38.31-20.55,51.82-30.37,1.8,16.82,3.6,33.65,5.4,50.47-41.62,.64-83.24,1.29-124.87,1.93Z"/>
</svg>