<?xml version="1.0" encoding="utf-8"?>
<!-- Generator: Adobe Illustrator 26.5.0, SVG Export Plug-In . SVG Version: 6.00 Build 0)  -->
<svg version="1.1" id="Layer_1" xmlns="http://www.w3.org/2000/svg" xmlns:xlink="http://www.w3.org/1999/xlink" x="0px" y="0px"
	 viewBox="0 0 1849.2 170.4" style="enable-background:new 0 0 1849.2 170.4;" xml:space="preserve">
<style type="text/css">
	.st0{fill:#F47E20;}
	.st1{fill:#C7B900;}
	.st2{fill:#FFFFFF;}
	.st3{fill:#FF7BAB;}
	.st4{fill:#6B8E48;}
</style>
<path class="st0" d="M729.8,43.2c0-8,0-16,0-23.9c-27.8,0.5-55.6,1-83.4,1.6c0.1,37.9,0.2,75.7,0.3,113.6
	c60.2-0.1,120.4-0.2,180.6-0.3V19.3c-26.7,0.3-53.5,0.5-80.2,0.8c-0.3,31.7-0.5,63.4-0.8,95.2c19.7-0.3,39.3-0.5,59-0.8V39
	l-38.5,0.3c-0.1,19.7-0.3,39.5-0.4,59.2c6.7-0.5,13.4-1,20.1-1.5c-0.1-9.9-0.2-19.8-0.3-29.6h-10.4c0.3,11.3,0.5,17,0.5,17
	c0,0-0.3-12.4-0.9-37.2c6.4-0.1,12.8-0.2,19.1-0.3c-0.3,18.9-0.7,37.8-1,56.8c-10.9,0.1-21.8,0.2-32.7,0.3
	c0.3-23.7,0.6-47.3,0.9-70.9c17.1,0.1,34.1,0.2,51.2,0.2c0.1,28.9,0.2,57.8,0.2,86.8c-50.1,0.1-100.1,0.1-150.2,0.2
	c-0.1-16-0.3-32.1-0.4-48.1c9.9,0.1,19.8,0.2,29.6,0.2c0-9.7,0-19.4,0-29.1L729.8,43.2L729.8,43.2z"/>
<circle class="st1" cx="711.8" cy="90.4" r="21.9"/>
<circle cx="705.9" cy="83.8" r="12.8"/>
<circle class="st2" cx="698.6" cy="88.3" r="6.8"/>
<path class="st0" d="M97.6,44.5c0-8,0-16,0-23.9c27.8,0.1,55.6,0.2,83.3,0.4C180.6,60,180.3,99,180,138c-60-0.9-120-1.8-180-2.6
	C0,97.1,0,58.8,0,20.5c26.7,0.3,53.5,0.5,80.2,0.8c0.3,31.7,0.5,63.4,0.8,95.2c-19.7-0.3-39.3-0.5-59-0.8c0-25.2,0-50.3,0-75.5
	c12.8,0.1,25.7,0.2,38.5,0.3c0.1,19.7,0.3,39.5,0.4,59.2c-6.7-0.5-13.4-1-20.1-1.5c0.1-9.9,0.2-19.8,0.3-29.6h10.4
	c-0.3,11.3-0.5,17-0.5,17c0,0,0.3-12.4,0.9-37.2c-6.4-0.1-12.8-0.2-19.1-0.3c0.3,18.9,0.7,37.8,1,56.8c10.9,0.1,21.8,0.2,32.7,0.3
	c-0.3-23.7-0.6-47.3-0.9-70.9c-17.1,0.1-34.1,0.2-51.2,0.2c-0.1,28.9-0.2,57.8-0.2,86.8c50-0.1,100.1-0.2,150.1-0.3
	c0.1-15.8,0.3-31.7,0.4-47.6c-9.9,0.1-19.8,0.2-29.6,0.2c0-9.7,0-19.4,0-29.1C122.7,44.5,110.1,44.5,97.6,44.5L97.6,44.5z"/>
<path class="st1" d="M112.9,61.6c-5.3,0.5-9.1,13.4-9,23c0,12.6,6.5,21.8,9.6,25.6c2.1-0.6,3.5-1.5,4.3-2.1c2.9-2.4,3.4-5.5,6-15.6
	c1.5-5.6,1.4-5,1.5-5.6C127.2,75.7,118.8,61.1,112.9,61.6L112.9,61.6z"/>
<circle cx="115.1" cy="84.4" r="10.6"/>
<circle class="st2" cx="109.8" cy="76.9" r="5.6"/>
<path class="st3" d="M515,140.3c5.3-0.7,10.7-1.4,16-2.2c23.1-37.7,46.2-75.3,69.3-113h-17.8C560.1,63.5,537.6,101.9,515,140.3
	L515,140.3z"/>
<path class="st4" d="M544.3,134.9c8.9-15.8,17.7-31.7,26.6-47.5c4.3-3.3,10.6-7.4,19-10.2c15-5.1,28.1-3.6,34.8-2.3
	c-4,2.2-9.7,5.7-16.1,10.5c-13.4,10.1-22.6,20.9-25.9,24.9c-8.7,10.6-8.5,13.2-14.4,17.4C560.1,133.4,551,134.7,544.3,134.9
	L544.3,134.9z"/>
<path class="st4" d="M578.5,73.6c6.5-11.7,13.1-23.3,19.6-35c3.2-2.4,7.8-5.4,14-7.5c11-3.8,20.7-2.6,25.6-1.7
	c-3,1.6-7.1,4.2-11.8,7.7c-9.8,7.5-16.6,15.4-19.1,18.4c-6.4,7.8-6.3,9.7-10.6,12.8C590.2,72.5,583.4,73.5,578.5,73.6L578.5,73.6z"
	/>
<path class="st4" d="M510.6,136.7c8.7-15.9,17.4-31.9,26.1-47.8c0.5-5.4,0.6-12.9-1.4-21.5c-3.6-15.4-11.9-25.7-16.5-30.7
	c0.2,4.6,0.3,11.2-0.3,19.2c-1.5,16.7-5.7,30.2-7.3,35.2c-4.3,13-6.6,14.3-7,21.5C503.5,122.5,507.2,131,510.6,136.7L510.6,136.7z"
	/>
<path class="st4" d="M544.3,75.1c6.4-11.7,12.8-23.5,19.2-35.2c0.4-4,0.4-9.5-1-15.8c-2.7-11.4-8.8-18.9-12.2-22.6
	c0.2,3.4,0.3,8.3-0.2,14.1c-1.1,12.3-4.2,22.3-5.4,25.9c-3.2,9.6-4.9,10.5-5.2,15.8C539,64.7,541.8,70.9,544.3,75.1L544.3,75.1z"/>
<path d="M528.6,117c5.4-0.5,10.8-0.9,16.2-1.4c14.1-23,28.2-46,42.3-69c-5.6-0.1-11.3-0.3-16.9-0.4C556.4,69.8,542.5,93.4,528.6,117
	L528.6,117z"/>
<circle cx="580.6" cy="95.1" r="9.1"/>
<circle class="st2" cx="583.6" cy="92.2" r="6.2"/>
<circle cx="525.4" cy="85.4" r="9.1"/>
<circle class="st2" cx="525.8" cy="81.3" r="6.2"/>
<path class="st3" d="M324,139.2c-5.4-0.1-10.8-0.3-16.2-0.4c-27-35-54-69.9-81-104.9c5.9-0.6,11.8-1.3,17.6-1.9
	C271,67.7,297.5,103.4,324,139.2L324,139.2z"/>
<path class="st4" d="M294.4,136.9c-10.5-14.8-21-29.6-31.6-44.4c-4.6-2.8-11.4-6.2-20-8.1c-15.4-3.5-28.4-0.5-34.8,1.4
	c4.2,1.8,10.3,4.6,17.1,8.7c14.4,8.6,24.7,18.3,28.4,22c9.8,9.6,9.9,12.2,16.2,15.7C278.5,137.2,287.7,137.5,294.4,136.9
	L294.4,136.9z"/>
<path class="st4" d="M253.8,79.7C246,68.8,238.3,57.9,230.6,47c-3.4-2.1-8.4-4.5-14.7-6c-11.4-2.6-20.9-0.4-25.6,1.1
	c3.1,1.3,7.6,3.4,12.6,6.4c10.6,6.3,18.2,13.5,20.9,16.2c7.2,7.1,7.3,9,11.9,11.6C242.1,79.9,248.9,80.1,253.8,79.7L253.8,79.7z"/>
<path class="st4" d="M328,135.1c-10.4-14.9-20.7-29.8-31-44.7c-1.1-5.3-2-12.8-0.9-21.5c1.9-15.7,9.1-26.9,13.2-32.3
	c0.3,4.6,0.9,11.2,2.4,19c3.2,16.5,8.9,29.5,11.1,34.2c5.7,12.5,8.1,13.5,9.3,20.6C333.7,120.3,330.8,129.1,328,135.1z"/>
<path class="st4" d="M287.9,77.5c-7.6-11-15.2-22-22.9-32.9c-0.8-3.9-1.5-9.4-0.6-15.9c1.4-11.6,6.7-19.8,9.7-23.8
	c0.2,3.4,0.6,8.2,1.8,14c2.4,12.1,6.5,21.7,8.1,25.2c4.2,9.2,6,9.9,6.9,15.2C292.1,66.6,290,73.1,287.9,77.5L287.9,77.5z"/>
<path d="M308,117.5c-5.4,0.1-10.9,0.2-16.3,0.3c-16.5-21.3-33-42.7-49.4-64c5.6-0.7,11.2-1.5,16.8-2.2
	C275.4,73.5,291.7,95.5,308,117.5L308,117.5z"/>
<circle cx="254" cy="101.3" r="9.1"/>
<circle class="st2" cx="250.7" cy="98.8" r="6.2"/>
<circle cx="307.9" cy="85.7" r="9.1"/>
<circle class="st2" cx="307" cy="81.7" r="6.2"/>
<path class="st3" d="M420.3,144.5c-0.2-37.9-0.5-75.8-0.7-113.8c27.8,0,55.5-0.1,83.3-0.2c0.2,5.5,0.3,11.1,0.5,16.6
	c-8,0-16,0-23.9,0c0,9.2-0.1,18.4-0.1,27.6c-7.8,0.4-15.5,0.8-23.3,1.2c0.3,10.7,0.7,21.4,1,32.2c-6.9,0.4-13.8,0.8-20.7,1.2
	c0.1,11.6,0.3,23.2,0.4,34.9C431.2,144.3,425.7,144.4,420.3,144.5L420.3,144.5z"/>
<path class="st3" d="M410,143.2c-0.9-36.8-1.8-73.7-2.6-110.5c-27.8-0.3-55.6-0.6-83.3-0.8c0,5.1,0,10.2-0.1,15.2
	c8,0.2,16,0.4,24,0.6c0.3,9.2,0.6,18.4,1,27.5l23.3,0.5c0,10.7,0,21.5,0,32.2c6.9,0.2,13.8,0.4,20.7,0.6l0.6,34.9
	C399.1,143.3,404.6,143.2,410,143.2L410,143.2z"/>
<path class="st3" d="M1176.6,140.4c5.3-0.7,10.7-1.4,16-2.2c23.1-37.7,46.2-75.3,69.3-113h-17.8
	C1221.6,63.6,1199.1,102,1176.6,140.4z"/>
<path class="st4" d="M1205.8,135c8.9-15.8,17.7-31.7,26.6-47.5c4.3-3.3,10.6-7.4,19-10.2c15-5.1,28.1-3.6,34.8-2.3
	c-4,2.2-9.7,5.7-16.1,10.5c-13.4,10.1-22.6,20.9-25.9,24.9c-8.7,10.6-8.6,13.2-14.4,17.4C1221.6,133.6,1212.5,134.8,1205.8,135
	L1205.8,135z"/>
<path class="st4" d="M1240.1,73.7c6.5-11.7,13.1-23.3,19.6-35c3.2-2.4,7.8-5.4,14-7.5c11-3.8,20.7-2.6,25.6-1.7
	c-3,1.6-7.1,4.2-11.8,7.7c-9.8,7.5-16.6,15.4-19.1,18.4c-6.4,7.8-6.3,9.7-10.6,12.8C1251.7,72.6,1245,73.6,1240.1,73.7z"/>
<path class="st4" d="M1172.2,136.8c8.7-15.9,17.4-31.9,26.1-47.8c0.5-5.4,0.6-12.9-1.4-21.5c-3.6-15.4-11.9-25.7-16.5-30.7
	c0.2,4.6,0.3,11.2-0.3,19.2c-1.4,16.7-5.7,30.2-7.3,35.2c-4.3,13-6.6,14.3-7.1,21.5C1165,122.7,1168.7,131.1,1172.2,136.8
	L1172.2,136.8z"/>
<path class="st4" d="M1205.9,75.2c6.4-11.7,12.8-23.5,19.2-35.2c0.4-4,0.4-9.5-1.1-15.8c-2.7-11.4-8.8-18.9-12.2-22.6
	c0.2,3.4,0.3,8.3-0.2,14.1c-1.1,12.3-4.2,22.3-5.4,25.9c-3.2,9.6-4.9,10.5-5.2,15.8C1200.6,64.8,1203.3,71,1205.9,75.2L1205.9,75.2z
	"/>
<path d="M1190.2,117.1c5.4-0.5,10.8-0.9,16.2-1.4c14.1-23,28.2-46,42.3-69c-5.6-0.1-11.3-0.3-16.9-0.4
	C1217.9,69.9,1204,93.5,1190.2,117.1L1190.2,117.1z"/>
<circle cx="1242.2" cy="95.2" r="9.1"/>
<circle class="st2" cx="1245.1" cy="92.3" r="6.2"/>
<circle cx="1186.9" cy="85.5" r="9.1"/>
<circle class="st2" cx="1187.3" cy="81.4" r="6.2"/>
<path class="st3" d="M978,142.1c-5.4-0.1-10.8-0.3-16.2-0.4c-27-35-54-69.9-81-104.9c5.9-0.6,11.8-1.3,17.7-1.9
	C925.1,70.6,951.6,106.3,978,142.1L978,142.1z"/>
<path class="st4" d="M948.4,139.8c-10.5-14.8-21-29.6-31.6-44.4c-4.6-2.8-11.4-6.2-20-8.1c-15.5-3.5-28.3-0.5-34.8,1.4
	c4.2,1.8,10.3,4.6,17.1,8.7c14.4,8.6,24.7,18.3,28.4,22c9.8,9.6,9.9,12.2,16.2,15.7C932.5,140.1,941.8,140.4,948.4,139.8
	L948.4,139.8z"/>
<path class="st4" d="M907.8,82.6c-7.7-10.9-15.5-21.8-23.2-32.7c-3.4-2.1-8.4-4.5-14.7-6c-11.4-2.6-20.9-0.4-25.6,1.1
	c3.1,1.3,7.5,3.4,12.6,6.4c10.6,6.3,18.2,13.5,20.9,16.2c7.2,7.1,7.3,9,11.9,11.6C896.1,82.8,902.9,83,907.8,82.6L907.8,82.6z"/>
<path class="st4" d="M982,138.1c-10.3-14.9-20.7-29.8-31-44.7c-1.1-5.3-2-12.8-0.9-21.5c1.9-15.7,9.1-26.9,13.2-32.3
	c0.3,4.6,0.9,11.2,2.4,19c3.2,16.5,8.9,29.5,11.1,34.2c5.7,12.5,8.1,13.5,9.3,20.6C987.7,123.2,984.8,132,982,138.1z"/>
<path class="st4" d="M941.9,80.4c-7.6-11-15.2-22-22.9-32.9c-0.8-3.9-1.5-9.4-0.7-15.9c1.4-11.6,6.7-19.8,9.7-23.8
	c0.2,3.4,0.6,8.2,1.8,14c2.4,12.1,6.5,21.7,8.2,25.2c4.2,9.2,6,9.9,6.9,15.2C946.1,69.5,944,76,941.9,80.4L941.9,80.4z"/>
<path d="M962,120.4c-5.4,0.1-10.8,0.2-16.3,0.3c-16.5-21.3-33-42.7-49.4-64c5.6-0.7,11.2-1.5,16.8-2.2
	C929.4,76.4,945.7,98.4,962,120.4L962,120.4z"/>
<circle cx="908" cy="104.2" r="9.1"/>
<circle class="st2" cx="904.7" cy="101.7" r="6.2"/>
<circle cx="961.9" cy="88.6" r="9.1"/>
<circle class="st2" cx="961" cy="84.6" r="6.2"/>
<path class="st3" d="M1083.6,143.5c-0.2-37.9-0.5-75.8-0.7-113.8c27.8,0,55.5-0.1,83.3-0.2c0.2,5.5,0.3,11.1,0.5,16.6
	c-8,0-16,0-23.9,0c0,9.2-0.1,18.4-0.1,27.6c-7.8,0.4-15.5,0.8-23.3,1.2c0.3,10.7,0.7,21.4,1,32.2c-6.9,0.4-13.8,0.8-20.7,1.2
	c0.1,11.6,0.3,23.2,0.4,34.9C1094.5,143.3,1089,143.4,1083.6,143.5L1083.6,143.5z"/>
<path class="st3" d="M1073.3,142.2c-0.9-36.8-1.8-73.7-2.6-110.5c-27.8-0.3-55.6-0.6-83.3-0.8c0,5.1,0,10.2-0.1,15.2
	c8,0.2,16,0.4,24,0.6c0.3,9.2,0.6,18.4,1,27.5l23.3,0.5c0,10.7,0,21.5,0,32.2c6.9,0.2,13.8,0.4,20.7,0.6l0.6,34.9
	C1062.4,142.3,1067.9,142.2,1073.3,142.2L1073.3,142.2z"/>
<path d="M116.6,115.3c-0.8,0.8-7.4-2.6-11.8-9c-11.4-16.7-0.6-42.5,2.9-51c1.9-4.5,3.8-8,5-10.2c0.7,2.2,1.6,5.5,1.5,9.6
	c-0.2,7.5-3.6,10.8-6.1,18.2c-0.7,1.9-3.7,11.4-1.9,21.3c1,5.5,9.7,17.4,10.4,20.7C116.7,114.9,116.7,115.2,116.6,115.3L116.6,115.3
	z"/>
<path d="M118.5,114c-0.3-1.8-0.6-4.6-0.4-8.1c0.6-7.8,3.5-9.8,4.9-16.8c0.4-2.3,2.2-11.4-2.7-19.5c-2.7-4.5-6.5-7-8.9-8.3l0.3-8.3
	c3.1,2.6,8.2,7.7,11.5,15.6c1.1,2.6,6.1,14.6,2,25.7c-0.9,2.5-2.3,4.9-4.2,10.7C119.8,108.8,119,111.9,118.5,114L118.5,114z"/>
<path d="M123.1,112c2.7-6.7,6.2-11.5,8.8-14.4c3.6-4.2,8.1-9.3,15.3-11.1c4.5-1.1,12.9-1.7,14.9,2.5c1.9,3.8-2.1,10.5-7.2,12.7
	c-3.7,1.6-6.5,0.2-10.4,0C139.5,101.3,132.3,103,123.1,112L123.1,112z"/>
<path d="M109.8,117.5c-6.1-1.4-10.8-3.2-13.9-4.7c-2.7-1.3-4-2.1-4.6-3.7c-1.3-3.6,2.1-8.8,4.3-8.6c1.8,0.2,1.8,3.9,4.6,8.5
	C102.9,113.2,106.7,115.8,109.8,117.5L109.8,117.5z"/>
<path d="M95.3,93.8c-0.3-4.1-0.2-7.5-0.1-9.7c0.5-7.9,0.9-13.9,3.5-20.8c1.2-3.1,2.3-5.3,1.3-6.8c-1.2-1.7-4.5-2-6.6-0.7
	c-2.5,1.5-2.9,5.2-2.9,9C90.5,70.2,91.1,79.7,95.3,93.8L95.3,93.8z"/>
<path d="M130.4,86.2c0.5-5.3-0.1-9.5-0.8-12.4c-0.5-2.1-1.4-6.3-4.1-11c-2.2-4-4.1-5.5-3.4-6.6c0.8-1.5,5.6-1.4,8.5,1
	c3.1,2.6,3.1,7.1,3,12.5C133.5,73.5,132.9,79.3,130.4,86.2L130.4,86.2z"/>
<path class="st0" d="M1417.9,43.6c0-8,0-16,0-23.9c27.8,0.1,55.6,0.2,83.3,0.4c-0.3,39-0.6,78.1-0.8,117.1c-60-0.9-120-1.8-180-2.6
	c0-38.3,0-76.6,0-114.8c26.7,0.3,53.5,0.5,80.2,0.8c0.3,31.7,0.5,63.4,0.8,95.2c-19.7-0.3-39.3-0.5-59-0.8c0-25.2,0-50.3,0-75.5
	c12.8,0.1,25.7,0.2,38.5,0.3c0.1,19.7,0.3,39.5,0.4,59.2c-6.7-0.5-13.4-1-20.1-1.5c0.1-9.9,0.2-19.8,0.3-29.6h10.4
	c-0.3,11.3-0.5,17-0.5,17c0,0,0.3-12.4,0.9-37.2c-6.4-0.1-12.8-0.2-19.1-0.3c0.3,18.9,0.7,37.8,1,56.8c10.9,0.1,21.8,0.2,32.7,0.3
	c-0.3-23.7-0.6-47.3-0.9-70.9c-17.1,0.1-34.1,0.2-51.2,0.2c-0.1,28.9-0.2,57.8-0.2,86.8c50-0.1,100.1-0.2,150.1-0.3
	c0.2-15.8,0.3-31.7,0.4-47.6c-9.9,0.1-19.8,0.2-29.6,0.2c0-9.7,0-19.4,0-29.1C1443,43.6,1430.4,43.6,1417.9,43.6L1417.9,43.6z"/>
<path class="st1" d="M1433.2,60.7c-5.3,0.5-9.1,13.4-9,23c0,12.6,6.5,21.8,9.6,25.6c2.1-0.6,3.5-1.5,4.3-2.1c2.9-2.4,3.4-5.5,6-15.6
	c1.5-5.6,1.4-5,1.5-5.6C1447.5,74.8,1439.1,60.2,1433.2,60.7L1433.2,60.7z"/>
<circle cx="1435.4" cy="83.5" r="10.6"/>
<circle class="st2" cx="1430.2" cy="76" r="5.6"/>
<path d="M1436.9,114.4c-0.8,0.8-7.4-2.6-11.8-9c-11.4-16.7-0.6-42.5,2.9-51c1.9-4.5,3.8-8,5-10.2c0.7,2.2,1.6,5.5,1.5,9.6
	c-0.2,7.5-3.6,10.8-6.1,18.2c-0.7,1.9-3.7,11.4-1.9,21.3c1,5.5,9.7,17.4,10.4,20.7C1437,114,1437,114.3,1436.9,114.4L1436.9,114.4z"
	/>
<path d="M1438.8,113.2c-0.3-1.8-0.6-4.6-0.4-8.1c0.6-7.8,3.5-9.8,4.9-16.8c0.4-2.3,2.2-11.4-2.7-19.5c-2.7-4.5-6.5-7-8.9-8.3
	c0.1-2.8,0.2-5.6,0.3-8.3c3.1,2.6,8.2,7.7,11.5,15.6c1.1,2.6,6.1,14.6,2,25.7c-0.9,2.5-2.3,4.9-4.2,10.7
	C1440.1,107.9,1439.3,111,1438.8,113.2L1438.8,113.2z"/>
<path d="M1443.4,111.1c2.7-6.7,6.2-11.5,8.8-14.4c3.7-4.2,8.1-9.3,15.3-11.1c4.5-1.1,12.9-1.7,14.9,2.5c1.9,3.8-2.1,10.5-7.2,12.7
	c-3.7,1.6-6.5,0.2-10.4,0C1459.9,100.5,1452.7,102.2,1443.4,111.1L1443.4,111.1z"/>
<path d="M1430.2,116.6c-6.1-1.4-10.8-3.2-13.9-4.7c-2.7-1.3-4-2.1-4.6-3.7c-1.3-3.6,2.1-8.8,4.3-8.6c1.8,0.2,1.8,3.9,4.6,8.5
	C1423.3,112.3,1427,114.9,1430.2,116.6L1430.2,116.6z"/>
<path d="M1415.7,93c-0.3-4.1-0.2-7.5-0.1-9.7c0.5-7.9,0.9-13.9,3.5-20.8c1.2-3.1,2.3-5.3,1.3-6.8c-1.2-1.7-4.5-2-6.6-0.7
	c-2.5,1.5-2.9,5.2-2.9,9C1410.8,69.3,1411.4,78.8,1415.7,93L1415.7,93z"/>
<path d="M1450.8,85.3c0.5-5.3-0.2-9.5-0.8-12.4c-0.5-2.1-1.4-6.3-4.1-11c-2.2-4-4.1-5.5-3.4-6.6c0.8-1.5,5.6-1.4,8.4,1
	c3.1,2.6,3.1,7.1,3,12.5C1453.8,72.6,1453.2,78.4,1450.8,85.3L1450.8,85.3z"/>
<path class="st3" d="M1653.6,134.2c-5.4-0.1-10.8-0.3-16.2-0.4c-27-35-54-69.9-81-104.9c5.9-0.6,11.8-1.3,17.7-1.9
	C1600.6,62.7,1627.1,98.5,1653.6,134.2L1653.6,134.2z"/>
<path class="st4" d="M1624,132c-10.5-14.8-21-29.6-31.6-44.4c-4.6-2.8-11.4-6.2-20-8.1c-15.4-3.5-28.3-0.5-34.8,1.4
	c4.2,1.8,10.3,4.6,17.1,8.7c14.4,8.6,24.7,18.3,28.4,22c9.8,9.6,9.9,12.2,16.2,15.7C1608.1,132.3,1617.3,132.6,1624,132L1624,132z"
	/>
<path class="st4" d="M1583.3,74.7c-7.7-10.9-15.5-21.8-23.2-32.7c-3.4-2.1-8.4-4.5-14.7-6c-11.4-2.6-20.9-0.4-25.6,1.1
	c3.1,1.3,7.6,3.4,12.6,6.4c10.6,6.3,18.2,13.5,20.9,16.2c7.2,7.1,7.3,9,11.9,11.6C1571.7,74.9,1578.4,75.1,1583.3,74.7L1583.3,74.7z
	"/>
<path class="st4" d="M1657.6,130.2c-10.3-14.9-20.7-29.8-31.1-44.7c-1.1-5.3-2-12.8-0.9-21.5c1.9-15.7,9.1-26.9,13.2-32.3
	c0.3,4.6,0.9,11.2,2.4,19c3.2,16.5,8.9,29.5,11.1,34.2c5.7,12.5,8.1,13.5,9.3,20.6C1663.2,115.3,1660.4,124.1,1657.6,130.2z"/>
<path class="st4" d="M1617.5,72.6c-7.6-11-15.2-22-22.9-32.9c-0.8-3.9-1.4-9.4-0.7-15.9c1.4-11.6,6.7-19.8,9.7-23.8
	c0.2,3.4,0.6,8.2,1.8,14c2.4,12.1,6.6,21.7,8.2,25.2c4.2,9.2,6,9.9,6.9,15.2C1621.7,61.6,1619.6,68.1,1617.5,72.6L1617.5,72.6z"/>
<path d="M1637.6,112.5c-5.4,0.1-10.8,0.2-16.3,0.3c-16.5-21.3-32.9-42.7-49.4-64c5.6-0.7,11.2-1.5,16.8-2.2
	C1605,68.6,1621.3,90.5,1637.6,112.5L1637.6,112.5z"/>
<circle cx="1583.6" cy="96.4" r="9.1"/>
<circle class="st2" cx="1580.3" cy="93.8" r="6.2"/>
<circle cx="1637.4" cy="80.8" r="9.1"/>
<circle class="st2" cx="1636.6" cy="76.7" r="6.2"/>
<path class="st3" d="M1749.8,139.6c-0.2-37.9-0.5-75.8-0.7-113.8c27.8,0,55.5-0.1,83.3-0.2c0.2,5.5,0.3,11.1,0.5,16.6
	c-8,0-16,0-23.9,0c0,9.2-0.1,18.4-0.1,27.6c-7.8,0.4-15.5,0.8-23.3,1.2c0.3,10.7,0.7,21.4,1,32.2c-6.9,0.4-13.8,0.8-20.7,1.2
	c0.1,11.6,0.3,23.2,0.4,34.9C1760.8,139.3,1755.3,139.5,1749.8,139.6L1749.8,139.6z"/>
<path class="st3" d="M1739.6,138.2c-0.9-36.8-1.8-73.7-2.6-110.5c-27.8-0.3-55.6-0.6-83.3-0.8c0,5.1-0.1,10.2-0.1,15.2
	c8,0.2,16,0.4,24,0.6c0.3,9.2,0.6,18.4,1,27.5l23.3,0.5c0,10.7,0,21.5,0,32.2c6.9,0.2,13.8,0.4,20.7,0.6l0.6,34.9
	C1728.7,138.3,1734.1,138.3,1739.6,138.2L1739.6,138.2z"/>
</svg>
