<?xml version="1.0" encoding="UTF-8"?>
<svg id="Layer_1" data-name="Layer 1" xmlns="http://www.w3.org/2000/svg" viewBox="0 0 1996.3 1116.71">
  <defs>
    <style>
      .cls-1 {
        fill: #f47e20;
      }

      .cls-2 {
        fill: #fffdeb;
      }

      .cls-3 {
        fill: #ff7bab;
      }

      .cls-4 {
        fill: #6b8f48;
      }

      .cls-5 {
        fill: #c8ba00;
      }

      .cls-6 {
        fill: #0b0700;
      }
    </style>
  </defs>
  <rect class="cls-2" width="1996.3" height="1116.71"/>
  <circle class="cls-3" cx="282.38" cy="907.25" r="21.5"/>
  <circle class="cls-5" cx="376.27" cy="932.28" r="11.68" transform="translate(-204.13 111.39) rotate(-13.28)"/>
  <path class="cls-5" d="M295.03,871.8c9.42,2.82,19.19,10.73,21.57,22.42,2.82,13.84-5.54,29.05-20.72,35.47,1.6-1.59,8.98-9.25,8.8-20.72-.14-8.91-4.86-21.14-16.46-24.69-8.7-2.66-18.68,.34-24.69,7.66-6.26,7.62-7.08,18.53-1.99,27.24-7.38-9.74-9.02-22.44-3.97-32.63,6.9-13.94,24.12-18.76,37.46-14.76Z"/>
  <circle class="cls-2" cx="282.38" cy="907.25" r="18.89"/>
  <circle cx="281.09" cy="908.43" r="10.53"/>
  <path class="cls-3" d="M386.07,918.73c-3.78-3.97-9.54-5.38-14.7-3.59-5.24,1.82-8.92,6.63-9.32,12.19-1.84-.56-7.95-2.68-11.12-8.61-4.47-8.36-.8-20.05,7.53-25.1,9.06-5.49,19.05-.36,19.72,0,1.49,.8,8.39,4.48,10.04,12.55,1.26,6.19-1.35,11.14-2.15,12.55Z"/>
  <path class="cls-5" d="M333.52,930.86c.83,.04,8.2,.52,11.88,6.79,2.2,3.75,1.88,7.53,1.7,8.91,2.57-.54,8.28-1.35,14.43,1.27,3.2,1.37,8.59,3.67,9.76,8.91,1.06,4.74-1.86,9.53-5.09,11.88-2.63,1.92-5.72,2.13-11.88,2.55-4.03,.27-7.39,.16-9.76,0,.82,2.49,2.57,8.89,.42,16.55-1.68,6.02-4.98,9.99-6.79,11.88-25.04,.28-50.08,.57-75.12,.85-.81-.53-5.63-3.79-6.37-9.76-.34-2.79,.34-5.08,.85-6.37,15.05-.57,27.23-.33,35.65,0,14.09,.55,21.01,1.49,24.78-3.05,2.27-2.74,1.46-5.13,1.07-20.96-.46-18.42,.46-22.49,3.4-25.46,4.19-4.24,10.31-4.04,11.07-4Z"/>
  <path class="cls-1" d="M392.19,886.74c-6.09-6.31-17.67-16.53-35.15-22.54-30.09-10.35-56.35-.89-63.99,2.18,4.72,1.2,16.3,4.88,24.24,15.76,10.54,14.44,10.31,35.6-.73,53.33,3.16-6.1,9.49-9.88,16.24-9.7,7.25,.19,13.73,4.92,16.24,11.88-8.26-11.25-9.97-25.7-4.12-36.84,7.89-15.02,28.56-22.23,47.27-14.06Z"/>
  <path class="cls-3" d="M319.92,916.08c-2.05,2.94-5.44,8.64-6.68,16.62-1.45,9.34,.82,16.78,2.12,20.21-.11-.38-2-6.71-8.15-8.47-4.94-1.42-10.49,.73-13.53,5.38-.58-.84-3.27-4.52-8.15-5.38-4.8-.84-9.83,1.39-12.87,5.7-1.16-1.2-3.36-3.13-6.68-4.24-1.68-.56-3.2-.76-4.4-.81-.54-7.71-1.09-15.43-1.63-23.14,2.82,2.81,9.31,8.5,19.39,10.92,3.71,.89,13.51,3.08,24.28-1.79,9.7-4.39,14.58-11.99,16.3-14.99Z"/>
  <path class="cls-6" d="M396.9,893c-5.85-5.77-14.07-6.17-16.31-6.27-4.55-.22-8.25,.73-10.54,1.51,7.54-.68,14.86,2.67,19.08,8.78,4.69,6.8,4.8,15.93,.25,23.09,.87,1.62,2.6,5.37,2.26,10.29-.5,7.27-5.15,11.77-6.27,12.8,2.12,1.2,5.09,3.3,7.53,6.78,6.18,8.8,3.73,19.02,3.26,20.83,4.53-16.79,6.55-30.32,7.53-39.66,.33-3.11,.97-9.92-.12-18.64-1.11-8.84-1.85-14.77-6.66-19.51Z"/>
  <path class="cls-3" d="M369.83,948.15c1.9-.78,6.98-2.55,13-.92,1.9,.52,7.4,2.01,10.15,6.91,1.58,2.81,1.54,5.47,1.47,10.19-.04,2.96-.1,6.58-1.38,10.33-3.14,9.2-12.24,15-19.63,17.04-2.96,.82-6.22,.95-12.74,1.21-5.63,.22-10.32,.04-13.6-.17,.11-6.31,.23-12.62,.34-18.94,8.44,3.63,17.58,2.36,22.9-3.1,.78-.8,6.31-6.67,4.65-14.29-.98-4.49-3.94-7.24-5.16-8.26Z"/>
  <path class="cls-4" d="M371.62,945.42c-1.17-.37-6.59-2.21-9.48-7.82-1.76-3.42-1.77-6.64-1.67-8.2-1.98-.56-5.06-1.72-8.07-4.23-5.29-4.4-6.93-10.05-7.43-12.17-.58,2.16-1.27,5.78-.64,10.12,1.76,12.15,12.09,18.28,13.07,18.83,5.7,3.26,11.26,3.55,14.22,3.46Z"/>
  <path class="cls-6" d="M317,964.2c-.01-2.04-.34-6.66-3.6-10.81-1.22-1.56-5.19-6.6-10.01-5.6-2.76,.57-5.08,2.98-5.8,5.4-.27,.91-.21,1.45,0,6,.09,2.11,.16,3.8,.2,4.8,6.4,.07,12.81,.13,19.21,.2Z"/>
  <path class="cls-6" d="M294.19,964.2c-.01-2.04-.34-6.66-3.6-10.81-1.22-1.56-5.19-6.6-10.01-5.6-2.76,.57-5.08,2.98-5.8,5.4-.27,.91-.21,1.45,0,6,.09,2.11,.16,3.8,.2,4.8,6.4,.07,12.81,.13,19.21,.2Z"/>
  <path class="cls-6" d="M272.38,964.2c-.01-2.04-.34-6.66-3.6-10.81-1.22-1.56-5.19-6.6-10.01-5.6-2.76,.57-5.08,2.98-5.8,5.4-.27,.91-.21,1.45,0,6,.09,2.11,.16,3.8,.2,4.8,6.4,.07,12.81,.13,19.21,.2Z"/>
  <path class="cls-6" d="M316.21,967.29c-5.82,.05-11.63,.1-17.45,.15,.03,1.08,.12,2.62,.36,4.46,.41,3.15,.61,4.73,1.31,6.02,1.35,2.5,4.52,5,8.19,4.7,.34-.03,3.08-.29,5.05-2.42,1.83-1.98,2.05-4.53,2.41-8.77,.15-1.75,.15-3.19,.12-4.13Z"/>
  <path class="cls-6" d="M294.62,967.29c-5.82,.05-11.63,.1-17.45,.15,.03,1.08,.12,2.62,.36,4.46,.41,3.15,.61,4.73,1.31,6.02,1.35,2.5,4.52,5,8.19,4.7,.34-.03,3.08-.29,5.05-2.42,1.83-1.98,2.05-4.53,2.41-8.77,.15-1.75,.15-3.19,.12-4.13Z"/>
  <path class="cls-6" d="M272.2,967.29c-5.82,.05-11.63,.1-17.45,.15,.03,1.08,.12,2.62,.36,4.46,.41,3.15,.61,4.73,1.31,6.02,1.35,2.5,4.52,5,8.19,4.7,.34-.03,3.08-.29,5.05-2.42,1.83-1.98,2.05-4.53,2.41-8.77,.15-1.75,.15-3.19,.12-4.13Z"/>
  <circle class="cls-3" cx="286.3" cy="127.9" r="21.5"/>
  <circle class="cls-5" cx="380.2" cy="152.94" r="11.68" transform="translate(-24.97 91.44) rotate(-13.28)"/>
  <path class="cls-5" d="M298.95,92.45c9.42,2.82,19.19,10.73,21.57,22.42,2.82,13.84-5.54,29.05-20.72,35.47,1.6-1.59,8.98-9.25,8.8-20.72-.14-8.91-4.86-21.14-16.46-24.69-8.7-2.66-18.68,.34-24.69,7.66-6.26,7.62-7.08,18.53-1.99,27.24-7.38-9.74-9.02-22.44-3.97-32.63,6.9-13.94,24.12-18.76,37.46-14.76Z"/>
  <circle class="cls-2" cx="286.3" cy="127.9" r="18.89"/>
  <circle cx="285.02" cy="129.08" r="10.53"/>
  <path class="cls-3" d="M390,139.39c-3.78-3.97-9.54-5.38-14.7-3.59-5.24,1.82-8.92,6.63-9.32,12.19-1.84-.56-7.95-2.68-11.12-8.61-4.47-8.36-.8-20.05,7.53-25.1,9.06-5.49,19.05-.36,19.72,0,1.49,.8,8.39,4.48,10.04,12.55,1.26,6.19-1.35,11.14-2.15,12.55Z"/>
  <path class="cls-5" d="M337.45,151.52c.83,.04,8.2,.52,11.88,6.79,2.2,3.75,1.88,7.53,1.7,8.91,2.57-.54,8.28-1.35,14.43,1.27,3.2,1.37,8.59,3.67,9.76,8.91,1.06,4.74-1.86,9.53-5.09,11.88-2.63,1.92-5.72,2.13-11.88,2.55-4.03,.27-7.39,.16-9.76,0,.82,2.49,2.57,8.89,.42,16.55-1.68,6.02-4.98,9.99-6.79,11.88-25.04,.28-50.08,.57-75.12,.85-.81-.53-5.63-3.79-6.37-9.76-.34-2.79,.34-5.08,.85-6.37,15.05-.57,27.23-.33,35.65,0,14.09,.55,21.01,1.49,24.78-3.05,2.27-2.74,1.46-5.13,1.07-20.96-.46-18.42,.46-22.49,3.4-25.46,4.19-4.24,10.31-4.04,11.07-4Z"/>
  <path class="cls-1" d="M396.11,107.39c-6.09-6.31-17.67-16.53-35.15-22.54-30.09-10.35-56.35-.89-63.99,2.18,4.72,1.2,16.3,4.88,24.24,15.76,10.54,14.44,10.31,35.6-.73,53.33,3.16-6.1,9.49-9.88,16.24-9.7,7.25,.19,13.73,4.92,16.24,11.88-8.26-11.25-9.97-25.7-4.12-36.84,7.89-15.02,28.56-22.23,47.27-14.06Z"/>
  <path class="cls-3" d="M323.84,136.73c-2.05,2.94-5.44,8.64-6.68,16.62-1.45,9.34,.82,16.78,2.12,20.21-.11-.38-2-6.71-8.15-8.47-4.94-1.42-10.49,.73-13.53,5.38-.58-.84-3.27-4.52-8.15-5.38-4.8-.84-9.83,1.39-12.87,5.7-1.16-1.2-3.36-3.13-6.68-4.24-1.68-.56-3.2-.76-4.4-.81-.54-7.71-1.09-15.43-1.63-23.14,2.82,2.81,9.31,8.5,19.39,10.92,3.71,.89,13.51,3.08,24.28-1.79,9.7-4.39,14.58-11.99,16.3-14.99Z"/>
  <path class="cls-6" d="M400.83,113.65c-5.85-5.77-14.07-6.17-16.31-6.27-4.55-.22-8.25,.73-10.54,1.51,7.54-.68,14.86,2.67,19.08,8.78,4.69,6.8,4.8,15.93,.25,23.09,.87,1.62,2.6,5.37,2.26,10.29-.5,7.27-5.15,11.77-6.27,12.8,2.12,1.2,5.09,3.3,7.53,6.78,6.18,8.8,3.73,19.02,3.26,20.83,4.53-16.79,6.55-30.32,7.53-39.66,.33-3.11,.97-9.92-.12-18.64-1.11-8.84-1.85-14.77-6.66-19.51Z"/>
  <path class="cls-3" d="M373.76,168.8c1.9-.78,6.98-2.55,13-.92,1.9,.52,7.4,2.01,10.15,6.91,1.58,2.81,1.54,5.47,1.47,10.19-.04,2.96-.1,6.58-1.38,10.33-3.14,9.2-12.24,15-19.63,17.04-2.96,.82-6.22,.95-12.74,1.21-5.63,.22-10.32,.04-13.6-.17,.11-6.31,.23-12.62,.34-18.94,8.44,3.63,17.58,2.36,22.9-3.1,.78-.8,6.31-6.67,4.65-14.29-.98-4.49-3.94-7.24-5.16-8.26Z"/>
  <path class="cls-4" d="M375.55,166.08c-1.17-.37-6.59-2.21-9.48-7.82-1.76-3.42-1.77-6.64-1.67-8.2-1.98-.56-5.06-1.72-8.07-4.23-5.29-4.4-6.93-10.05-7.43-12.17-.58,2.16-1.27,5.78-.64,10.12,1.76,12.15,12.09,18.28,13.07,18.83,5.7,3.26,11.26,3.55,14.22,3.46Z"/>
  <path class="cls-6" d="M320.93,184.86c-.01-2.04-.34-6.66-3.6-10.81-1.22-1.56-5.19-6.6-10.01-5.6-2.76,.57-5.08,2.98-5.8,5.4-.27,.91-.21,1.45,0,6,.09,2.11,.16,3.8,.2,4.8,6.4,.07,12.81,.13,19.21,.2Z"/>
  <path class="cls-6" d="M298.12,184.86c-.01-2.04-.34-6.66-3.6-10.81-1.22-1.56-5.19-6.6-10.01-5.6-2.76,.57-5.08,2.98-5.8,5.4-.27,.91-.21,1.45,0,6,.09,2.11,.16,3.8,.2,4.8,6.4,.07,12.81,.13,19.21,.2Z"/>
  <path class="cls-6" d="M276.31,184.86c-.01-2.04-.34-6.66-3.6-10.81-1.22-1.56-5.19-6.6-10.01-5.6-2.76,.57-5.08,2.98-5.8,5.4-.27,.91-.21,1.45,0,6,.09,2.11,.16,3.8,.2,4.8,6.4,.07,12.81,.13,19.21,.2Z"/>
  <path class="cls-6" d="M320.14,187.94c-5.82,.05-11.63,.1-17.45,.15,.03,1.08,.12,2.62,.36,4.46,.41,3.15,.61,4.73,1.31,6.02,1.35,2.5,4.52,5,8.19,4.7,.34-.03,3.08-.29,5.05-2.42,1.83-1.98,2.05-4.53,2.41-8.77,.15-1.75,.15-3.19,.12-4.13Z"/>
  <path class="cls-6" d="M298.54,187.94c-5.82,.05-11.63,.1-17.45,.15,.03,1.08,.12,2.62,.36,4.46,.41,3.15,.61,4.73,1.31,6.02,1.35,2.5,4.52,5,8.19,4.7,.34-.03,3.08-.29,5.05-2.42,1.83-1.98,2.05-4.53,2.41-8.77,.15-1.75,.15-3.19,.12-4.13Z"/>
  <path class="cls-6" d="M276.13,187.94c-5.82,.05-11.63,.1-17.45,.15,.03,1.08,.12,2.62,.36,4.46,.41,3.15,.61,4.73,1.31,6.02,1.35,2.5,4.52,5,8.19,4.7,.34-.03,3.08-.29,5.05-2.42,1.83-1.98,2.05-4.53,2.41-8.77,.15-1.75,.15-3.19,.12-4.13Z"/>
  <path class="cls-6" d="M391.67,752.53c.17,0,3.66,.04,5.64,2.65,1.95,2.57,1.74,6.68-.66,10.28,1.38-.44,8.61-2.62,15.92,1.33,8.51,4.59,10.09,13.68,10.28,14.93,1.34,8.57-3.49,15.32-7.96,21.56-4.91,6.86-10.65,11.37-15.26,14.26,4.5-3.92,6.13-9.4,4.31-13.27-2.3-4.91-9.21-5.28-9.95-5.31-8.02-.31-12.64,6.52-19.9,11.94-5.88,4.39-15.47,9.33-31.18,10.28,15.81,0,31.63,0,47.44,0,1.06,.49,3.12,1.64,3.65,3.65,.81,3.07-2.16,7.5-7.96,9.29-26.98,.33-53.96,.66-80.94,1-1.16-5.67-1.79-13.6,2.65-19.24,5.38-6.83,13.43-4.22,30.91-9.75,12.79-4.04,22.46-7.1,28.8-15.8,5.15-7.07,2.81-10.59,11.28-25.21,5.29-9.14,9-12.59,12.94-12.61Z"/>
  <path class="cls-6" d="M377.03,754.48c-1.24,3.27-2.44,6.89-3.51,10.86-.92,3.4-1.63,6.63-2.18,9.64-1.72-4.68-4.67-10.16-10.08-14.03-4.39-3.15-6.35-2.32-13.83-6.32-8.15-4.35-12.94-9.13-14.43-10.67-5.32-5.51-7.31-10.04-7.9-11.46-1.46-3.52-3.53-8.52-1.19-11.66,2.05-2.74,6.36-2.6,6.92-2.57,5.38,.25,7.76,4.52,15.61,12.45,0,0,7.98,8.06,18.77,16.01,4.81,3.54,9,6.12,11.81,7.76Z"/>
  <path class="cls-3" d="M337.6,753.76c-2.1,.49-5.58,1.58-9.14,4.22-4.19,3.1-6.38,6.78-7.38,8.79-5.15-2.65-10.5-5.57-16-8.79-5.45-3.19-10.57-6.4-15.36-9.57,6.1-.49,12.38-1.11,18.81-1.88,4.05-.48,8.02-1.01,11.92-1.57,5.72,2.93,11.44,5.87,17.15,8.8Z"/>
  <path class="cls-5" d="M315.43,741.19c-9.05,1.64-18.1,3.27-27.15,4.91-3.03-1.11-7.61-3.22-11.99-7.3-3.69-3.43-9.64-10.49-7.82-13.38,.39-.62,2.05-2.5,13.72,.52,8.1,2.1,19.79,6.24,33.23,15.24Z"/>
  <path class="cls-3" d="M368.05,781.82c-2.02,1.74-10.83,8.94-23.71,8.38-16.66-.73-25.87-13.83-26.89-15.32,1.21,2.82,3,8.13,2.31,14.74-1.32,12.68-10.71,19.99-12.56,21.37,4.33-.77,10.42-1.97,17.64-3.75,9.89-2.43,15.19-3.74,20.36-6.06,5.59-2.51,14.42-7.73,22.84-19.37Z"/>
  <path class="cls-5" d="M317.51,782.59c.61,4.07,.16,7.19-.31,9.21-1.22,5.18-4.05,8.97-8.9,15.45-1.4,1.87-2.61,3.37-3.43,4.37-6.28,4.37-12.1,7.4-16.86,9.52-9.95,4.44-22.29,9.76-35.28,6.24-2.52-.68-10.83-2.93-11.71-7.96-.75-4.29,4.29-8.42,7.02-10.61,6.04-4.84,12.05-6.85,32.15-11.08,14.76-3.11,20.57-3.93,28.41-8.58,3.96-2.35,6.94-4.8,8.9-6.56Z"/>
  <path class="cls-3" d="M315.33,775.25c.31,1.3,.62,2.6,.94,3.9-4.28,3.31-9.57,6.88-15.92,10.15-3.85,1.98-7.53,3.56-10.93,4.84-8.32,.42-16.65,.83-24.97,1.25,1.4-.68,10.02-5,12.17-14.36,.8-3.47,.45-6.52,0-8.58,12.9,.94,25.81,1.87,38.71,2.81Z"/>
  <path class="cls-3" d="M317.51,767.6c-.43,.69-1.03,1.86-1.25,3.43-.13,.92-.08,1.73,0,2.34-10.05-.49-20.57-1.29-31.53-2.5-6.65-.73-13.1-1.57-19.35-2.5,1.47-.42,8.66-2.65,12.64-9.99,2.7-4.97,2.53-9.73,2.34-11.71,6.16,2.83,12.7,6.14,19.51,9.99,6.42,3.63,12.3,7.32,17.64,10.93Z"/>
  <path class="cls-5" d="M276.93,746.38c.02,2.12-.22,5.2-1.56,8.58-2.83,7.17-8.57,10.73-10.61,11.86-2.57-.69-6.43-2.04-10.46-4.84-4.04-2.81-7.66-5.32-7.96-9.37-.38-5.07,4.73-8.71,4.99-8.9,3.52-2.44,7.35-2.09,11.55-1.72,3.07,.28,8.2,1.16,14.05,4.37Z"/>
  <path class="cls-5" d="M272.72,772.13c.62,1.71,1.65,5.36,.62,9.68-1.97,8.32-9.81,11.77-10.77,12.17-2.61,.63-7.81,1.47-13.58-.62-2.73-.99-8.96-3.25-10.93-9.21-.29-.88-1.6-5.19,.62-8.9,2.44-4.07,7.57-4.81,12.64-5.46,4.36-.56,11.94-.87,21.38,2.34Z"/>
  <path class="cls-4" d="M368.6,775.27c-1.35-2.23-5.37-8.16-13.7-11.56-2.04-.84-12.53-4.87-23.62-.37-6.69,2.71-10.31,7.2-11.74,9.23,1.32,2.31,4.03,6.27,9.09,9.59,2.26,1.48,9.45,6.06,19.15,5.29,13.14-1.05,20.08-11.06,20.83-12.18Z"/>
  <ellipse class="cls-6" cx="345.99" cy="773.38" rx="12.75" ry="12.13"/>
  <ellipse class="cls-2" cx="337.63" cy="769.43" rx="6.82" ry="6.49"/>
  <path class="cls-1" d="M327.2,714.91c-5.09,2.07-8.66,6.69-9.23,11.99-.65,6.1,2.77,12.11,8.56,14.85-4.92-4.78-14.72-13.02-29.53-17.79-12.17-3.91-22.74-3.88-29.2-3.36,4.2-3.27,11.57-8.08,21.81-10.4,18.07-4.09,32.77,2.34,37.59,4.7Z"/>
  <path class="cls-1" d="M276.51,633.89c-2.74,1.42-.78,12.85,4.32,21.89,1.85,3.28,9.16,16.24,22,17.37,3.33,.29,6.16-.29,8.11-.87,1.21-1.09,5.12-4.91,5.79-11,.73-6.57-2.55-13.65-7.82-16.21-4.77-2.32-7.15,1.04-13.9,0-11.18-1.72-15.68-12.65-18.51-11.18Z"/>
  <path class="cls-1" d="M253.81,565.24c-3.39,3.81-5.1,7.48-6.01,10.34-4.23,13.25,2.14,29.21,15.38,41.58-1.59-2.53-9.3-15.31-5.05-30.29,1.73-6.08,4.85-10.48,7.21-13.22-.19-1.06-.76-3.31-2.64-5.29-3.42-3.58-8.23-3.19-8.89-3.12Z"/>
  <path class="cls-1" d="M269.2,576.06c-2,1.26-5.38,3.8-7.69,8.17-4.17,7.9-1.72,15.93-.72,19.23,2.74,9.01,8.96,14.19,11.54,16.1-1.21-1.73-5.19-7.91-4.57-16.59,.64-8.97,5.78-14.62,7.21-16.1,0-1.17-.14-3.25-1.2-5.53-1.39-2.97-3.56-4.62-4.57-5.29Z"/>
  <path class="cls-1" d="M278.37,587.58c-3.68,2.48-5.41,5.24-6.25,7.04-3.9,8.25-.43,19.78,8.8,28.73-.96-2.11-3.66-8.74-1.76-17,1.58-6.86,5.49-11.18,7.23-12.9,.08-2.26-1.04-4.38-2.93-5.47-2.34-1.36-4.74-.52-5.08-.39Z"/>
  <path class="cls-1" d="M289.9,595.99c-1.63,.74-4.48,2.34-6.45,5.47-3.9,6.22-1.22,13.6-.2,16.42,.79,2.19,2.58,6.14,6.65,9.97-3.27-6.38-3.06-13.27,.59-17.39,.82-.93,2.44-2.42,5.28-3.32,.17-.37,1.61-3.64-.2-7.04-1.79-3.37-5.26-4.03-5.67-4.1Z"/>
  <circle class="cls-3" cx="309.09" cy="565.2" r="20.01"/>
  <circle class="cls-3" cx="345.92" cy="633.76" r="9.71"/>
  <circle class="cls-5" cx="351.4" cy="609.86" r="9.71"/>
  <circle class="cls-3" cx="348.68" cy="587.21" r="9.71"/>
  <circle class="cls-6" cx="312.22" cy="560.21" r="11.84"/>
  <circle class="cls-2" cx="304.14" cy="558.36" r="8.08"/>
  <circle class="cls-5" cx="347.76" cy="588.68" r="6.99"/>
  <circle class="cls-6" cx="349.5" cy="611.92" r="6.99"/>
  <circle class="cls-5" cx="345.04" cy="635.15" r="6.99"/>
  <path class="cls-6" d="M256.09,561.8c.62-.06,4.9-.42,8.31,2.84,3.62,3.46,3.22,8.11,3.16,8.66,.94,.03,3.74,.23,6.16,2.33,4,3.49,3.23,8.94,3.16,9.33,.34-.12,4.74-1.64,8.49,1.17,2.98,2.22,3.43,5.57,3.5,6.16,1.05,.09,4.31,.52,6.83,3.16,2.87,3.01,3.64,7.69,2,11.99,1.55,.11,3.89,.07,6.5-.83,5.4-1.87,8.16-6.08,8.99-7.49-1.7-.38-10.78-2.55-13.99-10.16-.44-1.04-.82-2.31-1-3.83-2.04-.88-7.28-3.48-10.49-9.33-5.63-10.25,.23-20.93,.83-21.99,4.9-8.59,13.55-11.03,15.32-11.49-5.13-.38-14.02-.36-24.15,3.33-12.37,4.51-20.08,12.13-23.64,16.15Z"/>
  <path class="cls-6" d="M303.17,587.21c2.59,.58,8.46,1.5,14.86-1.11,12.11-4.94,15.09-18.03,15.36-19.32,1.57,1.51,4.32,4.63,5.08,9.17,1.41,8.43-4.88,16.94-12.63,19.94-5.48,2.12-13.31,2.13-18.58-2.6-2.3-2.06-3.48-4.46-4.09-6.07Z"/>
  <path class="cls-6" d="M314.07,542.74c1.53,.24,10.68,1.85,15.85,10.16,2.78,4.46,3.18,8.88,3.22,11.15,.46-1.29,1.89-4.79,5.57-7.18,5.83-3.79,12.25-1.52,13.01-1.24-4.1-3.66-12.47-10.03-24.65-12.26-4.98-.91-9.43-.92-13.01-.62Z"/>
  <path class="cls-6" d="M334.5,565.78c1.74-4.5,4.43-6.29,5.57-6.94,8.08-4.54,18.57,3.61,19.32,4.21,2.57,2.05,4.22,4.27,5.2,5.82-4.29-5.94-11.48-8.36-17.34-6.19-5.64,2.08-7.81,7.58-8.18,8.55-1.53-1.82-3.06-3.63-4.58-5.45Z"/>
  <path class="cls-6" d="M313.77,643.89c1.41,1.2,5.25,4.8,6.47,10.78,1.91,9.39-4.31,16.46-5.03,17.25,5.87-1.61,13.95-4.54,22.53-10.06,10.32-6.65,17.09-14.32,21.09-19.65-5.37,2.14-14.13,4.84-25.16,4.79-8.27-.03-15.09-1.6-19.89-3.12Z"/>
  <path class="cls-6" d="M315.69,640.54c2.2-1.59,6.61-5.28,8.63-11.5,2.84-8.74-.21-18.85-7.67-26.12,8.35-.93,16.19,3.11,19.41,9.83,4.21,8.78-1.28,18.38-6.95,23.01-5.18,4.22-11.04,4.72-13.42,4.79Z"/>
  <path class="cls-6" d="M318.17,643.13c5.27-2.71,10.53-5.42,15.8-8.13,.1,1.03,.47,3.31,2.19,5.47,2.68,3.37,6.57,3.83,7.35,3.91-3.67,.83-8.93,1.57-15.17,.94-4.02-.41-7.45-1.28-10.17-2.19Z"/>
  <path class="cls-6" d="M336.78,590.58c-1.79,1.95-4.86,4.81-9.38,7.04-3.8,1.87-7.27,2.64-9.7,2.97,.96-.23,8.53-1.95,15.02,3.13,5.19,4.07,6.21,9.77,6.41,11.1-.22-.64-1.97-5.95,1.25-10.79,2.29-3.44,5.71-4.56,6.73-4.85-.5,.07-4.58,.54-7.66-2.5-2.43-2.4-2.63-5.39-2.66-6.1Z"/>
  <path class="cls-6" d="M343.92,566.91c2.85-2.66,6.75-3.61,10.07-3.05,2.05,.35,3.43,1.2,5.3,2.38,2.07,1.31,5.23,3.69,8.21,7.82-1.59-.84-6.08-2.93-11.79-1.99-3.36,.55-5.85,1.94-7.29,2.91-.81-.05-2.5-.06-4.37,.79-1.96,.89-3.09,2.25-3.58,2.91-.07-.28-1.54-7.14,3.44-11.79Z"/>
  <path class="cls-6" d="M354.32,575.54c5.62,3.43,8.21,9.67,6.6,14.86-1.45,4.66-5.76,6.76-6.67,7.19,1.29,.36,3.7,1.21,5.9,3.34,.82,.79,4.14,4.19,4.11,8.98-.04,5.47-4.24,9.93-8.73,11.55-2.92,1.05-5.57,.75-6.98,.48,.56,.02,5.67,.29,8.5,4.55,2.48,3.75,1.4,7.85,1.06,9.1-.87,3.28-2.85,5.35-3.79,6.22,2.05-.59,5.09-1.79,7.74-4.4,3.97-3.92,4.86-8.84,5.61-14.72,2.3-17.82,3.44-26.74,.46-32.93-1.47-3.05-5.1-9.2-13.81-14.22Z"/>
  <path class="cls-6" d="M364.86,576.33c1.28,1.14,3.76,3.67,5.24,7.73,1.42,3.9,1.21,7.29,1,8.98,2.69-1.69,6.57-4.48,10.48-8.73,4.12-4.49,6.6-7.19,5.99-10.48-.77-4.12-6.06-7.4-9.98-6.73-1.71,.29-2.31,1.2-7.78,5.48-2.1,1.65-3.84,2.94-4.94,3.75Z"/>
  <path class="cls-5" d="M371.92,595.85c1.51-1.63,4.2-4.16,8.23-6.04,3.62-1.69,6.76-3.15,9.51-1.65,2.95,1.62,4.25,5.99,3.11,9.15-.96,2.65-3.39,3.77-7.68,5.67-2.91,1.29-7.29,2.87-12.99,3.66,.28-1.71,.47-3.82,.37-6.22-.07-1.71-.29-3.25-.55-4.57Z"/>
  <path class="cls-6" d="M372.65,609.75c-.2,2.92-.63,6.25-1.46,9.88-.54,2.34-1.17,4.47-1.83,6.4,3.38,.38,8.97,.49,15-2.01,4.15-1.72,9.45-3.92,10.43-8.78,.87-4.34-1.93-9.59-5.49-10.61-1.77-.51-2.87,.28-9.7,2.74-2.89,1.04-5.3,1.84-6.95,2.38Z"/>
  <path class="cls-5" d="M370.09,628.96c-1.83,3.6-3.66,7.2-5.49,10.79,2.6,1,12.79,4.59,20.67-.55,3.63-2.36,7.61-7.13,6.4-9.7-1.08-2.28-5.96-2.21-7.13-2.2-3.88,.05-5.43,1.61-10.24,1.83-1.77,.08-3.24-.05-4.21-.18Z"/>
  <path class="cls-6" d="M363.13,642.76c-1.3,1.78-2.84,3.69-4.66,5.65-2.25,2.42-4.46,4.43-6.49,6.07,.91,1.04,6.48,7.18,15.11,7.06,.57,0,10.1-.28,14.26-7.2,.46-.77,2.91-5.05,1.27-7.34-1.47-2.05-4.97-.8-11.29-1.84-3.59-.59-6.42-1.64-8.19-2.4Z"/>
  <path class="cls-5" d="M253.61,454.06c2.6-2.36,9.81-9.55,11.51-21.05,.8-5.44,.11-10.05-.66-13.15-.35,.42-4.36,5.14-8.55,4.27-5.08-1.05-8.17-9.84-4.93-15.46,2.91-5.04,9.88-5.69,14.47-4.27,5.48,1.69,8.72,6.67,9.54,10.85,.66,3.35-.61,4.31-1.32,10.52-.89,7.8,.69,9.97,0,13.48-.85,4.32-4.99,9.88-20.06,14.8Z"/>
  <path class="cls-3" d="M254.55,456.36c2.25-.63,4.84-1.56,7.58-2.95,5.43-2.75,9.29-6.18,11.8-8.85-.99,3.63-1.94,9.14-.84,15.59,.36,2.12,.89,4.02,1.47,5.69-3.69,2.07-7.02,3.9-9.9,5.48-5.75,3.14-7.97,4.29-9.27,3.37-.51-.37-1.49-1.49-.63-5.69,1.05-.7,2.11-1.4,3.16-2.11-1.44,1.12-3.3,1.11-4.29,.21-1.34-1.22-.73-3.71,.52-4.92,.65-.63,1.42-.85,1.88-.94-2.1,.78-4.04,.3-4.5-.63-.5-1.02,.47-3.21,3.02-4.25Z"/>
  <path class="cls-5" d="M275.9,468.69c-3.74,1.84-7.48,3.67-11.21,5.51,.57,2.86,1.9,7.53,5.31,12.2,6.52,8.9,15.94,11.34,19.28,12.2,12.19,3.15,22.34-.83,25.77-2.36-.32,.96-.67,2.49-.2,4.13,1.11,3.88,6.15,6.27,10.43,5.51,4.76-.85,7.98-5.52,8.07-9.64,.14-6.48-7.46-11.21-13.18-11.61-3.65-.26-4.18,1.42-10.43,2.56-2.54,.46-7.9,1.39-14.17,0-2.94-.65-10.24-2.28-15.35-8.85-2.85-3.67-3.9-7.44-4.33-9.64Z"/>
  <path class="cls-6" d="M275.33,408.63c.39,.27,1.56,1.15,2.1,2.8,.61,1.87,0,3.45-.18,3.85,9.7-2.51,17.56-5.36,23.29-7.7,14.29-5.84,16.18-8.77,16.28-11.03,.1-2.31-1.63-4.88-3.85-5.78-4.39-1.77-9.29,3.54-17.51,8.75-4.4,2.79-11.02,6.36-20.13,9.1Z"/>
  <path class="cls-3" d="M278.65,417.56c15.7-3.83,26.06-8.54,32.74-12.26,9.26-5.15,13.89-7.73,14.36-8.05,6.24-4.29,9.09-7.44,14.53-7.88,3-.24,7.89,.25,9.1,2.98,1.37,3.08-2.59,7.5-4.03,9.1-7.79,8.7-18.96,10.8-37.82,14.53-5.57,1.1-15.89,3.16-29.59,5.95,.23-1.46,.47-2.92,.7-4.38Z"/>
  <path class="cls-6" d="M278.3,424.22c-.23,2.16-.47,4.32-.7,6.48,19.32-3.32,35.34-5.28,46.75-6.48,33.53-3.51,52.14-3.02,62.16-16.28,2.5-3.31,6.05-9.57,4.03-12.26-2.31-3.05-10.84-.13-20.66,3.33-22.65,7.97-41.72,14.93-48.32,17.16-9.53,3.22-24.03,7.05-43.25,8.05Z"/>
  <path class="cls-5" d="M282.35,433.24c-.43,.07-1.48,.22-2.53,.96-1.82,1.28-2.43,3.46-2.67,4.84,.25,6.64,.49,13.28,.74,19.91-.03-2.51,.18-10.62,6-18.25,6.65-8.71,15.94-10.66,18.17-11.06-9.6,1.8-16.67,3.12-19.71,3.59Z"/>
  <circle class="cls-1" cx="304.51" cy="459.78" r="23.9"/>
  <circle class="cls-4" cx="304.51" cy="459.78" r="18.38"/>
  <circle class="cls-6" cx="307.69" cy="454.22" r="11.62"/>
  <circle class="cls-2" cx="297.42" cy="455.32" r="5.59"/>
  <path class="cls-3" d="M304.87,430.63c2.04,.22,5.13,.8,8.51,2.48,4.25,2.12,6.93,4.99,8.33,6.74,4.48,.04,10.84,.01,18.47-.33,6.44-.29,17.5-.96,31.88-3.04,24.14-3.49,30.67-7.03,34.57-12.05,1.04-1.35,3.35-4.4,2.48-7.27-1.23-4.05-8.22-5.76-13.47-5.32-4.29,.36-7.18,2.15-9.4,3.37-5.5,3.02-12.53,4.55-26.59,7.62-7.46,1.63-9.5,1.52-25.17,3.55-7.03,.91-17.2,2.29-29.6,4.25Z"/>
  <path class="cls-6" d="M326.2,442.83c.95,.76,2.23,1.99,3.3,3.8,1.81,3.05,1.99,6.01,1.98,7.44,25.12-.5,50.23-.99,75.35-1.49,.62-.58,3.57-3.43,3.47-7.6,0,0-.09-3.86-3.3-6.94-4.59-4.41-12.21-1.88-25.73,.24-3.09,.48-15.13,1.45-39.21,3.39-6.74,.54-12.26,.92-15.86,1.16Z"/>
  <path class="cls-3" d="M332.33,455.55c.36,1.44,.82,4.04,.25,7.21-.55,3.03-1.79,5.24-2.6,6.46,26.28-.17,52.56-.35,78.84-.52,.8-.16,2.38-.59,3.66-1.92,2.11-2.18,2.4-5.7,1.05-8.37-1.27-2.51-3.89-4.11-6.8-4.19-24.8,.44-49.59,.89-74.39,1.33Z"/>
  <path class="cls-3" d="M329.17,473.16c-1.2,1.38-2.53,2.81-3.99,4.26-1.69,1.69-3.36,3.19-4.95,4.54,2.19,.58,5.66,1.64,9.63,3.58,6.18,3.01,7.95,5.38,16.36,11,9.89,6.6,13.16,7.14,15.95,6.74,.53-.08,5.62-.88,6.74-4.13,1.24-3.61-3.22-7.94-4.81-9.49-3.44-3.33-7.07-4.74-7.98-5.09-6.82-2.64-15.7-6.46-26.95-11.41Z"/>
  <path class="cls-6" d="M331.64,471.24c11.27,3.87,20.01,7.97,26.13,11.14,8.37,4.34,12.55,6.51,15.95,8.94,6.35,4.53,9.04,7.82,14.99,8.94,.92,.17,8.77,1.56,11-2.06,2.08-3.38-1.94-9.17-3.3-11.14-8.11-11.68-24.1-14.57-32.59-15.4-10.73-.14-21.45-.27-32.18-.41Z"/>
  <path class="cls-6" d="M312.24,276.37c5.38,2.83,10.76,5.66,16.14,8.5,1.25-1.06,8.32-6.89,18.69-5.95,10.48,.95,16.41,8.09,17.42,9.35,5.23,1.82,12.14,3.2,19.97,2.12,1.64-.23,22.94-3.44,28.47-18.69,.97-2.67,1.22-5.09,1.27-6.8-5.77,3.07-15.18,6.96-26.34,5.95-13.99-1.27-17.68-9.05-36.54-13.6-9.79-2.36-22.83-5.5-31.44,1.7-6.01,5.02-7.32,12.96-7.65,17.42Z"/>
  <path class="cls-6" d="M331.56,289.14c1.23,2.68,2.52,6.1,3.39,10.17,1.29,6.02,1.21,11.24,.85,14.98,1.95-.24,4.73-.28,7.63,.85,6.66,2.6,8.46,9.24,11.87,14.7,6.82,10.92,20.32,17.47,31.37,18.09,11.82,.66,21.18-5.47,25.72-9.04-16.1-1.6-24.16-7.37-28.55-12.44-7.63-8.81-4.9-16.35-15.26-28.55-4.09-4.82-9.76-11.29-18.94-12.72-8.31-1.29-15.18,2.23-18.09,3.96Z"/>
  <path class="cls-1" d="M306.4,275.29c-16.63-4.9-26.76-2.52-33.07,.85-8,4.28-10.16,10.32-21.2,13.57-4.9,1.44-9.07,1.6-12.15,5.37-2.22,2.72-4.02,7.48-1.98,11.02,2.28,3.96,8.36,4.66,12.44,3.39,6.76-2.11,8.94-9.92,11.59-14.7,4.48-8.09,15.5-16.87,44.37-19.5Z"/>
  <path class="cls-6" d="M298.42,278.85c5.46-1.69,10.19-.98,12.58-.44,2.46,.67,8.95,2.79,14.35,9.05,5.37,6.23,6.53,12.92,6.84,15.45-2.03-1.97-7.87-7.1-17-8.39-6.58-.93-11.87,.57-14.57,1.55-.7-.95-3.42-4.4-8.39-5.52-3.95-.89-7.16,.18-8.39,.66,.93-1.75,5.25-9.47,14.57-12.36Z"/>
  <path class="cls-1" d="M303.93,297.62c.18,2.16,.19,5.88-1.55,9.93-.73,1.72-1.61,3.11-2.43,4.19,1.4,.43,5.76,1.95,8.83,6.4,4.03,5.85,2.67,12.19,2.43,13.24,1.16-.16,15.9-2.35,20.97-14.35,1.63-3.85,1.76-7.52,1.55-10.15-1.76-2.05-5.86-6.26-12.58-8.61-7.86-2.75-14.64-1.34-17.22-.66Z"/>
  <path class="cls-6" d="M311.44,335.14c-2.8,3.31-5.59,6.62-8.39,9.93,9.96-.13,20.19-.42,30.68-.88,10.2-.45,20.13-1.05,29.8-1.77-2.15-1.24-5.32-3.43-8.17-7.06-1.82-2.33-3-4.6-3.75-6.4-.54-1.41-2.53-6.12-7.73-9.05-3.9-2.2-7.63-2.28-9.27-2.21-1.63,2.64-4.22,6.16-8.17,9.49-5.7,4.82-11.5,6.96-15.01,7.95Z"/>
  <path class="cls-3" d="M246.32,320.57c-.72-.16-3.95-.8-6.18,1.1-1.57,1.34-1.84,3.25-2.19,6.08-.25,1.98-.38,5,.43,8.71,3.68,.15,7.36,.29,11.04,.44,.85-3.66,1.07-6.7,1.1-8.83,.06-3.56-.4-4.97-1.35-5.98-.92-.98-2.08-1.36-2.84-1.52Z"/>
  <path class="cls-3" d="M259.72,320.57c-.72-.16-3.95-.8-6.18,1.1-1.57,1.34-1.84,3.25-2.19,6.08-.25,1.98-.38,5,.43,8.71,3.68,.15,7.36,.29,11.04,.44,.85-3.66,1.07-6.7,1.1-8.83,.06-3.56-.4-4.97-1.35-5.98-.92-.98-2.08-1.36-2.84-1.52Z"/>
  <path class="cls-5" d="M289.85,280.22c-11.25,1.12-16.86,5.08-19.91,8.66-3.22,3.78-4.23,7.87-10.04,15.06-2.56,3.17-4.94,5.55-6.58,7.1,3.35-.56,8.48-1.9,13.67-5.37,3.89-2.59,5.97-3.98,7.44-6.75,.8-1.5,1.43-3.44,3.46-5.37,1.2-1.14,2.42-1.83,3.29-2.25,2.89-3.69,5.77-7.39,8.66-11.08Z"/>
  <path class="cls-5" d="M273.72,311.59c1.15,1.52,3.64,4.37,7.78,5.89,8.65,3.17,16.49-2.39,17.24-2.94,1.37,.51,3.79,1.62,5.89,3.99,3.02,3.43,4.2,8.17,3.36,12.4-1.33,6.68-7.5,11.08-13.25,11.98-8.5,1.34-16.36-8.37-18.92-11.35-4.61-5.37-6.93-11.06-12.19-11.56-1.64-.16-3.03,.24-3.91,.58,4.67-3,9.33-5.99,14-8.99Z"/>
  <path class="cls-1" d="M268.88,327.36c.22,2,.45,6.69-2.52,9.67-2.5,2.5-6.04,2.54-13.04,2.52-3.39-.01-8.09-.25-13.67-1.26,1.16,4.11,2.95,6.31,4.42,7.57,.97,.83,3.77,2.94,3.78,2.94h0s48.95-1.89,48.99-1.89c-5.03-.63-8.8-2.18-11.14-3.36-5.23-2.64-8.48-6.02-10.93-8.62-2.71-2.87-4.62-5.58-5.89-7.57Z"/>
  <circle class="cls-3" cx="287.58" cy="304.55" r="12.38"/>
  <circle class="cls-6" cx="287.58" cy="304.55" r="8.88"/>
  <path class="cls-1" d="M236.02,308.43c2.35,1.47,8.48,4.87,16.88,4.59,10.63-.35,17.58-6.35,19.4-8.04,.31,1.57,.61,3.14,.92,4.71-4.32,2.56-8.65,5.13-12.97,7.69-1.17,0-3.53,.18-5.97,1.61-1.46,.86-2.47,1.88-3.1,2.64-.69-.72-2.39-2.28-4.94-2.64-3.5-.5-7.16,1.45-9.3,4.94-.85-1-2.03-2.69-2.64-5.05-1.34-5.17,1.13-9.48,1.72-10.45Z"/>
  <circle class="cls-3" cx="1584.32" cy="903.88" r="21.5"/>
  <circle class="cls-5" cx="1678.22" cy="928.91" r="11.68" transform="translate(-168.53 410.42) rotate(-13.28)"/>
  <path class="cls-5" d="M1596.97,868.43c9.42,2.82,19.19,10.73,21.57,22.42,2.82,13.84-5.54,29.05-20.72,35.47,1.6-1.59,8.98-9.25,8.8-20.72-.14-8.91-4.86-21.14-16.46-24.69-8.7-2.66-18.68,.34-24.69,7.66-6.26,7.62-7.08,18.53-1.99,27.24-7.38-9.74-9.02-22.44-3.97-32.63,6.9-13.94,24.12-18.76,37.46-14.76Z"/>
  <circle class="cls-2" cx="1584.32" cy="903.88" r="18.89"/>
  <circle cx="1583.04" cy="905.06" r="10.53"/>
  <path class="cls-3" d="M1688.01,915.36c-3.78-3.97-9.54-5.38-14.7-3.59-5.24,1.82-8.92,6.63-9.32,12.19-1.84-.56-7.95-2.68-11.12-8.61-4.47-8.36-.8-20.05,7.53-25.1,9.06-5.49,19.05-.36,19.72,0,1.49,.8,8.39,4.48,10.04,12.55,1.26,6.19-1.35,11.14-2.15,12.55Z"/>
  <path class="cls-5" d="M1635.46,927.49c.83,.04,8.2,.52,11.88,6.79,2.2,3.75,1.88,7.53,1.7,8.91,2.57-.54,8.28-1.35,14.43,1.27,3.2,1.37,8.59,3.67,9.76,8.91,1.06,4.74-1.86,9.53-5.09,11.88-2.63,1.92-5.72,2.13-11.88,2.55-4.03,.27-7.39,.16-9.76,0,.82,2.49,2.57,8.89,.42,16.55-1.68,6.02-4.98,9.99-6.79,11.88-25.04,.28-50.08,.57-75.12,.85-.81-.53-5.63-3.79-6.37-9.76-.34-2.79,.34-5.08,.85-6.37,15.05-.57,27.23-.33,35.65,0,14.09,.55,21.01,1.49,24.78-3.05,2.27-2.74,1.46-5.13,1.07-20.96-.46-18.42,.46-22.49,3.4-25.46,4.19-4.24,10.31-4.04,11.07-4Z"/>
  <path class="cls-1" d="M1694.13,883.37c-6.09-6.31-17.67-16.53-35.15-22.54-30.09-10.35-56.35-.89-63.99,2.18,4.72,1.2,16.3,4.88,24.24,15.76,10.54,14.44,10.31,35.6-.73,53.33,3.16-6.1,9.49-9.88,16.24-9.7,7.25,.19,13.73,4.92,16.24,11.88-8.26-11.25-9.97-25.7-4.12-36.84,7.89-15.02,28.56-22.23,47.27-14.06Z"/>
  <path class="cls-3" d="M1621.86,912.71c-2.05,2.94-5.44,8.64-6.68,16.62-1.45,9.34,.82,16.78,2.12,20.21-.11-.38-2-6.71-8.15-8.47-4.94-1.42-10.49,.73-13.53,5.38-.58-.84-3.27-4.52-8.15-5.38-4.8-.84-9.83,1.39-12.87,5.7-1.16-1.2-3.36-3.13-6.68-4.24-1.68-.56-3.2-.76-4.4-.81-.54-7.71-1.09-15.43-1.63-23.14,2.82,2.81,9.31,8.5,19.39,10.92,3.71,.89,13.51,3.08,24.28-1.79,9.7-4.39,14.58-11.99,16.3-14.99Z"/>
  <path class="cls-6" d="M1698.84,889.62c-5.85-5.77-14.07-6.17-16.31-6.27-4.55-.22-8.25,.73-10.54,1.51,7.54-.68,14.86,2.67,19.08,8.78,4.69,6.8,4.8,15.93,.25,23.09,.87,1.62,2.6,5.37,2.26,10.29-.5,7.27-5.15,11.77-6.27,12.8,2.12,1.2,5.09,3.3,7.53,6.78,6.18,8.8,3.73,19.02,3.26,20.83,4.53-16.79,6.55-30.32,7.53-39.66,.33-3.11,.97-9.92-.12-18.64-1.11-8.84-1.85-14.77-6.66-19.51Z"/>
  <path class="cls-3" d="M1671.78,944.78c1.9-.78,6.98-2.55,13-.92,1.9,.52,7.4,2.01,10.15,6.91,1.58,2.81,1.54,5.47,1.47,10.19-.04,2.96-.1,6.58-1.38,10.33-3.14,9.2-12.24,15-19.63,17.04-2.96,.82-6.22,.95-12.74,1.21-5.63,.22-10.32,.04-13.6-.17,.11-6.31,.23-12.62,.34-18.94,8.44,3.63,17.58,2.36,22.9-3.1,.78-.8,6.31-6.67,4.65-14.29-.98-4.49-3.94-7.24-5.16-8.26Z"/>
  <path class="cls-4" d="M1673.57,942.05c-1.17-.37-6.59-2.21-9.48-7.82-1.76-3.42-1.77-6.64-1.67-8.2-1.98-.56-5.06-1.72-8.07-4.23-5.29-4.4-6.93-10.05-7.43-12.17-.58,2.16-1.27,5.78-.64,10.12,1.76,12.15,12.09,18.28,13.07,18.83,5.7,3.26,11.26,3.55,14.22,3.46Z"/>
  <path class="cls-6" d="M1618.95,960.83c-.01-2.04-.34-6.66-3.6-10.81-1.22-1.56-5.19-6.6-10.01-5.6-2.76,.57-5.08,2.98-5.8,5.4-.27,.91-.21,1.45,0,6,.09,2.11,.16,3.8,.2,4.8,6.4,.07,12.81,.13,19.21,.2Z"/>
  <path class="cls-6" d="M1596.13,960.83c-.01-2.04-.34-6.66-3.6-10.81-1.22-1.56-5.19-6.6-10.01-5.6-2.76,.57-5.08,2.98-5.8,5.4-.27,.91-.21,1.45,0,6,.09,2.11,.16,3.8,.2,4.8,6.4,.07,12.81,.13,19.21,.2Z"/>
  <path class="cls-6" d="M1574.32,960.83c-.01-2.04-.34-6.66-3.6-10.81-1.22-1.56-5.19-6.6-10.01-5.6-2.76,.57-5.08,2.98-5.8,5.4-.27,.91-.21,1.45,0,6,.09,2.11,.16,3.8,.2,4.8,6.4,.07,12.81,.13,19.21,.2Z"/>
  <path class="cls-6" d="M1618.16,963.92c-5.82,.05-11.63,.1-17.45,.15,.03,1.08,.12,2.62,.36,4.46,.41,3.15,.61,4.73,1.31,6.02,1.35,2.5,4.52,5,8.19,4.7,.34-.03,3.08-.29,5.05-2.42,1.83-1.98,2.05-4.53,2.41-8.77,.15-1.75,.15-3.19,.12-4.13Z"/>
  <path class="cls-6" d="M1596.56,963.92c-5.82,.05-11.63,.1-17.45,.15,.03,1.08,.12,2.62,.36,4.46,.41,3.15,.61,4.73,1.31,6.02,1.35,2.5,4.52,5,8.19,4.7,.34-.03,3.08-.29,5.05-2.42,1.83-1.98,2.05-4.53,2.41-8.77,.15-1.75,.15-3.19,.12-4.13Z"/>
  <path class="cls-6" d="M1574.15,963.92c-5.82,.05-11.63,.1-17.45,.15,.03,1.08,.12,2.62,.36,4.46,.41,3.15,.61,4.73,1.31,6.02,1.35,2.5,4.52,5,8.19,4.7,.34-.03,3.08-.29,5.05-2.42,1.83-1.98,2.05-4.53,2.41-8.77,.15-1.75,.15-3.19,.12-4.13Z"/>
  <circle class="cls-3" cx="1588.25" cy="124.53" r="21.5"/>
  <circle class="cls-5" cx="1682.14" cy="149.57" r="11.68" transform="translate(10.64 390.48) rotate(-13.28)"/>
  <path class="cls-5" d="M1600.9,89.08c9.42,2.82,19.19,10.73,21.57,22.42,2.82,13.84-5.54,29.05-20.72,35.47,1.6-1.59,8.98-9.25,8.8-20.72-.14-8.91-4.86-21.14-16.46-24.69-8.7-2.66-18.68,.34-24.69,7.66-6.26,7.62-7.08,18.53-1.99,27.24-7.38-9.74-9.02-22.44-3.97-32.63,6.9-13.94,24.12-18.76,37.46-14.76Z"/>
  <circle class="cls-2" cx="1588.25" cy="124.53" r="18.89"/>
  <circle cx="1586.97" cy="125.71" r="10.53"/>
  <path class="cls-3" d="M1691.94,136.02c-3.78-3.97-9.54-5.38-14.7-3.59-5.24,1.82-8.92,6.63-9.32,12.19-1.84-.56-7.95-2.68-11.12-8.61-4.47-8.36-.8-20.05,7.53-25.1,9.06-5.49,19.05-.36,19.72,0,1.49,.8,8.39,4.48,10.04,12.55,1.26,6.19-1.35,11.14-2.15,12.55Z"/>
  <path class="cls-5" d="M1639.39,148.15c.83,.04,8.2,.52,11.88,6.79,2.2,3.75,1.88,7.53,1.7,8.91,2.57-.54,8.28-1.35,14.43,1.27,3.2,1.37,8.59,3.67,9.76,8.91,1.06,4.74-1.86,9.53-5.09,11.88-2.63,1.92-5.72,2.13-11.88,2.55-4.03,.27-7.39,.16-9.76,0,.82,2.49,2.57,8.89,.42,16.55-1.68,6.02-4.98,9.99-6.79,11.88-25.04,.28-50.08,.57-75.12,.85-.81-.53-5.63-3.79-6.37-9.76-.34-2.79,.34-5.08,.85-6.37,15.05-.57,27.23-.33,35.65,0,14.09,.55,21.01,1.49,24.78-3.05,2.27-2.74,1.46-5.13,1.07-20.96-.46-18.42,.46-22.49,3.4-25.46,4.19-4.24,10.31-4.04,11.07-4Z"/>
  <path class="cls-1" d="M1698.06,104.02c-6.09-6.31-17.67-16.53-35.15-22.54-30.09-10.35-56.35-.89-63.99,2.18,4.72,1.2,16.3,4.88,24.24,15.76,10.54,14.44,10.31,35.6-.73,53.33,3.16-6.1,9.49-9.88,16.24-9.7,7.25,.19,13.73,4.92,16.24,11.88-8.26-11.25-9.97-25.7-4.12-36.84,7.89-15.02,28.56-22.23,47.27-14.06Z"/>
  <path class="cls-3" d="M1625.79,133.36c-2.05,2.94-5.44,8.64-6.68,16.62-1.45,9.34,.82,16.78,2.12,20.21-.11-.38-2-6.71-8.15-8.47-4.94-1.42-10.49,.73-13.53,5.38-.58-.84-3.27-4.52-8.15-5.38-4.8-.84-9.83,1.39-12.87,5.7-1.16-1.2-3.36-3.13-6.68-4.24-1.68-.56-3.2-.76-4.4-.81-.54-7.71-1.09-15.43-1.63-23.14,2.82,2.81,9.31,8.5,19.39,10.92,3.71,.89,13.51,3.08,24.28-1.79,9.7-4.39,14.58-11.99,16.3-14.99Z"/>
  <path class="cls-6" d="M1702.77,110.28c-5.85-5.77-14.07-6.17-16.31-6.27-4.55-.22-8.25,.73-10.54,1.51,7.54-.68,14.86,2.67,19.08,8.78,4.69,6.8,4.8,15.93,.25,23.09,.87,1.62,2.6,5.37,2.26,10.29-.5,7.27-5.15,11.77-6.27,12.8,2.12,1.2,5.09,3.3,7.53,6.78,6.18,8.8,3.73,19.02,3.26,20.83,4.53-16.79,6.55-30.32,7.53-39.66,.33-3.11,.97-9.92-.12-18.64-1.11-8.84-1.85-14.77-6.66-19.51Z"/>
  <path class="cls-3" d="M1675.7,165.43c1.9-.78,6.98-2.55,13-.92,1.9,.52,7.4,2.01,10.15,6.91,1.58,2.81,1.54,5.47,1.47,10.19-.04,2.96-.1,6.58-1.38,10.33-3.14,9.2-12.24,15-19.63,17.04-2.96,.82-6.22,.95-12.74,1.21-5.63,.22-10.32,.04-13.6-.17,.11-6.31,.23-12.62,.34-18.94,8.44,3.63,17.58,2.36,22.9-3.1,.78-.8,6.31-6.67,4.65-14.29-.98-4.49-3.94-7.24-5.16-8.26Z"/>
  <path class="cls-4" d="M1677.49,162.7c-1.17-.37-6.59-2.21-9.48-7.82-1.76-3.42-1.77-6.64-1.67-8.2-1.98-.56-5.06-1.72-8.07-4.23-5.29-4.4-6.93-10.05-7.43-12.17-.58,2.16-1.27,5.78-.64,10.12,1.76,12.15,12.09,18.28,13.07,18.83,5.7,3.26,11.26,3.55,14.22,3.46Z"/>
  <path class="cls-6" d="M1622.87,181.49c-.01-2.04-.34-6.66-3.6-10.81-1.22-1.56-5.19-6.6-10.01-5.6-2.76,.57-5.08,2.98-5.8,5.4-.27,.91-.21,1.45,0,6,.09,2.11,.16,3.8,.2,4.8,6.4,.07,12.81,.13,19.21,.2Z"/>
  <path class="cls-6" d="M1600.06,181.49c-.01-2.04-.34-6.66-3.6-10.81-1.22-1.56-5.19-6.6-10.01-5.6-2.76,.57-5.08,2.98-5.8,5.4-.27,.91-.21,1.45,0,6,.09,2.11,.16,3.8,.2,4.8,6.4,.07,12.81,.13,19.21,.2Z"/>
  <path class="cls-6" d="M1578.25,181.49c-.01-2.04-.34-6.66-3.6-10.81-1.22-1.56-5.19-6.6-10.01-5.6-2.76,.57-5.08,2.98-5.8,5.4-.27,.91-.21,1.45,0,6,.09,2.11,.16,3.8,.2,4.8,6.4,.07,12.81,.13,19.21,.2Z"/>
  <path class="cls-6" d="M1622.08,184.57c-5.82,.05-11.63,.1-17.45,.15,.03,1.08,.12,2.62,.36,4.46,.41,3.15,.61,4.73,1.31,6.02,1.35,2.5,4.52,5,8.19,4.7,.34-.03,3.08-.29,5.05-2.42,1.83-1.98,2.05-4.53,2.41-8.77,.15-1.75,.15-3.19,.12-4.13Z"/>
  <path class="cls-6" d="M1600.49,184.57c-5.82,.05-11.63,.1-17.45,.15,.03,1.08,.12,2.62,.36,4.46,.41,3.15,.61,4.73,1.31,6.02,1.35,2.5,4.52,5,8.19,4.7,.34-.03,3.08-.29,5.05-2.42,1.83-1.98,2.05-4.53,2.41-8.77,.15-1.75,.15-3.19,.12-4.13Z"/>
  <path class="cls-6" d="M1578.07,184.57c-5.82,.05-11.63,.1-17.45,.15,.03,1.08,.12,2.62,.36,4.46,.41,3.15,.61,4.73,1.31,6.02,1.35,2.5,4.52,5,8.19,4.7,.34-.03,3.08-.29,5.05-2.42,1.83-1.98,2.05-4.53,2.41-8.77,.15-1.75,.15-3.19,.12-4.13Z"/>
  <path class="cls-6" d="M1693.62,749.16c.17,0,3.66,.04,5.64,2.65,1.95,2.57,1.74,6.68-.66,10.28,1.38-.44,8.61-2.62,15.92,1.33,8.51,4.59,10.09,13.68,10.28,14.93,1.34,8.57-3.49,15.32-7.96,21.56-4.91,6.86-10.65,11.37-15.26,14.26,4.5-3.92,6.13-9.4,4.31-13.27-2.3-4.91-9.21-5.28-9.95-5.31-8.02-.31-12.64,6.52-19.9,11.94-5.88,4.39-15.47,9.33-31.18,10.28h47.44c1.06,.49,3.12,1.64,3.65,3.65,.81,3.07-2.16,7.5-7.96,9.29-26.98,.33-53.96,.66-80.94,1-1.16-5.67-1.79-13.6,2.65-19.24,5.38-6.83,13.43-4.22,30.91-9.75,12.79-4.04,22.46-7.1,28.8-15.8,5.15-7.07,2.81-10.59,11.28-25.21,5.29-9.14,9-12.59,12.94-12.61Z"/>
  <path class="cls-6" d="M1678.98,751.11c-1.24,3.27-2.44,6.89-3.51,10.86-.92,3.4-1.63,6.63-2.18,9.64-1.72-4.68-4.67-10.16-10.08-14.03-4.39-3.15-6.35-2.32-13.83-6.32-8.15-4.35-12.94-9.13-14.43-10.67-5.32-5.51-7.31-10.04-7.9-11.46-1.46-3.52-3.53-8.52-1.19-11.66,2.05-2.74,6.36-2.6,6.92-2.57,5.38,.25,7.76,4.52,15.61,12.45,0,0,7.98,8.06,18.77,16.01,4.81,3.54,9,6.12,11.81,7.76Z"/>
  <path class="cls-3" d="M1639.55,750.39c-2.1,.49-5.58,1.58-9.14,4.22-4.19,3.1-6.38,6.78-7.38,8.79-5.15-2.65-10.5-5.57-16-8.79-5.45-3.19-10.57-6.4-15.36-9.57,6.1-.49,12.38-1.11,18.81-1.88,4.05-.48,8.02-1.01,11.92-1.57,5.72,2.93,11.44,5.87,17.15,8.8Z"/>
  <path class="cls-5" d="M1617.38,737.82c-9.05,1.64-18.1,3.27-27.15,4.91-3.03-1.11-7.61-3.22-11.99-7.3-3.69-3.43-9.64-10.49-7.82-13.38,.39-.62,2.05-2.5,13.72,.52,8.1,2.1,19.79,6.24,33.23,15.24Z"/>
  <path class="cls-3" d="M1669.99,778.45c-2.02,1.74-10.83,8.94-23.71,8.38-16.66-.73-25.87-13.83-26.89-15.32,1.21,2.82,3,8.13,2.31,14.74-1.32,12.68-10.71,19.99-12.56,21.37,4.33-.77,10.42-1.97,17.64-3.75,9.89-2.43,15.19-3.74,20.36-6.06,5.59-2.51,14.42-7.73,22.84-19.37Z"/>
  <path class="cls-5" d="M1619.46,779.22c.61,4.07,.16,7.19-.31,9.21-1.22,5.18-4.05,8.97-8.9,15.45-1.4,1.87-2.61,3.37-3.43,4.37-6.28,4.37-12.1,7.4-16.86,9.52-9.95,4.44-22.29,9.76-35.28,6.24-2.52-.68-10.83-2.93-11.71-7.96-.75-4.29,4.29-8.42,7.02-10.61,6.04-4.84,12.05-6.85,32.15-11.08,14.76-3.11,20.57-3.93,28.41-8.58,3.96-2.35,6.94-4.8,8.9-6.56Z"/>
  <path class="cls-3" d="M1617.27,771.88c.31,1.3,.62,2.6,.94,3.9-4.28,3.31-9.57,6.88-15.92,10.15-3.85,1.98-7.53,3.56-10.93,4.84-8.32,.42-16.65,.83-24.97,1.25,1.4-.68,10.02-5,12.17-14.36,.8-3.47,.45-6.52,0-8.58,12.9,.94,25.81,1.87,38.71,2.81Z"/>
  <path class="cls-3" d="M1619.46,764.23c-.43,.69-1.03,1.86-1.25,3.43-.13,.92-.08,1.73,0,2.34-10.05-.49-20.57-1.29-31.53-2.5-6.65-.73-13.1-1.57-19.35-2.5,1.47-.42,8.66-2.65,12.64-9.99,2.7-4.97,2.53-9.73,2.34-11.71,6.16,2.83,12.7,6.14,19.51,9.99,6.42,3.63,12.3,7.32,17.64,10.93Z"/>
  <path class="cls-5" d="M1578.88,743c.02,2.12-.22,5.2-1.56,8.58-2.83,7.17-8.57,10.73-10.61,11.86-2.57-.69-6.43-2.04-10.46-4.84-4.04-2.81-7.66-5.32-7.96-9.37-.38-5.07,4.73-8.71,4.99-8.9,3.52-2.44,7.35-2.09,11.55-1.72,3.07,.28,8.2,1.16,14.05,4.37Z"/>
  <path class="cls-5" d="M1574.66,768.76c.62,1.71,1.65,5.36,.62,9.68-1.97,8.32-9.81,11.77-10.77,12.17-2.61,.63-7.81,1.47-13.58-.62-2.73-.99-8.96-3.25-10.93-9.21-.29-.88-1.6-5.19,.62-8.9,2.44-4.07,7.57-4.81,12.64-5.46,4.36-.56,11.94-.87,21.38,2.34Z"/>
  <path class="cls-4" d="M1670.54,771.9c-1.35-2.23-5.37-8.16-13.7-11.56-2.04-.84-12.53-4.87-23.62-.37-6.69,2.71-10.31,7.2-11.74,9.23,1.32,2.31,4.03,6.27,9.09,9.59,2.26,1.48,9.45,6.06,19.15,5.29,13.14-1.05,20.08-11.06,20.83-12.18Z"/>
  <ellipse class="cls-6" cx="1647.93" cy="770.01" rx="12.75" ry="12.13"/>
  <ellipse class="cls-2" cx="1639.57" cy="766.06" rx="6.82" ry="6.49"/>
  <path class="cls-1" d="M1629.14,711.54c-5.09,2.07-8.66,6.69-9.23,11.99-.65,6.1,2.77,12.11,8.56,14.85-4.92-4.78-14.72-13.02-29.53-17.79-12.17-3.91-22.74-3.88-29.2-3.36,4.2-3.27,11.57-8.08,21.81-10.4,18.07-4.09,32.77,2.34,37.59,4.7Z"/>
  <path class="cls-1" d="M1578.46,630.52c-2.74,1.42-.78,12.85,4.32,21.89,1.85,3.28,9.16,16.24,22,17.37,3.33,.29,6.16-.29,8.11-.87,1.21-1.09,5.12-4.91,5.79-11,.73-6.57-2.55-13.65-7.82-16.21-4.77-2.32-7.15,1.04-13.9,0-11.18-1.72-15.68-12.65-18.51-11.18Z"/>
  <path class="cls-1" d="M1555.76,561.87c-3.39,3.81-5.1,7.48-6.01,10.34-4.23,13.25,2.14,29.21,15.38,41.58-1.59-2.53-9.3-15.31-5.05-30.29,1.73-6.08,4.85-10.48,7.21-13.22-.19-1.06-.76-3.31-2.64-5.29-3.42-3.58-8.23-3.19-8.89-3.12Z"/>
  <path class="cls-1" d="M1571.14,572.69c-2,1.26-5.38,3.8-7.69,8.17-4.17,7.9-1.72,15.93-.72,19.23,2.74,9.01,8.96,14.19,11.54,16.1-1.21-1.73-5.19-7.91-4.57-16.59,.64-8.97,5.78-14.62,7.21-16.1,0-1.17-.14-3.25-1.2-5.53-1.39-2.97-3.56-4.62-4.57-5.29Z"/>
  <path class="cls-1" d="M1580.31,584.21c-3.68,2.48-5.41,5.24-6.25,7.04-3.9,8.25-.43,19.78,8.8,28.73-.96-2.11-3.66-8.74-1.76-17,1.58-6.86,5.49-11.18,7.23-12.9,.08-2.26-1.04-4.38-2.93-5.47-2.34-1.36-4.74-.52-5.08-.39Z"/>
  <path class="cls-1" d="M1591.84,592.62c-1.63,.74-4.48,2.34-6.45,5.47-3.9,6.22-1.22,13.6-.2,16.42,.79,2.19,2.58,6.14,6.65,9.97-3.27-6.38-3.06-13.27,.59-17.39,.82-.93,2.44-2.42,5.28-3.32,.17-.37,1.61-3.64-.2-7.04-1.79-3.37-5.26-4.03-5.67-4.1Z"/>
  <circle class="cls-3" cx="1611.03" cy="561.83" r="20.01"/>
  <circle class="cls-3" cx="1647.86" cy="630.39" r="9.71"/>
  <circle class="cls-5" cx="1653.34" cy="606.49" r="9.71"/>
  <circle class="cls-3" cx="1650.62" cy="583.84" r="9.71"/>
  <circle class="cls-6" cx="1614.16" cy="556.84" r="11.84"/>
  <circle class="cls-2" cx="1606.08" cy="554.98" r="8.08"/>
  <circle class="cls-5" cx="1649.7" cy="585.31" r="6.99"/>
  <circle class="cls-6" cx="1651.45" cy="608.55" r="6.99"/>
  <circle class="cls-5" cx="1646.98" cy="631.78" r="6.99"/>
  <path class="cls-6" d="M1558.03,558.43c.62-.06,4.9-.42,8.31,2.84,3.62,3.46,3.22,8.11,3.16,8.66,.94,.03,3.74,.23,6.16,2.33,4,3.49,3.23,8.94,3.16,9.33,.34-.12,4.74-1.64,8.49,1.17,2.98,2.22,3.43,5.57,3.5,6.16,1.05,.09,4.31,.52,6.83,3.16,2.87,3.01,3.64,7.69,2,11.99,1.55,.11,3.89,.07,6.5-.83,5.4-1.87,8.16-6.08,8.99-7.49-1.7-.38-10.78-2.55-13.99-10.16-.44-1.04-.82-2.31-1-3.83-2.04-.88-7.28-3.48-10.49-9.33-5.63-10.25,.23-20.93,.83-21.99,4.9-8.59,13.55-11.03,15.32-11.49-5.13-.38-14.02-.36-24.15,3.33-12.37,4.51-20.08,12.13-23.64,16.15Z"/>
  <path class="cls-6" d="M1605.11,583.84c2.59,.58,8.46,1.5,14.86-1.11,12.11-4.94,15.09-18.03,15.36-19.32,1.57,1.51,4.32,4.63,5.08,9.17,1.41,8.43-4.88,16.94-12.63,19.94-5.48,2.12-13.31,2.13-18.58-2.6-2.3-2.06-3.48-4.46-4.09-6.07Z"/>
  <path class="cls-6" d="M1616.01,539.37c1.53,.24,10.68,1.85,15.85,10.16,2.78,4.46,3.18,8.88,3.22,11.15,.46-1.29,1.89-4.79,5.57-7.18,5.83-3.79,12.25-1.52,13.01-1.24-4.1-3.66-12.47-10.03-24.65-12.26-4.98-.91-9.43-.92-13.01-.62Z"/>
  <path class="cls-6" d="M1636.45,562.41c1.74-4.5,4.43-6.29,5.57-6.94,8.08-4.54,18.57,3.61,19.32,4.21,2.57,2.05,4.22,4.27,5.2,5.82-4.29-5.94-11.48-8.36-17.34-6.19-5.64,2.08-7.81,7.58-8.18,8.55-1.53-1.82-3.06-3.63-4.58-5.45Z"/>
  <path class="cls-6" d="M1615.71,640.52c1.41,1.2,5.25,4.8,6.47,10.78,1.91,9.39-4.31,16.46-5.03,17.25,5.87-1.61,13.95-4.54,22.53-10.06,10.32-6.65,17.09-14.32,21.09-19.65-5.37,2.14-14.13,4.84-25.16,4.79-8.27-.03-15.09-1.6-19.89-3.12Z"/>
  <path class="cls-6" d="M1617.63,637.17c2.2-1.59,6.61-5.28,8.63-11.5,2.84-8.74-.21-18.85-7.67-26.12,8.35-.93,16.19,3.11,19.41,9.83,4.21,8.78-1.28,18.38-6.95,23.01-5.18,4.22-11.04,4.72-13.42,4.79Z"/>
  <path class="cls-6" d="M1620.11,639.76c5.27-2.71,10.53-5.42,15.8-8.13,.1,1.03,.47,3.31,2.19,5.47,2.68,3.37,6.57,3.83,7.35,3.91-3.67,.83-8.93,1.57-15.17,.94-4.02-.41-7.45-1.28-10.17-2.19Z"/>
  <path class="cls-6" d="M1638.73,587.21c-1.79,1.95-4.86,4.81-9.38,7.04-3.8,1.87-7.27,2.64-9.7,2.97,.96-.23,8.53-1.95,15.02,3.13,5.19,4.07,6.21,9.77,6.41,11.1-.22-.64-1.97-5.95,1.25-10.79,2.29-3.44,5.71-4.56,6.73-4.85-.5,.07-4.58,.54-7.66-2.5-2.43-2.4-2.63-5.39-2.66-6.1Z"/>
  <path class="cls-6" d="M1645.86,563.54c2.85-2.66,6.75-3.61,10.07-3.05,2.05,.35,3.43,1.2,5.3,2.38,2.07,1.31,5.23,3.69,8.21,7.82-1.59-.84-6.08-2.93-11.79-1.99-3.36,.55-5.85,1.94-7.29,2.91-.81-.05-2.5-.06-4.37,.79-1.96,.89-3.09,2.25-3.58,2.91-.07-.28-1.54-7.14,3.44-11.79Z"/>
  <path class="cls-6" d="M1656.26,572.17c5.62,3.43,8.21,9.67,6.6,14.86-1.45,4.66-5.76,6.76-6.67,7.19,1.29,.36,3.7,1.21,5.9,3.34,.82,.79,4.14,4.19,4.11,8.98-.04,5.47-4.24,9.93-8.73,11.55-2.92,1.05-5.57,.75-6.98,.48,.56,.02,5.67,.29,8.5,4.55,2.48,3.75,1.4,7.85,1.06,9.1-.87,3.28-2.85,5.35-3.79,6.22,2.05-.59,5.09-1.79,7.74-4.4,3.97-3.92,4.86-8.84,5.61-14.72,2.3-17.82,3.44-26.74,.46-32.93-1.47-3.05-5.1-9.2-13.81-14.22Z"/>
  <path class="cls-6" d="M1666.8,572.96c1.28,1.14,3.76,3.67,5.24,7.73,1.42,3.9,1.21,7.29,1,8.98,2.69-1.69,6.57-4.48,10.48-8.73,4.12-4.49,6.6-7.19,5.99-10.48-.77-4.12-6.06-7.4-9.98-6.73-1.71,.29-2.31,1.2-7.78,5.48-2.1,1.65-3.84,2.94-4.94,3.75Z"/>
  <path class="cls-5" d="M1673.86,592.48c1.51-1.63,4.2-4.16,8.23-6.04,3.62-1.69,6.76-3.15,9.51-1.65,2.95,1.62,4.25,5.99,3.11,9.15-.96,2.65-3.39,3.77-7.68,5.67-2.91,1.29-7.29,2.87-12.99,3.66,.28-1.71,.47-3.82,.37-6.22-.07-1.71-.29-3.25-.55-4.57Z"/>
  <path class="cls-6" d="M1674.6,606.38c-.2,2.92-.63,6.25-1.46,9.88-.54,2.34-1.17,4.47-1.83,6.4,3.38,.38,8.97,.49,15-2.01,4.15-1.72,9.45-3.92,10.43-8.78,.87-4.34-1.93-9.59-5.49-10.61-1.77-.51-2.87,.28-9.7,2.74-2.89,1.04-5.3,1.84-6.95,2.38Z"/>
  <path class="cls-5" d="M1672.03,625.59c-1.83,3.6-3.66,7.2-5.49,10.79,2.6,1,12.79,4.59,20.67-.55,3.63-2.36,7.61-7.13,6.4-9.7-1.08-2.28-5.96-2.21-7.13-2.2-3.88,.05-5.43,1.61-10.24,1.83-1.77,.08-3.24-.05-4.21-.18Z"/>
  <path class="cls-6" d="M1665.07,639.39c-1.3,1.78-2.84,3.69-4.66,5.65-2.25,2.42-4.46,4.43-6.49,6.07,.91,1.04,6.48,7.18,15.11,7.06,.57,0,10.1-.28,14.26-7.2,.46-.77,2.91-5.05,1.27-7.34-1.47-2.05-4.97-.8-11.29-1.84-3.59-.59-6.42-1.64-8.19-2.4Z"/>
  <path class="cls-5" d="M1555.55,450.69c2.6-2.36,9.81-9.55,11.51-21.05,.8-5.44,.11-10.05-.66-13.15-.35,.42-4.36,5.14-8.55,4.27-5.08-1.05-8.17-9.84-4.93-15.46,2.91-5.04,9.88-5.69,14.47-4.27,5.48,1.69,8.72,6.67,9.54,10.85,.66,3.35-.61,4.31-1.32,10.52-.89,7.8,.69,9.97,0,13.48-.85,4.32-4.99,9.88-20.06,14.8Z"/>
  <path class="cls-3" d="M1556.49,452.99c2.25-.63,4.84-1.56,7.58-2.95,5.43-2.75,9.29-6.18,11.8-8.85-.99,3.63-1.94,9.14-.84,15.59,.36,2.12,.89,4.02,1.47,5.69-3.69,2.07-7.02,3.9-9.9,5.48-5.75,3.14-7.97,4.29-9.27,3.37-.51-.37-1.49-1.49-.63-5.69,1.05-.7,2.11-1.4,3.16-2.11-1.44,1.12-3.3,1.11-4.29,.21-1.34-1.22-.73-3.71,.52-4.92,.65-.63,1.42-.85,1.88-.94-2.1,.78-4.04,.3-4.5-.63-.5-1.02,.47-3.21,3.02-4.25Z"/>
  <path class="cls-5" d="M1577.84,465.32c-3.74,1.84-7.48,3.67-11.21,5.51,.57,2.86,1.9,7.53,5.31,12.2,6.52,8.9,15.94,11.34,19.28,12.2,12.19,3.15,22.34-.83,25.77-2.36-.32,.96-.67,2.49-.2,4.13,1.11,3.88,6.15,6.27,10.43,5.51,4.76-.85,7.98-5.52,8.07-9.64,.14-6.48-7.46-11.21-13.18-11.61-3.65-.26-4.18,1.42-10.43,2.56-2.54,.46-7.9,1.39-14.17,0-2.94-.65-10.24-2.28-15.35-8.85-2.85-3.67-3.9-7.44-4.33-9.64Z"/>
  <path class="cls-6" d="M1577.27,405.26c.39,.27,1.56,1.15,2.1,2.8,.61,1.87,0,3.45-.18,3.85,9.7-2.51,17.56-5.36,23.29-7.7,14.29-5.84,16.18-8.77,16.28-11.03,.1-2.31-1.63-4.88-3.85-5.78-4.39-1.77-9.29,3.54-17.51,8.75-4.4,2.79-11.02,6.36-20.13,9.1Z"/>
  <path class="cls-3" d="M1580.6,414.19c15.7-3.83,26.06-8.54,32.74-12.26,9.26-5.15,13.89-7.73,14.36-8.05,6.24-4.29,9.09-7.44,14.53-7.88,3-.24,7.89,.25,9.1,2.98,1.37,3.08-2.59,7.5-4.03,9.1-7.79,8.7-18.96,10.8-37.82,14.53-5.57,1.1-15.89,3.16-29.59,5.95,.23-1.46,.47-2.92,.7-4.38Z"/>
  <path class="cls-6" d="M1580.25,420.85c-.23,2.16-.47,4.32-.7,6.48,19.32-3.32,35.34-5.28,46.75-6.48,33.53-3.51,52.14-3.02,62.16-16.28,2.5-3.31,6.05-9.57,4.03-12.26-2.31-3.05-10.84-.13-20.66,3.33-22.65,7.97-41.72,14.93-48.32,17.16-9.53,3.22-24.03,7.05-43.25,8.05Z"/>
  <path class="cls-5" d="M1584.3,429.87c-.43,.07-1.48,.22-2.53,.96-1.82,1.28-2.43,3.46-2.67,4.84,.25,6.64,.49,13.28,.74,19.91-.03-2.51,.18-10.62,6-18.25,6.65-8.71,15.94-10.66,18.17-11.06-9.6,1.8-16.67,3.12-19.71,3.59Z"/>
  <circle class="cls-1" cx="1606.46" cy="456.41" r="23.9"/>
  <circle class="cls-4" cx="1606.46" cy="456.41" r="18.38"/>
  <circle class="cls-6" cx="1609.63" cy="450.85" r="11.62"/>
  <circle class="cls-2" cx="1599.36" cy="451.95" r="5.59"/>
  <path class="cls-3" d="M1606.81,427.25c2.04,.22,5.13,.8,8.51,2.48,4.25,2.12,6.93,4.99,8.33,6.74,4.48,.04,10.84,.01,18.47-.33,6.44-.29,17.5-.96,31.88-3.04,24.14-3.49,30.67-7.03,34.57-12.05,1.04-1.35,3.35-4.4,2.48-7.27-1.23-4.05-8.22-5.76-13.47-5.32-4.29,.36-7.18,2.15-9.4,3.37-5.5,3.02-12.53,4.55-26.59,7.62-7.46,1.63-9.5,1.52-25.17,3.55-7.03,.91-17.2,2.29-29.6,4.25Z"/>
  <path class="cls-6" d="M1628.14,439.46c.95,.76,2.23,1.99,3.3,3.8,1.81,3.05,1.99,6.01,1.98,7.44,25.12-.5,50.23-.99,75.35-1.49,.62-.58,3.57-3.43,3.47-7.6,0,0-.09-3.86-3.3-6.94-4.59-4.41-12.21-1.88-25.73,.24-3.09,.48-15.13,1.45-39.21,3.39-6.74,.54-12.26,.92-15.86,1.16Z"/>
  <path class="cls-3" d="M1634.28,452.18c.36,1.44,.82,4.04,.25,7.21-.55,3.03-1.79,5.24-2.6,6.46,26.28-.17,52.56-.35,78.84-.52,.8-.16,2.38-.59,3.66-1.92,2.11-2.18,2.4-5.7,1.05-8.37-1.27-2.51-3.89-4.11-6.8-4.19-24.8,.44-49.59,.89-74.39,1.33Z"/>
  <path class="cls-3" d="M1631.11,469.79c-1.2,1.38-2.53,2.81-3.99,4.26-1.69,1.69-3.36,3.19-4.95,4.54,2.19,.58,5.66,1.64,9.63,3.58,6.18,3.01,7.95,5.38,16.36,11,9.89,6.6,13.16,7.14,15.95,6.74,.53-.08,5.62-.88,6.74-4.13,1.24-3.61-3.22-7.94-4.81-9.49-3.44-3.33-7.07-4.74-7.98-5.09-6.82-2.64-15.7-6.46-26.95-11.41Z"/>
  <path class="cls-6" d="M1633.59,467.87c11.27,3.87,20.01,7.97,26.13,11.14,8.37,4.34,12.55,6.51,15.95,8.94,6.35,4.53,9.04,7.82,14.99,8.94,.92,.17,8.77,1.56,11-2.06,2.08-3.38-1.94-9.17-3.3-11.14-8.11-11.68-24.1-14.57-32.59-15.4-10.73-.14-21.45-.27-32.18-.41Z"/>
  <path class="cls-6" d="M1614.19,273c5.38,2.83,10.76,5.66,16.14,8.5,1.25-1.06,8.32-6.89,18.69-5.95,10.48,.95,16.41,8.09,17.42,9.35,5.23,1.82,12.14,3.2,19.97,2.12,1.64-.23,22.94-3.44,28.47-18.69,.97-2.67,1.22-5.09,1.27-6.8-5.77,3.07-15.18,6.96-26.34,5.95-13.99-1.27-17.68-9.05-36.54-13.6-9.79-2.36-22.83-5.5-31.44,1.7-6.01,5.02-7.32,12.96-7.65,17.42Z"/>
  <path class="cls-6" d="M1633.5,285.77c1.23,2.68,2.52,6.1,3.39,10.17,1.29,6.02,1.21,11.24,.85,14.98,1.95-.24,4.73-.28,7.63,.85,6.66,2.6,8.46,9.24,11.87,14.7,6.82,10.92,20.32,17.47,31.37,18.09,11.82,.66,21.18-5.47,25.72-9.04-16.1-1.6-24.16-7.37-28.55-12.44-7.63-8.81-4.9-16.35-15.26-28.55-4.09-4.82-9.76-11.29-18.94-12.72-8.31-1.29-15.18,2.23-18.09,3.96Z"/>
  <path class="cls-1" d="M1608.35,271.92c-16.63-4.9-26.76-2.52-33.07,.85-8,4.28-10.16,10.32-21.2,13.57-4.9,1.44-9.07,1.6-12.15,5.37-2.22,2.72-4.02,7.48-1.98,11.02,2.28,3.96,8.36,4.66,12.44,3.39,6.76-2.11,8.94-9.92,11.59-14.7,4.48-8.09,15.5-16.87,44.37-19.5Z"/>
  <path class="cls-6" d="M1600.36,275.48c5.46-1.69,10.19-.98,12.58-.44,2.46,.67,8.95,2.79,14.35,9.05,5.37,6.23,6.53,12.92,6.84,15.45-2.03-1.97-7.87-7.1-17-8.39-6.58-.93-11.87,.57-14.57,1.55-.7-.95-3.42-4.4-8.39-5.52-3.95-.89-7.16,.18-8.39,.66,.93-1.75,5.25-9.47,14.57-12.36Z"/>
  <path class="cls-1" d="M1605.88,294.25c.18,2.16,.19,5.88-1.55,9.93-.73,1.72-1.61,3.11-2.43,4.19,1.4,.43,5.76,1.95,8.83,6.4,4.03,5.85,2.67,12.19,2.43,13.24,1.16-.16,15.9-2.35,20.97-14.35,1.63-3.85,1.76-7.52,1.55-10.15-1.76-2.05-5.86-6.26-12.58-8.61-7.86-2.75-14.64-1.34-17.22-.66Z"/>
  <path class="cls-6" d="M1613.38,331.77c-2.8,3.31-5.59,6.62-8.39,9.93,9.96-.13,20.19-.42,30.68-.88,10.2-.45,20.13-1.05,29.8-1.77-2.15-1.24-5.32-3.43-8.17-7.06-1.82-2.33-3-4.6-3.75-6.4-.54-1.41-2.53-6.12-7.73-9.05-3.9-2.2-7.63-2.28-9.27-2.21-1.63,2.64-4.22,6.16-8.17,9.49-5.7,4.82-11.5,6.96-15.01,7.95Z"/>
  <path class="cls-3" d="M1548.26,317.2c-.72-.16-3.95-.8-6.18,1.1-1.57,1.34-1.84,3.25-2.19,6.08-.25,1.98-.38,5,.43,8.71,3.68,.15,7.36,.29,11.04,.44,.85-3.66,1.07-6.7,1.1-8.83,.06-3.56-.4-4.97-1.35-5.98-.92-.98-2.08-1.36-2.84-1.52Z"/>
  <path class="cls-3" d="M1561.66,317.2c-.72-.16-3.95-.8-6.18,1.1-1.57,1.34-1.84,3.25-2.19,6.08-.25,1.98-.38,5,.43,8.71,3.68,.15,7.36,.29,11.04,.44,.85-3.66,1.07-6.7,1.1-8.83,.06-3.56-.4-4.97-1.35-5.98-.92-.98-2.08-1.36-2.84-1.52Z"/>
  <path class="cls-5" d="M1591.79,276.85c-11.25,1.12-16.86,5.08-19.91,8.66-3.22,3.78-4.23,7.87-10.04,15.06-2.56,3.17-4.94,5.55-6.58,7.1,3.35-.56,8.48-1.9,13.67-5.37,3.89-2.59,5.97-3.98,7.44-6.75,.8-1.5,1.43-3.44,3.46-5.37,1.2-1.14,2.42-1.83,3.29-2.25,2.89-3.69,5.77-7.39,8.66-11.08Z"/>
  <path class="cls-5" d="M1575.66,308.22c1.15,1.52,3.64,4.37,7.78,5.89,8.65,3.17,16.49-2.39,17.24-2.94,1.37,.51,3.79,1.62,5.89,3.99,3.02,3.43,4.2,8.17,3.36,12.4-1.33,6.68-7.5,11.08-13.25,11.98-8.5,1.34-16.36-8.37-18.92-11.35-4.61-5.37-6.93-11.06-12.19-11.56-1.64-.16-3.03,.24-3.91,.58,4.67-3,9.33-5.99,14-8.99Z"/>
  <path class="cls-1" d="M1570.82,323.99c.22,2,.45,6.69-2.52,9.67-2.5,2.5-6.04,2.54-13.04,2.52-3.39-.01-8.09-.25-13.67-1.26,1.16,4.11,2.95,6.31,4.42,7.57,.97,.83,3.77,2.94,3.78,2.94h0s48.95-1.89,48.99-1.89c-5.03-.63-8.8-2.18-11.14-3.36-5.23-2.64-8.48-6.02-10.93-8.62-2.71-2.87-4.62-5.58-5.89-7.57Z"/>
  <circle class="cls-3" cx="1589.52" cy="301.18" r="12.38"/>
  <circle class="cls-6" cx="1589.52" cy="301.18" r="8.88"/>
  <path class="cls-1" d="M1537.97,305.06c2.35,1.47,8.48,4.87,16.88,4.59,10.63-.35,17.58-6.35,19.4-8.04,.31,1.57,.61,3.14,.92,4.71-4.32,2.56-8.65,5.13-12.97,7.69-1.17,0-3.53,.18-5.97,1.61-1.46,.86-2.47,1.88-3.1,2.64-.69-.72-2.39-2.28-4.94-2.64-3.5-.5-7.16,1.45-9.3,4.94-.85-1-2.03-2.69-2.64-5.05-1.34-5.17,1.13-9.48,1.72-10.45Z"/>
</svg>