<?xml version="1.0" encoding="utf-8"?>
<!-- Generator: Adobe Illustrator 26.5.0, SVG Export Plug-In . SVG Version: 6.00 Build 0)  -->
<svg version="1.1" id="Layer_1" xmlns="http://www.w3.org/2000/svg" xmlns:xlink="http://www.w3.org/1999/xlink" x="0px" y="0px"
	 viewBox="0 0 2410 1361.9" style="enable-background:new 0 0 2410 1361.9;" xml:space="preserve">
<style type="text/css">
	.st0{fill:#FFFDEB;}
	.st1{fill:#FF7AAB;}
	.st2{fill:#BAB930;}
	.st3{fill:#F57E25;}
	.st4{fill:#F2728E;}
	.st5{fill:#73973F;}
	.st6{fill:#FF7B3A;}
</style>
<path class="st0" d="M-2433.8-9.1H-19.8v1366c-803.2,0-1606.4,0-2409.5,0c-1.5,0-2.9,0-4.4,0C-2433.8,901.6-2433.8,446.2-2433.8-9.1
	z"/>
<ellipse transform="matrix(0.7071 -0.7071 0.7071 0.7071 -507.2127 -90.0783)" class="st1" cx="-362.3" cy="567.2" rx="98.6" ry="98.6"/>
<path class="st2" d="M-397.3,675.7c7.4,8.7,15.5,19.8,22.9,33.4c13.9,25.7,19.6,49.8,22,66.8c0.2-14.9,2.5-40.8,16.7-68.6
	c8.3-16.4,18.3-28.5,26.4-36.9c-10.2,4.8-28.8,11.9-52.8,11.4C-376.6,681.5-388.7,678.5-397.3,675.7L-397.3,675.7z"/>
<path class="st2" d="M-229,619.7c-10.5-15-16.6-29.5-20.2-40.6c-0.5,11.3-3,31-14.7,52c-7.1,12.7-15.3,21.9-21.9,28.2
	c11.2-2.4,24.8-4.4,40.2-4.5c29.2-0.3,53.2,6.1,69.3,11.9C-189.4,659.5-211.1,645.2-229,619.7L-229,619.7z"/>
<path class="st2" d="M-254.2,519.6c5.6,13.4,7.7,25.6,8.5,34.7c5-10.3,11.9-22.2,21.4-34.4c17.9-23.1,37.7-37.9,52.3-47
	c-13.7,5.8-38.3,14.1-69.5,12.3c-18.3-1-33.5-5.2-44.4-9.3C-277.3,483.3-263.3,497.5-254.2,519.6L-254.2,519.6z"/>
<path class="st2" d="M-340.7,452.8c14.3,2.5,25.8,7.2,33.8,11.4c-6-9.8-12.3-21.9-17.6-36.5c-9.9-27.5-11.8-52.2-11.7-69.4
	c-2.4,14.7-8.7,39.9-26.8,65.3c-10.7,14.9-22.3,25.4-31.6,32.5C-383.7,453-364.3,448.8-340.7,452.8L-340.7,452.8z"/>
<path class="st2" d="M-469.6,522.8c4.6-10.3,14.1-27.8,32.6-43c11.2-9.2,22.3-14.8,30.7-18.2c-11.3-1.8-24.7-5-39.1-10.5
	c-27.3-10.4-47.3-25.1-60.2-36.4c9.6,11.4,24.6,32.6,32,62.9C-469.3,495.4-468.9,511.1-469.6,522.8L-469.6,522.8z"/>
<path class="st2" d="M-470.1,615.2c-4.4-10.4-10.6-29.3-9-53.2c0.9-14.5,4.5-26.4,7.7-34.9c-9.1,7-20.5,14.6-34.4,21.3
	c-26.3,12.8-50.6,17.3-67.8,18.9c14.9,0.9,40.6,4.4,67.8,19.8C-489.8,596.2-478.1,606.7-470.1,615.2L-470.1,615.2z"/>
<path class="st2" d="M-471.1,618.7c-0.7,11.4-2.5,25-6.6,39.9c-7.7,28.2-20.3,49.5-30.3,63.5c10.4-10.6,30-27.7,59.5-38
	c17.3-6,32.9-8,44.6-8.4c-10.7-3.6-29-11.3-46-28.2C-460.2,637.2-466.9,626.7-471.1,618.7L-471.1,618.7z"/>
<path class="st2" d="M-1731.3,1260.9c-4,7.1-7.9,14.1-11.9,21.2c-0.2,24.8-0.4,49.6-0.6,74.3c69.9,0.2,139.8,0.3,209.7,0.5
	c49.6-101.9,99.2-203.8,148.8-305.7c-15.5-15.2-31.1-30.4-46.6-45.6c-5.4,1.6-10.8,3.1-16.2,4.7
	C-1542.6,1093.9-1637,1177.4-1731.3,1260.9L-1731.3,1260.9z"/>
<path class="st0" d="M-1245.1,1359.5L-1245.1,1359.5c5.9,0.1,11.8,0.1,17.7,0c0,0,0,0,0-0.1
	C-1233.3,1359.5-1239.2,1359.5-1245.1,1359.5L-1245.1,1359.5z"/>
<path class="st0" d="M-1504.1,1359.7c-66.5,0.1-133,0.1-199.6,0.2h-29.5c0,0.2,0,0.4,0.1,0.5c90.2-0.2,180.4-0.3,270.6-0.5h-41.6
	L-1504.1,1359.7L-1504.1,1359.7z"/>
<path class="st0" d="M-1462.4,1359.7v0.3c56.1-0.1,112.2-0.2,168.3-0.3v-0.1C-1350.2,1359.6-1406.3,1359.6-1462.4,1359.7
	L-1462.4,1359.7z"/>
<path class="st3" d="M-926.5,1350.1c1.1,0,2.1,0,3.2,0c-0.1-0.1-0.2-0.1-0.2-0.2c-1,0-2,0-3,0C-926.5,1350-926.5,1350-926.5,1350.1
	L-926.5,1350.1z"/>
<path class="st2" d="M-2081.2,1359.9c65.8,0,131.6,0,197.3,0v-99.1h145.6v12.1c67.9-52.5,153.2-123.5,245-213.1
	c18.6-18.1,35.8-35.4,51.9-52c-2.2-2.2-4.3-4.3-6.5-6.4c-1.6,3.6-3.9,6.8-6.7,9.3c-11.7,10.1-26,0.8-45.3,6.2
	c-12.8,3.6-29.3,14.1-44.2,45.3c2.6-16.9,10.7-51.8,40.1-74.1c6.6-5,15.8-10.5,24.9-14.2c-1.2-1-2.5-2-3.8-2.9
	c-9.3,3.5-31.2,13.3-47.1,36.6c-9.4,13.8-13.2,27.2-15,35.9c-0.7-2.2-3.3-10-11.3-15.2c-6.4-4.2-12.7-4.5-15.3-4.5
	c-4.1-37.7,18.4-68,44.2-71.7c8.3-1.2,16,0.5,22.7,3.3c-131.8-86.8-268.7-52.6-399.2,25.2c7.3,11.6,9.6,16.7,10.2,23.1
	c1.5,14.6-6.1,26.6-10.7,32.7c-3.9-9.2-10.2-21.5-20.5-34.2c-1.6-2-3.2-3.8-4.8-5.6c-3,1.9-6,3.9-9.1,5.9c3.2,3.2,6,6.3,8.3,9.1
	c18.6,21.6,17.9,31.2,17.5,34.2c-2.3,17.7-24.2,32.3-34.2,27.8c-4.8-2.2-4.2-7.5-11.1-40.6c-1.3-6.1-2.4-11-3.3-15.1
	c-140.3,97.4-270.8,233.1-376.2,306c-0.7,8-0.8,17,0,26.7c0.3,3.2,0.6,6.3,1,9.3h225.8C-2101.4,1359.4-2091.4,1359.2-2081.2,1359.9z
	 M-1571.6,1114.9c-5.3,8.7-24.5,2.5-48.5,1.6c-19.5-0.8-47.4,1.7-81.9,16.7c24.8-20.6,47.9-32.2,64.4-39
	c21.8-8.9,40.3-16.2,54.1-7.2C-1573.6,1093.6-1567.2,1107.9-1571.6,1114.9L-1571.6,1114.9z M-1579.1,1028.1
	c14.4-4,30.6,6.8,32.7,18.5c2.3,12.7-11.5,30.2-34.6,31.3c16.5-7.3,21.1-24.3,15.9-32.4c-4.4-6.9-17.5-9.8-29.9-3.9
	C-1593.8,1039.4-1588.9,1030.9-1579.1,1028.1z M-1638.5,1056.9c6.7-1.1,16.3-2.3,26.1,2.6c9.7,4.8,14.8,13.3,17.2,18.3
	c-16.3,3.4-36.6,9.2-58.7,19.6c-16.7,7.9-30.7,16.5-41.8,24.5c0.6-1.6,6.5-16.4-2.1-30.3c-6.4-10.3-16.6-13.5-19.2-14.2
	C-1704.1,1073.1-1669.7,1061.9-1638.5,1056.9L-1638.5,1056.9z M-1715.5,1104.9c1.3-8.1-6.5-18.9-19.8-22.8c2.4-0.9,11.7-4,20.8,0.5
	c13.4,6.6,18.4,25.4,12.2,35.5c-6.7,11-28.7,15-46.7,0.4C-1731.8,1124.1-1717,1114.4-1715.5,1104.9L-1715.5,1104.9z M-1773.5,1165
	c-6.6,0.6-9.6-6.8-28.6-27c-2.5-2.6-15.1-16-25.4-24.7c-9.4-7.8-24.2-17.7-46.9-24.7c45-1.5,75.1,9.6,91.5,17.5
	c17.2,8.3,24,15.3,26.2,23.9C-1752.9,1145.1-1763.4,1164.1-1773.5,1165L-1773.5,1165z M-1843.2,1028.1c26.1,11.4,45.2,23.9,58,33.3
	c15.8,11.7,24.3,20.5,25.8,32.6c0.8,6.7-0.7,12.4-2.2,16.1c-8.2-6.2-20.5-14.2-36.9-20.1c-18.5-6.7-34.9-8.1-45.8-8.2
	c2.6-4.1,6.2-11.1,7.5-20.4C-1834.4,1045.2-1840.7,1032.6-1843.2,1028.1L-1843.2,1028.1z M-1871.1,1028.6c13.8,0,25,11.3,25,25.3
	s-11.2,25.3-25,25.3c-13.8,0-25-11.3-25-25.3S-1884.9,1028.6-1871.1,1028.6z"/>
<path class="st3" d="M-2110.7,1359.9h29.6C-2091.4,1359.2-2101.4,1359.4-2110.7,1359.9z"/>
<path class="st3" d="M-1343.6,1112.5c-0.6-0.6-1.2-1.1-1.8-1.7v1.7H-1343.6z"/>
<path class="st2" d="M-1599.2,1307c-15.2-0.2-27.7-0.7-37.6-1.6c-15.6-1.3-71.3-7.3-90.3,21.6c-6.4,9.7-7.1,21-6.3,29.9h150
	c-17.8-0.6-35.7-1.2-53.5-1.8C-1624.4,1339-1611.8,1323-1599.2,1307L-1599.2,1307z"/>
<polygon class="st2" points="-1268.1,893.3 -1221.8,893.3 -1221.8,925.5 -1190.3,925.5 -1190.3,873.4 -1294.1,873.4 -1294.1,925.5 
	-1297.4,925.5 -1297.4,925.5 -1268.1,925.5 "/>
<rect x="-1305.5" y="873.4" width="11.4" height="52.1"/>
<rect x="-1190.3" y="873.4" width="12.2" height="52.1"/>
<rect x="-1315.1" y="943.9" class="st4" width="8.5" height="78.2"/>
<rect x="-1306.7" y="943.9" class="st4" width="8.5" height="78.2"/>
<rect x="-1173.6" y="943.9" class="st4" width="8.3" height="78.2"/>
<rect x="-1182" y="943.9" class="st4" width="8.3" height="78.2"/>
<rect x="-1268.7" y="987.3" class="st4" width="59.4" height="34.8"/>
<polygon class="st0" points="-1326.8,1067.6 -1326.8,1022.4 -1364.3,1022.4 -1364.3,1067.8 -1337.9,1067.8 -1337.9,1067.6 "/>
<polygon points="-1173.6,1022.4 -1173.6,1023.3 -1298.2,1023.3 -1298.2,1023.3 -1315.1,1023.3 -1315.1,1022.1 -1315.4,1022.1 
	-1315.4,1067.5 -1165.1,1067.5 -1165.1,1022.1 -1165.3,1022.1 -1165.3,1022.4 "/>
<polygon class="st2" points="-1182,1022.1 -1209.3,1022.1 -1209.3,1023.1 -1268.7,1023.1 -1268.7,1022.1 -1298.2,1022.1 
	-1298.2,1023.3 -1173.6,1023.3 -1173.6,1022.4 -1182,1022.4 "/>
<polygon class="st2" points="-1298.2,1023.3 -1298.2,1023.3 -1306.7,1023.3 -1306.7,1022.1 -1315.1,1022.1 -1315.1,1023.3 "/>
<rect x="-1306.7" y="1022.1" class="st2" width="8.5" height="1.2"/>
<rect x="-1173.6" y="1022.1" class="st2" width="8.3" height="0.3"/>
<rect x="-1182" y="1022.1" class="st2" width="8.3" height="0.3"/>
<rect x="-1268.7" y="1022.1" class="st4" width="59.4" height="1"/>
<polygon class="st2" points="-1206.9,1113 -1196.3,1113 -1196.3,1112.9 -1187.6,1112.9 -1187.6,1067.6 -1326.8,1067.6 
	-1326.8,1067.8 -1337.9,1067.8 -1337.9,1112.5 -1206.9,1112.5 "/>
<rect x="-1337.9" y="1067.6" class="st2" width="11.1" height="0.2"/>
<polygon class="st4" points="-1135.4,1068.2 -1118.1,1068.2 -1118.1,1022.8 -1153.1,1022.8 -1153.1,1067.7 -1135.4,1067.7 "/>
<path class="st0" d="M-1345.3,1110.9v-43h-40.8C-1372.9,1082.6-1359.5,1097.1-1345.3,1110.9z"/>
<path class="st1" d="M-1364.6,1112.7h7.4v-0.1h11.9v-1.7c-14.2-13.7-27.5-28.3-40.8-43h-0.9v44.7L-1364.6,1112.7L-1364.6,1112.7
	L-1364.6,1112.7z"/>
<polygon class="st0" points="-1154.7,1113.4 -1135.4,1113.4 -1135.4,1068.2 -1153.1,1068.2 -1153.1,1067.7 -1177,1067.7 
	-1177,1112.9 -1154.7,1112.9 "/>
<rect x="-1153.1" y="1067.7" class="st4" width="17.7" height="0.5"/>
<path d="M-1289.5,1156h67.4v0.1h15.2V1113h-131v-0.5h-5.7c6.4,6.1,12.9,12.1,19.6,17.8C-1312.3,1140.2-1300.9,1148.6-1289.5,1156
	L-1289.5,1156z"/>
<path d="M-1345.3,1112.7h-11.9v43.4h67.7c-11.3-7.4-22.7-15.8-34.4-25.7c-6.7-5.7-13.2-11.7-19.6-17.8h-1.8V1112.7L-1345.3,1112.7z"
	/>
<rect x="-1337.9" y="1112.5" class="st2" width="130.9" height="0.5"/>
<rect x="-1357.2" y="1112.5" class="st2" width="11.9" height="0.1"/>
<polygon class="st1" points="-1364.6,1156 -1364.6,1112.7 -1387,1112.7 -1387,1112.6 -1406.3,1112.6 -1406.3,1156.6 -1372.4,1156.6 
	-1372.4,1156 "/>
<rect x="-1387" y="1112.6" class="st4" width="22.3" height="0.1"/>
<polygon class="st0" points="-1196.3,1113 -1196.3,1156.2 -1169.9,1156.2 -1169.9,1156.6 -1154.7,1156.6 -1154.7,1113.4 
	-1177,1113.4 -1177,1112.9 -1187.6,1112.9 -1187.6,1113 "/>
<rect x="-1196.3" y="1112.9" class="st4" width="8.7" height="0.2"/>
<rect x="-1177" y="1112.9" class="st0" width="22.3" height="0.6"/>
<path class="st2" d="M-1289.3,1156.1c22.2,14.5,44.2,24.9,67.2,34.5v-34.5H-1289.3z"/>
<path class="st2" d="M-1248,1196.6h10.6v-0.1h15.3v-5.9c-23-9.6-44.9-20-67.2-34.5h-67.9v-0.1h-7.4v0.6h-7.7v39.9h124.4V1196.6z"/>
<path class="st2" d="M-1222.1,1156h-67.4c0.1,0,0.1,0.1,0.2,0.1h67.2V1156z"/>
<path class="st2" d="M-1357.2,1156v0.1h67.9c-0.1-0.1-0.1-0.1-0.2-0.1H-1357.2L-1357.2,1156z"/>
<rect x="-1372.4" y="1156" class="st2" width="7.7" height="0.6"/>
<polygon class="st1" points="-1405.7,1197.1 -1398.3,1197.1 -1398.3,1196.5 -1379.8,1196.5 -1379.8,1156.8 -1421.5,1156.8 
	-1421.5,1196.6 -1405.7,1196.6 "/>
<path class="st0" d="M-1196.3,1156.2h-15.2v38.7c1.3,0.5,2.6,1,3.9,1.6h11.9v0.5h25.9v-40.5h-26.5V1156.2L-1196.3,1156.2z"/>
<path class="st0" d="M-1207.6,1196.5c-1.3-0.5-2.6-1-3.9-1.6v1.6H-1207.6z"/>
<rect x="-1196.3" y="1156.2" class="st0" width="26.5" height="0.3"/>
<polygon points="-1398.3,1197.1 -1398.3,1238.2 -1263.7,1238.2 -1263.7,1238.3 -1253.1,1238.3 -1253.1,1238.1 -1248,1238.1 
	-1248,1196.6 -1372.4,1196.6 -1372.4,1196.5 -1379.8,1196.5 -1379.8,1197.1 "/>
<rect x="-1372.4" y="1196.5" class="st2" width="124.4" height="0.2"/>
<rect x="-1398.3" y="1196.5" class="st2" width="18.4" height="0.6"/>
<polygon class="st1" points="-1421.4,1238.7 -1414,1238.7 -1414,1238.2 -1405.7,1238.2 -1405.7,1197.1 -1421.5,1197.1 
	-1421.5,1196.6 -1447.4,1196.6 -1447.4,1238.7 -1421.4,1238.7 "/>
<rect x="-1421.5" y="1196.6" class="st4" width="15.8" height="0.5"/>
<path class="st1" d="M-1195.7,1201.2v-4.1h-10.5C-1202.8,1198.4-1199.3,1199.8-1195.7,1201.2z"/>
<path class="st1" d="M-1211.5,1197.1v-0.5h-10.6v0.1h-15.3v41.5h25.9v0.5h15.8v-37.5c-3.5-1.4-7-2.8-10.5-4.1H-1211.5z"/>
<rect x="-1237.4" y="1196.5" class="st4" width="15.3" height="0.1"/>
<path class="st4" d="M-1207.6,1196.5c0.5,0.2,0.9,0.4,1.4,0.5h10.5v-0.5H-1207.6z"/>
<path class="st4" d="M-1211.5,1197.1h5.3c-0.5-0.2-0.9-0.4-1.4-0.5h-3.9V1197.1z"/>
<polygon class="st2" points="-1284,1279 -1284,1279.3 -1273.4,1279.3 -1273.4,1279.2 -1263.7,1279.2 -1263.7,1238.3 -1398.3,1238.3 
	-1398.3,1238.2 -1405.7,1238.2 -1405.7,1238.7 -1414,1238.7 -1414,1279 "/>
<rect x="-1398.3" y="1238.2" class="st2" width="134.5" height="0"/>
<rect x="-1414" y="1238.2" class="st2" width="8.3" height="0.5"/>
<polygon class="st1" points="-1441.7,1279.7 -1434.3,1279.7 -1434.3,1279 -1421.4,1279 -1421.4,1238.7 -1447.4,1238.7 
	-1447.4,1238.7 -1463.1,1238.7 -1463.1,1279.2 -1441.7,1279.2 "/>
<rect x="-1447.4" y="1238.7" class="st4" width="25.9" height="0"/>
<polygon class="st1" points="-1231.7,1279.2 -1231.7,1279.7 -1211.5,1279.7 -1211.5,1238.7 -1237.4,1238.7 -1237.4,1238.1 
	-1248,1238.1 -1248,1238.3 -1253.1,1238.3 -1253.1,1279.2 "/>
<rect x="-1253.1" y="1238.1" class="st4" width="5.1" height="0.1"/>
<rect x="-1237.4" y="1238.1" class="st4" width="25.9" height="0.5"/>
<path d="M-1284,1294.7v-15.4h-130v-0.3h-7.4v0.7h-12.8v23.1C-1390.2,1300.8-1340.1,1298.1-1284,1294.7z"/>
<path d="M-1434.3,1302.8v15.9h129.6v1.3h10.6l10.1,0v-25.3C-1340.1,1298.1-1390.2,1300.8-1434.3,1302.8L-1434.3,1302.8z"/>
<rect x="-1414" y="1279" class="st2" width="130" height="0.3"/>
<rect x="-1434.3" y="1279" class="st2" width="12.8" height="0.7"/>
<path class="st1" d="M-1441.7,1279.7h-21.4v-0.6h-20.3v25.7c13.2-0.5,27.1-1.1,41.7-1.7V1279.7z"/>
<path class="st1" d="M-1462.4,1318.4v0.3h20.7v-15.6c-14.6,0.7-28.5,1.2-41.7,1.7v13.6H-1462.4z"/>
<rect x="-1463.1" y="1279.2" class="st4" width="21.4" height="0.6"/>
<path class="st1" d="M-1253.1,1279.2h-10.6v0.1h-9.7v14.7c13.6-0.8,27.4-1.7,41.7-2.6v-11.7h-21.4V1279.2L-1253.1,1279.2z"/>
<path class="st1" d="M-1273.4,1320h28.3v0.4h13.3v-29c-14.2,0.9-28.1,1.8-41.7,2.6V1320z"/>
<rect x="-1273.4" y="1279.2" class="st4" width="9.7" height="0.1"/>
<rect x="-1253.1" y="1279.2" class="st4" width="21.4" height="0.5"/>
<path class="st2" d="M-1455,1359.6h150.3v-2.6H-1455V1359.6z"/>
<path class="st2" d="M-1434.3,1320v-1.3h-20.7v38.2h150.3V1320H-1434.3z"/>
<rect x="-1434.3" y="1318.7" class="st2" width="129.6" height="1.3"/>
<path class="st4" d="M-1462.4,1360L-1462.4,1360C-1462.4,1360-1462.5,1360-1462.4,1360L-1462.4,1360z"/>
<path class="st4" d="M-1504.1,1359.7v0.2h41.6c0,0,0,0,0.1,0v-0.3C-1476.3,1359.7-1490.2,1359.7-1504.1,1359.7z"/>
<path class="st4" d="M-1504.1,1356.9v2.8c13.9,0,27.8,0,41.7,0v-2.8L-1504.1,1356.9L-1504.1,1356.9z"/>
<path class="st1" d="M-1462.4,1318.7h-21v-0.3h-20.7v38.5h41.7V1318.7z"/>
<rect x="-1483.4" y="1318.4" class="st4" width="21" height="0.3"/>
<path class="st1" d="M-1273.4,1320.5v-0.4h-10.6l-10.1,0v36.9h49v-36.5L-1273.4,1320.5L-1273.4,1320.5z"/>
<rect x="-1294.1" y="1320" class="st4" width="10.1" height="0"/>
<rect x="-1273.4" y="1320" class="st4" width="28.3" height="0.4"/>
<path class="st2" d="M-1021.4,1277.2c0-0.1,0-0.1,0-0.2c0,0.1-0.1,0.2-0.1,0.2C-1021.5,1277.2-1021.5,1277.2-1021.4,1277.2z"/>
<path class="st2" d="M-1049.2,1269.8c3.5,2.1,7.1,4.3,10.7,6.5c2.3-6.9,3.6-13.2,7.2-24.7c0.8-2.6,1.8-5.6,2.8-8.8
	c-1.4-6.9-2.9-13.8-4.3-20.7c-3.1,13.7-8.1,25.8-15.2,44.5C-1048.4,1267.7-1048.8,1268.7-1049.2,1269.8L-1049.2,1269.8z"/>
<path class="st2" d="M-1073.1,1239.3c-4,3.2-7.9,6.7-11.7,10.5c3.5,1.8,7.1,3.8,10.7,5.8c0.5-0.5,1.1-1,1.6-1.5
	c-0.2,0.6-0.5,1.3-0.7,2c1.9,1.1,3.9,2.2,5.9,3.3c0.2-0.8,0.4-1.6,0.6-2.3c2.4-2.4,5.8-6.3,8.9-11.8c1.6-2.9,6.3-11.7,8.9-35.4
	c1.9-17.1,1-25.5,6.5-28.5c0.3-0.1,0.6-0.2,0.9-0.3c-4.3-20.8-8.7-41.6-13-62.3c3-0.9,6.1-1.7,9.2-2.5
	c-8.7-17.9-17.5-35.8-26.2-53.6c-11.4,0.3-22.8,0.6-34.2,0.9c-20.4,49.7-40.8,99.4-61.3,149.1c23.3,9.3,48.4,19.9,76.2,34.2
	C-1084.1,1243.1-1077.9,1240.8-1073.1,1239.3L-1073.1,1239.3z"/>
<path class="st2" d="M-1041.5,1180.9c2.3-0.9,5.1-0.9,7.3,0.3c2.1,1.2,6.7,5.4,3.7,28.1c-0.6,4.6-1.4,8.8-2.3,12.9
	c1.4,6.9,2.9,13.8,4.3,20.7c3.7-11.4,8.3-24.2,11-23.8c3.1,0.5,3.2,17.9,1.6,32.1c-1.1,9.9-3,17.4-5.6,25.7c0,0.1,0,0.1,0,0.2
	c0,0-0.1,0-0.1,0c-0.8,2.6-1.7,5.4-2.6,8.3c4.7,3.1,9.4,6.1,13.8,9.1c2.4-5.6,4.5-9.4,5.8-9.2c1.9,0.4,1.8,8.8,1.5,14.1
	c30.9,21,56,40.4,74.5,55.4c-38.9-79.6-77.8-159.3-116.7-238.9c-3.1,0.8-6.2,1.7-9.2,2.5
	C-1050.2,1139.4-1045.8,1160.2-1041.5,1180.9L-1041.5,1180.9z"/>
<path class="st2" d="M-1076.7,1281.1c3.1-0.2,6.2-0.4,9.4-0.7c-0.3-1.2-0.5-2.3-0.7-3.6c-1.1-7.3-0.3-13.4,0.7-17.6
	c-2-1.1-3.9-2.2-5.9-3.3c-1.4,4-2.9,9.6-3.4,16.2C-1076.9,1275.3-1076.9,1278.2-1076.7,1281.1L-1076.7,1281.1z"/>
<path class="st2" d="M-1110.1,1283.4c5.1-0.3,10.2-0.7,15.4-1.1c4-8.1,10.3-17.3,20.5-26.9c-3.6-2-7.2-3.9-10.7-5.8
	C-1094.5,1259.2-1103.3,1270.4-1110.1,1283.4L-1110.1,1283.4z"/>
<path class="st2" d="M-1038.6,1276.3c-3.6-2.2-7.2-4.4-10.7-6.5c-1.1,2.8-2.2,6-3.6,9.6c4.5-0.3,9-0.6,13.5-1
	C-1039,1277.8-1038.8,1277.1-1038.6,1276.3L-1038.6,1276.3z"/>
<path class="st2" d="M-1129.3,1284.7c1.6-3.2,3.4-6.4,5.6-9.6c9.5-13.8,21.9-22.7,32.9-28.5c-27.8-14.3-52.9-24.9-76.2-34.2
	c-10.5,25.6-21.1,51.3-31.6,76.9C-1176.2,1287.9-1153.1,1286.3-1129.3,1284.7L-1129.3,1284.7z"/>
<path class="st2" d="M-1129.3,1284.7c-23.9,1.6-47,3.2-69.3,4.6c-9.3,22.5-18.5,45.1-27.8,67.6h85.3c0.2-4.3,0.4-9,0.9-14.1
	C-1137.9,1315.9-1136.4,1299.5-1129.3,1284.7L-1129.3,1284.7z"/>
<path class="st2" d="M-1003,1299.5c-0.1,2.1-0.2,3.7-0.3,4.2c-1.6,18.9-7,31.5-13.4,48.8c-0.5,1.3-1,2.8-1.6,4.4h90.7
	c-0.3-0.7-0.6-1.3-0.9-2C-947,1339.9-972.1,1320.6-1003,1299.5L-1003,1299.5z"/>
<path class="st2" d="M-1039.9,1342c-2.6-5.6-5.2-11.7-7.7-18.3c-2.4-6.2-4.4-12.2-6.1-17.9c3.2-4.6,7.7-11.6,11.8-20.8
	c1.1-2.4,1.9-4.5,2.7-6.5c-4.5,0.3-9,0.6-13.5,1c-2,5.4-4.2,11.7-6.7,18.6c-2.3-3.2-6-9.2-7.9-17.6c-3.1,0.2-6.2,0.4-9.4,0.7
	c0.8,12.1,5,22.3,9.5,32.9c3,7.1,7.8,16.8,15.3,27.7c1.2,5.2,1.8,10.3,2,15.3h15.2c-0.3-0.9-0.7-1.9-1.1-2.7c1.6-2.5,4-6.2,6.5-11
	c5.6-10.6,7.3-17.3,11.8-29.7c2.4-6.7,5-13.6,7.2-18.9c-4.5-3-9.1-6-13.8-9.1c-1.6,4.8-3.3,10-5.2,16.2
	C-1032.1,1310.9-1036.1,1324.7-1039.9,1342L-1039.9,1342z"/>
<path class="st2" d="M-1099.6,1295.1c1.1-3.8,2.6-8.1,4.9-12.8c-5.2,0.4-10.3,0.7-15.4,1.1c-2.5,4.8-4.7,9.9-6.6,15.3
	c-2.2,6.4-3.1,11-5.2,58.2h22.7C-1099.9,1330.2-1105.2,1315.4-1099.6,1295.1L-1099.6,1295.1z"/>
<path class="st1" d="M-1073.1,1239.3c-4.8,1.6-11,3.9-17.6,7.4c2,1,3.9,2,5.9,3.1C-1081,1246-1077.1,1242.5-1073.1,1239.3
	L-1073.1,1239.3z"/>
<path class="st1" d="M-1084.8,1249.7c-2-1-4-2.1-5.9-3.1c-11.1,5.8-23.4,14.7-32.9,28.5c-2.2,3.2-4,6.3-5.6,9.6
	c6.3-0.4,12.7-0.9,19.2-1.3C-1103.3,1270.4-1094.5,1259.2-1084.8,1249.7L-1084.8,1249.7z"/>
<path class="st1" d="M-1116.6,1298.7c1.8-5.4,4.1-10.4,6.6-15.3c-6.4,0.4-12.8,0.9-19.2,1.3c-7.1,14.7-8.7,31.2-10.9,58.1
	c-0.4,5.1-0.7,9.8-0.9,14.1h19.2C-1119.8,1309.7-1118.9,1305.1-1116.6,1298.7L-1116.6,1298.7z"/>
<path class="st2" d="M-1072.5,1254c-0.6,0.5-1.1,1-1.6,1.5c0.3,0.2,0.6,0.3,0.9,0.5C-1073,1255.3-1072.7,1254.6-1072.5,1254
	L-1072.5,1254z"/>
<path class="st0" d="M-1094.7,1282.3c5.9-0.4,11.9-0.8,18-1.2c-0.2-2.8-0.2-5.8,0.1-8.9c0.5-6.7,2-12.2,3.4-16.2
	c-0.3-0.2-0.6-0.3-0.9-0.5C-1084.3,1265-1090.7,1274.2-1094.7,1282.3L-1094.7,1282.3z"/>
<path class="st0" d="M-1051.9,1341.6c-7.5-10.8-12.3-20.6-15.3-27.7c-4.5-10.6-8.7-20.8-9.5-32.9c-6,0.4-12,0.8-18,1.2
	c-2.3,4.7-3.9,9-4.9,12.8c-5.6,20.2-0.3,35,0.5,61.8h11.6c0.1-0.6,0.1-1.2,0.3-1.7c1.7-7.2,8.8-11.6,15.8-10
	c5.6,1.3,9.5,6.2,10,11.7h11.5C-1050.1,1351.9-1050.7,1346.8-1051.9,1341.6L-1051.9,1341.6z M-1075.4,1325.7
	c-1.2,4.9-6,7.9-10.8,6.8s-7.8-6-6.6-10.9s6-7.9,10.8-6.8S-1074.2,1320.8-1075.4,1325.7z"/>
<g>
	<path d="M-1004.5,1285.4c-1.3-0.3-3.4,3.5-5.8,9.2c2.5,1.7,4.9,3.3,7.3,4.9C-1002.8,1294.2-1002.6,1285.8-1004.5,1285.4
		L-1004.5,1285.4z"/>
	<path d="M-1017.5,1313.5c-4.5,12.4-6.2,19.1-11.8,29.7c-2.5,4.8-4.9,8.5-6.5,11c0.3,0.9,0.7,1.8,1.1,2.7h16.5
		c0.6-1.5,1.1-3,1.6-4.4c6.4-17.4,11.9-30,13.4-48.8c0-0.5,0.2-2.1,0.3-4.2c-2.4-1.6-4.8-3.3-7.3-4.9
		C-1012.6,1299.9-1015.1,1306.8-1017.5,1313.5L-1017.5,1313.5z"/>
</g>
<g>
	<path d="M-1038.6,1276.3c0.2,0.2,0.5,0.3,0.7,0.4c0.8,0.5,1.5,0.9,2.2,1.4c4.7-0.3,9.3-0.7,14.1-1c0-0.1,0.1-0.2,0.1-0.2
		c-2.4-11.4-4.7-22.7-7.1-34.1c-1,3.1-2,6.2-2.8,8.8C-1035,1263.2-1036.2,1269.4-1038.6,1276.3L-1038.6,1276.3z"/>
	<path d="M-1024.2,1285.5c0.9-2.9,1.8-5.7,2.6-8.3c-4.7,0.3-9.4,0.7-14.1,1C-1031.7,1280.6-1027.9,1283.1-1024.2,1285.5z"/>
	<path d="M-1015.9,1251.2c1.6-14.2,1.4-31.6-1.6-32.1c-2.7-0.4-7.3,12.4-11,23.8c2.4,11.4,4.7,22.7,7.1,34.1
		C-1018.9,1268.6-1017,1261.2-1015.9,1251.2L-1015.9,1251.2z"/>
	<path d="M-1035.6,1278.2c-0.8-0.5-1.5-0.9-2.2-1.4c-0.2-0.2-0.5-0.3-0.7-0.4c-0.2,0.7-0.5,1.4-0.7,2.1
		C-1038.1,1278.4-1036.8,1278.3-1035.6,1278.2z"/>
	<path d="M-1039.3,1278.5c-0.7,2-1.6,4.2-2.7,6.5c-4.1,9.2-8.6,16.2-11.8,20.8c1.7,5.7,3.7,11.7,6.1,17.9c2.5,6.6,5.1,12.7,7.7,18.3
		c3.8-17.3,7.8-31.1,10.6-40.3c1.9-6.2,3.6-11.4,5.2-16.2c-3.7-2.4-7.5-4.8-11.4-7.3C-1036.8,1278.3-1038.1,1278.4-1039.3,1278.5
		L-1039.3,1278.5z"/>
</g>
<path d="M-1030.6,1209.3c3-22.7-1.5-26.9-3.7-28.1c-2.1-1.2-5-1.2-7.3-0.3c2.9,13.8,5.7,27.5,8.6,41.3
	C-1032,1218.1-1031.2,1213.9-1030.6,1209.3L-1030.6,1209.3z"/>
<g>
	<path d="M-1048.1,1266.7c7-18.7,12-30.8,15.2-44.5c-2.9-13.8-5.7-27.5-8.6-41.3c-0.3,0.1-0.6,0.2-0.9,0.3c-5.6,3-4.6,11.4-6.5,28.5
		c-2.7,23.7-7.3,32.5-8.9,35.4c-3.1,5.5-6.6,9.4-8.9,11.8c-0.2,0.7-0.4,1.5-0.6,2.3c5.9,3.3,11.9,6.8,18.1,10.5
		C-1048.8,1268.7-1048.4,1267.7-1048.1,1266.7L-1048.1,1266.7z"/>
	<path d="M-1068,1276.9c0.2,1.2,0.4,2.4,0.7,3.6c4.8-0.3,9.7-0.7,14.6-1c1.3-3.6,2.5-6.8,3.6-9.6c-6.2-3.7-12.2-7.2-18.1-10.5
		C-1068.3,1263.5-1069.1,1269.6-1068,1276.9L-1068,1276.9z"/>
	<path d="M-1052.8,1279.4c-4.9,0.3-9.7,0.7-14.6,1c1.9,8.4,5.6,14.4,7.9,17.6C-1057,1291.1-1054.8,1284.8-1052.8,1279.4
		L-1052.8,1279.4z"/>
</g>
<path class="st2" d="M-1509.2,1305.8c39.3-80.6,78.7-161.2,118-241.8c-5.7-0.1-11.5-0.2-17.2-0.2
	c-63.6,81.1-127.2,162.1-190.9,243.2C-1575.5,1307.3-1545.4,1306.9-1509.2,1305.8L-1509.2,1305.8z"/>
<path class="st2" d="M-1599.2,1307c-13.1,16.6-26.2,33.3-39.4,49.9c2.2,0,53.5,0,55.2,0c2,0,45.7,0,47.6,0h1.7
	c8.3-17.1,16.7-34.1,25-51.2C-1545.4,1306.9-1575.5,1307.3-1599.2,1307L-1599.2,1307z"/>
<path class="st1" d="M-1071.4,1345.2c-7-1.7-14.1,2.8-15.8,10c-0.1,0.6-0.2,1.2-0.3,1.7h26.1
	C-1061.9,1351.4-1065.8,1346.5-1071.4,1345.2L-1071.4,1345.2z"/>
<path class="st1" d="M-1082,1314.8c-4.8-1.1-9.6,1.9-10.8,6.8s1.8,9.8,6.6,10.9s9.6-1.9,10.8-6.8S-1077.2,1315.9-1082,1314.8z"/>
<polygon points="-1185.2,930.6 -1185.2,926.4 -1190.3,926.4 -1190.3,925.5 -1221.8,925.5 -1221.8,928.2 -1268.1,928.2 
	-1268.1,925.5 -1297.4,925.5 -1297.4,930.6 "/>
<rect x="-1185.2" y="925.5" width="7.1" height="0.8"/>
<rect x="-1190.3" y="925.5" width="5.1" height="0.8"/>
<g>
	<polygon points="-1185.2,926.4 -1185.2,930.6 -1297.4,930.6 -1297.4,925.5 -1331.6,925.5 -1331.6,943.9 -1315.1,943.9 
		-1315.1,940.9 -1306.7,940.9 -1306.7,934.7 -1173.6,934.7 -1173.6,939.1 -1165.3,939.1 -1165.3,943.9 -1136.7,943.9 -1136.7,925.5 
		-1178.1,925.5 -1178.1,926.4 	"/>
	<rect x="-1268.1" y="925.5" width="46.3" height="2.7"/>
	<polygon points="-1298.2,943.9 -1182,943.9 -1182,939.1 -1173.6,939.1 -1173.6,934.7 -1306.7,934.7 -1306.7,940.9 -1298.2,940.9 	
		"/>
	<rect x="-1315.1" y="940.9" width="8.5" height="3"/>
	<rect x="-1306.7" y="940.9" width="8.5" height="3"/>
	<rect x="-1173.6" y="939.1" width="8.3" height="4.8"/>
	<rect x="-1182" y="939.1" width="8.3" height="4.8"/>
</g>
<path class="st4" d="M-1331.2,856.7v16.7h12.4c5-5.8,9.8-11.3,14.5-16.7H-1331.2L-1331.2,856.7z"/>
<path d="M-1305.5,868.7h8.1v-6.4h112.2v9h7.1v2.1h28.3v-16.7h-154.5c-4.7,5.4-9.5,11-14.5,16.7h13.3L-1305.5,868.7L-1305.5,868.7z"
	/>
<polygon points="-1294.1,873.4 -1190.3,873.4 -1190.3,871.3 -1185.2,871.3 -1185.2,862.4 -1297.4,862.4 -1297.4,868.7 
	-1294.1,868.7 "/>
<rect x="-1305.5" y="868.7" width="8.1" height="4.7"/>
<rect x="-1297.4" y="868.7" width="3.2" height="4.7"/>
<rect x="-1185.2" y="871.3" width="7.1" height="2.1"/>
<rect x="-1190.3" y="871.3" width="5.1" height="2.1"/>
<path d="M-1800.2,556.2c0.8-9,34.1-15.3,61.7-13.4c16.2,1.1,29.2,5,38,8.2c-0.6-9.8-3.2-24.8-14.4-35c-9.4-8.6-20.1-9.2-48.3-12.3
	c-12.7-1.4-32.1-3.6-56.4-6.9c0.9,13.6,0.8,30.2-1.9,49c-1.8,12.8-4.6,24.1-7.5,33.9c15.4-3.4,30.8-6.9,46.3-10.3
	C-1797.5,563.4-1800.4,559.1-1800.2,556.2L-1800.2,556.2z"/>
<path d="M-1510.3,678.5c23.1,9.6,49.9,34.6,67.3,101.5c7.3-44.6-2.4-67.3-13.8-79.9c-18.2-20-58.8-34.2-70.9-55.5
	c-1.5-2.7-4.9-8.7-4.1-16.5c0.8-8.1,5.6-13.8,8.2-16.5c-17.8-14-38.5-15-47.3-6.2c-10.4,10.5-2.7,33.3,7.2,46.3
	C-1549.2,670.8-1528.4,671-1510.3,678.5L-1510.3,678.5z"/>
<path d="M-1874.4,635.4c5-0.9,25.1-4.4,33.9-21.4c2.8-5.4,3.7-10.5,3.9-14c2.5-5.9,5.1-11.8,7.6-17.7c-1.4,0.9-2.8,1.8-4.2,2.7
	c-1.9,2.2-21,24.4-49.3,21.6c-6.4-0.7-12-2.5-16.5-4.6v33C-1889.4,638-1879.5,636.2-1874.4,635.4L-1874.4,635.4z"/>
<path d="M-2028,906.6c5.1,10.6,25.9,15.5,35.8,7.9c8.9-6.8,8-22.9,4.4-41.1h-29C-2023.9,888.6-2032.3,897.8-2028,906.6L-2028,906.6z
	"/>
<path class="st1" d="M-1981.1,970.2c4,6.1,9.6,15.9,14.3,28.6c1.3,3.5,2.9,8.3,5.4,19.1c7.6-5.3,15.2-10.4,22.8-15.4
	C-1948.4,992.5-1962.2,980.8-1981.1,970.2L-1981.1,970.2z"/>
<path class="st0" d="M-1946.9,1073.6c10,4.5,31.9-10.2,34.2-27.8c0.4-3,1.1-12.6-17.5-34.2c-2.4-2.8-5.2-5.8-8.4-9.1
	c-7.6,5-15.2,10.2-22.8,15.4c1,4.1,2.1,9,3.3,15.1C-1951.1,1066.1-1951.7,1071.4-1946.9,1073.6L-1946.9,1073.6z"/>
<path class="st0" d="M-1783.1,1106.2c-16.3-7.9-46.5-19-91.5-17.5c22.7,7,37.5,16.9,46.9,24.7c10.4,8.6,23,22,25.4,24.7
	c19,20.3,22,27.6,28.6,27c10.2-0.9,20.6-19.9,16.7-35C-1759.1,1121.5-1765.8,1114.5-1783.1,1106.2L-1783.1,1106.2z"/>
<path class="st0" d="M-1583.5,1087.1c-13.8-9-32.3-1.7-54.1,7.2c-16.5,6.7-39.6,18.4-64.4,39c34.5-15,62.4-17.5,81.9-16.7
	c24,1,43.2,7.1,48.5-1.6C-1567.2,1107.9-1573.5,1093.6-1583.5,1087.1L-1583.5,1087.1z"/>
<path class="st2" d="M-1449.5,972.6c-6-5.7-17.8-3.7-29.6,1.2c10.9,8.7,21.2,17.9,31.2,27.6
	C-1443.2,991.2-1443.5,978.2-1449.5,972.6L-1449.5,972.6z"/>
<path class="st0" d="M-1544.1,1062.1c14.9-31.2,31.4-41.7,44.2-45.3c19.2-5.3,33.6,4,45.3-6.2c2.8-2.5,5.1-5.7,6.7-9.3
	c-9.9-9.7-20.3-18.9-31.2-27.6c-9.1,3.8-18.3,9.2-24.9,14.2C-1533.4,1010.3-1541.5,1045.2-1544.1,1062.1L-1544.1,1062.1z"/>
<path class="st1" d="M-1582.3,761.2c17.3-6,34,9.3,35,10.2c-0.5-1.2-12.3-27.9-38.1-30.9c-25.4-2.9-51.7,18.7-51.4,42.2
	c0.2,17.2,14.7,37.5,31.9,37c15-0.4,29.1-16.5,26.7-25.7c-2.3-8.8-18.8-8-20.1-16.4C-1599.1,771.3-1590,763.9-1582.3,761.2
	L-1582.3,761.2z"/>
<path class="st5" d="M-1812,597.1c-4.7,7.5-6.1,20,1.8,28.2c5.8,6,15,8.1,23.7,5.4c-8.8-4.3-14-13.4-13-22.4
	c1.3-10.9,11.7-19.8,24.2-19.2C-1789.6,582.3-1805.4,586.5-1812,597.1z"/>
<path class="st5" d="M-1695.3,605.8c6.7,4.7,17.1,10.7,30.9,14.7c15.9,4.5,29.6,4.4,38.2,3.7c-5-4.7-13.8-11.7-26.7-16.2
	C-1671.7,601.3-1688.2,604.1-1695.3,605.8L-1695.3,605.8z"/>
<path class="st6" d="M-1895.1,677.3c-4.3-8.7,2.2-25.1,19.4-30.5c-23.1-1.5-38.7,14.5-37.9,27.3c0.8,11.8,15.7,24.3,30.5,21.9
	c10-1.6,15.9-9.5,17.3-11.6C-1878.8,689-1891.5,684.6-1895.1,677.3L-1895.1,677.3z"/>
<path class="st6" d="M-1702.3,1118.1c6.2-10.1,1.2-29-12.2-35.5c-9.1-4.5-18.4-1.4-20.8-0.5c13.3,3.8,21.1,14.7,19.8,22.8
	c-1.5,9.5-16.3,19.2-33.4,13.7C-1730.9,1133.1-1709,1129.1-1702.3,1118.1L-1702.3,1118.1z"/>
<path class="st6" d="M-1565.1,1045.5c5.2,8.1,0.6,25.2-15.9,32.4c23.1-1.1,36.9-18.7,34.6-31.3c-2.1-11.6-18.3-22.5-32.7-18.5
	c-9.8,2.7-14.7,11.2-15.9,13.5C-1582.6,1035.7-1569.5,1038.6-1565.1,1045.5z"/>
<path class="st6" d="M-1482.6,911.1c-11-4.4-28.8,3.6-33,18c-2.9,9.8,1.7,18.4,3,20.6c1.6-13.7,11-23.2,19.2-23.3
	c9.7-0.1,21.7,12.9,19.1,30.7C-1463.1,936.9-1470.7,915.9-1482.6,911.1L-1482.6,911.1z"/>
<path class="st6" d="M-1453.3,893.7c1.1-3.7,4.5-16.9-2-31.2c-4.3-9.4-10.9-14.8-14.3-17.3c-3.4,0.5-17,2.8-27.2,14.9
	c-8,9.5-9.5,19.8-9.9,23.8c10.6-8.7,24.4-11.2,36.1-6.4C-1459.8,881.8-1454.8,890.8-1453.3,893.7L-1453.3,893.7z"/>
<path d="M-1656.6,766.3c2.6-5.1,14.5-27.2,41.3-36.8c25.2-8.9,46.9-0.8,54.6,2.3c29.8,11.8,42.8,37.1,45.9,43.6
	c0.2-4.8,0.9-34.7-22.4-56.9c-19.2-18.3-49.6-26.2-77-14.4C-1638.7,714.9-1655.2,739.1-1656.6,766.3L-1656.6,766.3z"/>
<path class="st6" d="M-1492.7,724.2c-9.8-16.4-26.4-20.9-29.8-21.7c10.6,22.3,21.2,44.6,31.9,67
	C-1489.7,767.5-1480,745.3-1492.7,724.2z"/>
<path class="st2" d="M-1453.1,776.7c-7.4-18.8-17.8-32.3-25.8-41c-0.5,6.3-1.3,15.7-2.2,27.3c-1.8,22-2.1,24.2-2.2,27.5
	c-0.3,11.5,2,28.1,14.6,49.4c2.7,1.3,6.3,3.4,9.9,6.9c6,5.9,8.4,12.5,9.3,16C-1445.9,849.6-1438.1,815-1453.1,776.7L-1453.1,776.7z"
	/>
<path d="M-1680.8,574.8c-19-0.9-34,8.5-67.2,6.7c-11.6-0.6-21-2.4-27.2-3.8c7.3,7.8,14.6,15.6,21.9,23.4c8.7-0.9,22.7-2.4,40-4.3
	c30.8-3.4,36.5-4.3,45.3-3.3c11.4,1.2,28.6,5.6,48.6,21.4C-1644.2,583.2-1665.5,575.6-1680.8,574.8L-1680.8,574.8z"/>
<path class="st6" d="M-1749.3,551.6c-12.6,0-23.1,2.7-30.4,5.4c12.3,11.9,22.7,14.8,29.9,15.4c9.3,0.7,14.5-2.5,29.6-3.7
	c10.5-0.9,19.2-0.2,24.6,0.4C-1703.5,563.5-1722.8,551.6-1749.3,551.6L-1749.3,551.6z"/>
<path class="st1" d="M-1669.1,550.4c3.1-1.5,6.1-2.3,8.5-2.7c-5.8-2.3-12.4-4.5-19.8-6.5c-5.2-1.4-10.1-2.4-14.8-3.2
	c3.2,10.2,6.5,20.4,9.7,30.7C-1684,565.2-1679.6,555.5-1669.1,550.4L-1669.1,550.4z"/>
<path d="M-1679.7,566.3c7,0,23.4,1,40.4,11.5c15.1,9.4,23.1,21.6,26.6,27.7c-0.1-5.4-1.1-17.9-9.4-30.4c-11.4-17-28.5-22.1-33-23.3
	c-4.4,1.8-8.8,3.5-13.3,5.3C-1672.3,560.2-1676,563.3-1679.7,566.3L-1679.7,566.3z"/>
<path d="M-1906.3,976.5c-6.2-9.6-14.8-22.4-26-37.3c0.2,3.2,0.1,11-4.6,19c-6.3,10.8-16.6,14.4-19.3,15.3c7.4,5,17.1,12.4,26.7,23.1
	c8.6-5.5,17.1-10.8,25.8-16C-1904.5,979.3-1905.4,978-1906.3,976.5L-1906.3,976.5z"/>
<path d="M-1904.2,1036.4c4.6-6,12.2-18.1,10.7-32.7c-0.7-6.4-2.9-11.5-10.2-23.1c-8.6,5.1-17.2,10.5-25.8,16
	c1.6,1.8,3.2,3.7,4.8,5.6C-1914.4,1014.9-1908,1027.2-1904.2,1036.4L-1904.2,1036.4z"/>
<path d="M-1844.2,1081.8c10.9,0.1,27.3,1.6,45.8,8.2c16.4,5.9,28.7,13.8,36.9,20.1c1.4-3.8,3-9.5,2.2-16.1
	c-1.5-12.1-10-20.9-25.8-32.6c-12.8-9.4-31.9-21.9-58-33.3c2.5,4.5,8.7,17.1,6.5,33.3C-1838,1070.7-1841.6,1077.7-1844.2,1081.8
	L-1844.2,1081.8z"/>
<path d="M-1697.8,1091.6c8.6,13.9,2.8,28.8,2.1,30.3c11.2-8,25.1-16.7,41.8-24.5c22.1-10.4,42.4-16.2,58.7-19.6
	c-2.4-5-7.5-13.5-17.2-18.3c-9.8-4.9-19.5-3.6-26.1-2.6c-31.1,5-65.5,16.1-78.4,20.4C-1714.4,1078.1-1704.1,1081.3-1697.8,1091.6
	L-1697.8,1091.6z"/>
<path class="st1" d="M-1482.8,970.9c0.1,0,0.2-0.1,0.4-0.1c-1.6-1.7-10-10.3-22.1-15.4c5.8,3.8,11.5,7.8,17.3,12.1
	C-1485.7,968.5-1484.3,969.7-1482.8,970.9z"/>
<path d="M-1527.2,952.1c-25.8,3.7-48.4,34-44.2,71.7c2.6,0,8.9,0.3,15.3,4.5c8,5.2,10.6,13,11.3,15.2c1.7-8.8,5.6-22.2,15-35.9
	c15.9-23.3,37.7-33.1,47.1-36.6c-1.5-1.1-2.9-2.3-4.4-3.5c-5.8-4.3-11.5-8.3-17.3-12.1C-1511.1,952.6-1518.9,950.9-1527.2,952.1z"/>
<path class="st6" d="M-1627.4,635c-5.7,3-11.5,3.5-22.7,4.6c-17.2,1.5-31.6,0.6-41.5-0.6c6.9,4.2,20.3,11.1,38.1,11.9
	c10.6,0.5,38.2,1.8,50.6-17.6c12.3-19.4-0.2-44.2-1.1-46C-1604.7,595.9-1607.8,624.9-1627.4,635L-1627.4,635z"/>
<path class="st6" d="M-1871.1,1079.2c13.8,0,25-11.3,25-25.3s-11.2-25.3-25-25.3c-13.8,0-25,11.3-25,25.3
	S-1884.9,1079.2-1871.1,1079.2z"/>
<path class="st1" d="M-1849,637.5c-12.1,0-21.9,10.2-21.9,22.8s9.8,22.9,21.9,22.9s21.9-10.2,21.9-22.9S-1836.9,637.5-1849,637.5z"
	/>
<path d="M-1919.2,604.9c-3.5,12.4,8.7,23.4,9.8,24.3c3.2,2.8,6.8,4.6,10.3,5.7v-33c-5.6-2.6-9.8-5.7-12.2-7.7
	C-1913.5,595.9-1917.6,599.3-1919.2,604.9L-1919.2,604.9z"/>
<path d="M-1971.5,755.8c36.3-11.2,40.1-79,40.3-82.3c0.4-9.8-0.3-18-1.2-24c-16.8,45.2-33.1,56.9-45.7,58.3
	c-7.8,0.8-15.5-2.1-24.6,3c-9.8,5.5-17.7,18.2-15,28.2C-2014,753.3-1989,761.2-1971.5,755.8L-1971.5,755.8z"/>
<path d="M-2012.9,797.6c8.4,31.5,4.7,53.5-0.8,68.4c-1,2.6-2,5.1-3.1,7.4h29c-1.5-7.3-3.3-15-5.2-22.5
	C-1998.6,828.1-2006.6,810.1-2012.9,797.6z"/>
<path class="st2" d="M-1972.1,773.8c-17.7,10.5-21.2,30.1-14.1,39.1c6.5,8.3,23.8,10,33.5,0.8c6.6-6.2,6.9-15,6.9-17.3
	c-7.3,9.9-18.8,13-25.2,9.5C-1978.6,801.8-1982,786.4-1972.1,773.8z"/>
<g>
	<path class="st1" d="M-1979.9,910.5L-1979.9,910.5c7.1-0.2,19.4-1.6,27.2-10.3c4.6-5.2,6-11.2,6.8-26.7h-36.2
		C-1980,887.6-1979.6,900.3-1979.9,910.5z"/>
	<path class="st1" d="M-1944.4,816.9c-1.8,1.8-12.2,11.7-28.4,11.2c-14.5-0.4-23.8-8.9-26-10.9c4.8,10.4,9.7,23.2,13.3,38.4
		c1.5,6.2,2.6,12.1,3.4,17.8h36.2c0.2-3.9,0.4-8.4,0.5-13.7C-1944.8,844.4-1944.6,830.1-1944.4,816.9L-1944.4,816.9z"/>
</g>
<path class="st1" d="M-1883.2,701.2c-2,0.7-8,2.7-15.8,2v0c-3.1-0.3-6.5-0.9-9.9-2.3c-10-3.9-15.2-11.2-17-14l0,0
	c-2.7,10.9-5.7,20.2-8.4,27.7c-5,13.6-7.6,20.6-13.4,28.2c-4.1,5.4-10.8,12.3-21.5,18.2c4.5,4.3,17.3,15.3,31.5,12.8
	c2.9-0.5,11.9-2.6,31-30.7c2.3-3.4,4.9-7.4,7.7-12v0C-1894.1,723-1888.6,713-1883.2,701.2z"/>
<path class="st6" d="M-677.3,1023.3L-677.3,1023.3c-4.3-26.5-16.4-51.7-34.9-71.2l0,0C-755.8,906-829.4,897-886.9,933
	c62.1-8.2,119,32.9,131.2,89.5l0,0c0.3,1.3,0.6,2.5,0.8,3.8c5.5,30.7-2.9,61.7-20.8,86.4l0,0c0.6,0.6,1.2,1.3,1.9,1.9h0l-3.2,0h0
	c-19.1,25.3-48.5,43.6-83.4,47.2c42.8,17.1,88.9,11.9,124.5-9.8c15.3-9.3,28.5-21.7,38.8-36.6h0c1.7-2.5,3.4-5.1,4.9-7.7
	C-677,1081.5-672.7,1051.6-677.3,1023.3z"/>
<path class="st2" d="M-819.8,955.9c-0.5,0.7-1,1.5-1.6,2.2h3.7C-818.4,957.3-819.1,956.6-819.8,955.9L-819.8,955.9z"/>
<path class="st2" d="M-1801,1359.9c-0.5-3.9-0.9-8.1-1.1-12.3c-0.6-9.6-0.5-18.6,0-26.7c18.9-13.8,40.4-29.8,63.9-48v-12.1h-145.6
	v99.1H-1801L-1801,1359.9z"/>
<path class="st2" d="M-427.8,1247.4c-1.4,0-2.8,0-4,0.1c-1.4-6.2-2.8-12.4-4.2-18.6c0.1-0.3,0.3-0.7,0.4-1
	c-9.4-18-24-33.7-36.9-41.9c-0.2,0-0.3,0-0.5,0c-4.9,0-9.3-2.3-12.2-5.9c-9.4-2.6-20.1-2.1-31,0.7c-1.4,0.6-2.8,1.1-4.4,1.3
	c-10.2,3.2-20.4,8.5-29.4,15.3c-1.6,2.2-3.7,4-6.2,5.1c-6.3,5.6-11.9,11.9-16.2,18.9c0,0.2,0,0.5,0,0.7c0,5.3-2.6,9.9-6.6,12.7
	c-16.2,44.7,18.1,96.4,38.3,123.8h105.1c5.9-15,11-32.6,12.7-52C-422.3,1298.4-420.2,1273.3-427.8,1247.4L-427.8,1247.4z"/>
<path class="st1" d="M-588,1206.6c-8.6,0-15.6,7-15.6,15.6s7,15.6,15.6,15.6c3.3,0,6.4-1.1,8.9-2.8c0.8-2.1,1.6-4.2,2.6-6.3
	c1.2-2.5,2.5-4.9,4-7.2C-572.9,1213.2-579.7,1206.6-588,1206.6L-588,1206.6z"/>
<path class="st1" d="M-562.7,1172.8c-8.6,0-15.6,7-15.6,15.6s7,15.6,15.6,15.6c2.3,0,4.4-0.5,6.4-1.4c2-1.8,4.1-3.5,6.2-5.1
	c1.8-2.6,2.9-5.7,2.9-9.1C-547.1,1179.7-554.1,1172.8-562.7,1172.8L-562.7,1172.8z"/>
<path class="st1" d="M-507.2,1166.7c0-8.6-7-15.6-15.6-15.6s-15.6,7-15.6,15.6s7,15.6,15.6,15.6c0.7,0,1.4-0.1,2.1-0.2
	c1.5-0.5,2.9-0.9,4.4-1.3C-510.9,1178.3-507.2,1172.9-507.2,1166.7L-507.2,1166.7z"/>
<path class="st1" d="M-457.5,1170.4c0-8.6-7-15.6-15.6-15.6s-15.6,7-15.6,15.6c0,3.7,1.3,7,3.4,9.7c1.7,0.5,3.4,1,4.9,1.7
	c2.5,1,5.1,2.4,7.7,4.2C-464.2,1185.6-457.5,1178.8-457.5,1170.4L-457.5,1170.4z"/>
<path class="st1" d="M-308.9,1143.8c-2.1-2.1-5-3.3-8.2-3.3c-6.5,0-11.7,5.2-11.7,11.7s5.2,11.7,11.7,11.7c1.9,0,3.7-0.5,5.3-1.3
	c3.8-1.9,6.4-5.8,6.4-10.4C-305.4,1148.9-306.8,1145.9-308.9,1143.8L-308.9,1143.8z"/>
<path class="st1" d="M-295.9,1171.5c-2.1-2.1-5-3.3-8.2-3.3c-6.5,0-11.7,5.2-11.7,11.7s5.2,11.7,11.7,11.7c1.9,0,3.7-0.5,5.3-1.3
	c3.8-1.9,6.4-5.8,6.4-10.4C-292.3,1176.6-293.7,1173.6-295.9,1171.5L-295.9,1171.5z"/>
<path class="st1" d="M-338.3,1132.2c-0.6-1.2-1.3-2.2-2.2-3.1c-2.1-2.1-5-3.3-8.2-3.3c-6.5,0-11.7,5.2-11.7,11.7
	c0,5.3,3.6,9.7,8.4,11.2c1.1,0.3,2.2,0.5,3.3,0.5c1.9,0,3.7-0.5,5.3-1.3c3.8-1.9,6.4-5.8,6.4-10.4
	C-336.9,1135.5-337.4,1133.8-338.3,1132.2L-338.3,1132.2z"/>
<rect x="-1206.9" y="1113" class="st3" width="10.6" height="43.2"/>
<rect x="-1222.1" y="1156" class="st3" width="12.6" height="40.6"/>
<rect x="-1382.5" y="1156" class="st3" width="12.6" height="40.6"/>
<rect x="-1369.2" y="1112.4" class="st3" width="12.6" height="43.4"/>
<path class="st2" d="M-436.8,1229c1.4,6.3,2.9,12.6,4.3,19c10.8,0,27.4-0.7,47.4-4.3c33.8-6,55.3-9.9,66.3-27.6
	c8.4-13.6,9.9-34,0-49.1c-13.2-20.1-41.4-22.8-59.4-16.4c-15.1,5.4-23.1,17.3-37.9,39.6C-426.3,1205.4-432.8,1219.1-436.8,1229
	L-436.8,1229z"/>
<rect x="-1831.2" y="1248.4" class="st2" width="296" height="110"/>
<path class="st0" d="M-2431,1366.5"/>
<path class="st2" d="M-2434.8,1361.8c18.7-3.8,42.1-10.3,67.7-22c21.1-9.7,38.3-20.6,51.8-30.4c1.8,16.8,3.6,33.6,5.4,50.5
	C-2351.6,1360.5-2393.2,1361.1-2434.8,1361.8z"/>
<path class="st0" d="M-3.8-9.1h2413.9v1366c-803.2,0-1606.4,0-2409.5,0c-1.5,0-2.9,0-4.4,0C-3.8,901.6-3.8,446.2-3.8-9.1z"/>
<path class="st3" d="M319.3,1359.9h29.5C338.6,1359.2,328.5,1359.4,319.3,1359.9z"/>
</svg>
