<?xml version="1.0" encoding="utf-8"?>
<!-- Generator: Adobe Illustrator 26.5.0, SVG Export Plug-In . SVG Version: 6.00 Build 0)  -->
<svg version="1.1" id="Layer_1" xmlns="http://www.w3.org/2000/svg" xmlns:xlink="http://www.w3.org/1999/xlink" x="0px" y="0px"
	 viewBox="0 0 451 417.8" style="enable-background:new 0 0 451 417.8;" xml:space="preserve">
<style type="text/css">
	.st0{fill:#FF7BAC;stroke:#FF7BAC;stroke-miterlimit:10;}
	.st1{fill:#FF7B3A;stroke:#FF7B3A;stroke-miterlimit:10;}
	.st2{stroke:#000000;stroke-miterlimit:10;}
	.st3{fill:#C8BA00;}
	.st4{fill:#6B8F48;stroke:#6B8F48;stroke-miterlimit:10;}
	.st5{fill:#FFFFFF;stroke:#000000;stroke-miterlimit:10;}
</style>
<path class="st0" d="M368.3,334.7c0.4,1.9,0.8,3.7,1.1,5.6c-3,0.4-7.7,1.4-12.6,4c-4.4,2.4-9.7,5.2-11.9,10.7
	c-3.4,8.9,3.8,18.2,4.4,19c-1.3-1-3.5-3-5.1-6.2c-2-4-1.8-7.8-1.7-9.4c-0.5,1.5-1.4,4.2-1.1,7.7c0.4,4,2,6.9,2.9,8.3
	c-1.2-1.6-4.3-6.2-4.4-12.8c-0.1-6.4,2.7-10.9,3.7-12.4c2.9-4.6,6.6-6.8,10.5-9C357.1,338.4,361.9,336,368.3,334.7L368.3,334.7z"/>
<path class="st0" d="M126.6,177.4c19.6,0.7,39.3,1.5,58.9,2.2c2.7-7.5,7.5-18.2,16.2-29.1c11.6-14.5,24.8-22.5,32.8-26.5
	c-0.7-18.9-1.5-37.8-2.2-56.7c-11.5,2.1-35.7,8-59.3,27.2c-7.5,6.2-25.9,22.6-37.6,50.4C130.1,157.8,127.7,169.3,126.6,177.4
	L126.6,177.4z"/>
<path class="st1" d="M147.5,178.2c12.7,0.5,25.4,0.9,38,1.4c2.7-7.5,7.5-18.2,16.2-29.1c11.6-14.5,24.8-22.5,32.8-26.5
	c-0.4-11.2-0.9-22.4-1.3-33.6c-10.8,2.7-26.8,8.3-42.5,20.8c-16.1,12.8-24.5,27-29.8,36.2C153.9,159.4,149.9,170.3,147.5,178.2
	L147.5,178.2z"/>
<path class="st2" d="M139.8,178.1c5.2,0.2,10.5,0.4,15.7,0.6c2.6-10.6,9-30.8,25.9-50.4c15.5-18,32.7-27.2,42.4-31.5
	c-0.2-4.1-0.4-8.2-0.5-12.2c-17,6.2-29,14.6-36.5,20.7c-18.3,14.9-27.7,31.2-32.5,39.4C146.8,157.6,142.4,169.4,139.8,178.1
	L139.8,178.1z"/>
<path class="st0" d="M142.4,219.6c0.4,0.8,4.8,8.7,12,9.1c3.1,0.1,5.7-1.2,7.7-2.2c4.7-2.5,7.4-6,8.8-8c2.6-1.4,5.1-2.8,7.7-4.3
	c5.2,1.9,10.4,3.8,15.6,5.8c0.3,1.9,0.8,5.1,1.3,9c0.5,4.5,0.4,6.1,1.2,8.3c0.7,2,2.2,4.9,5.7,7.8c-9.1,15.7-18.2,31.4-27.3,47.1
	c-7.7-3-21.4-9.4-34.3-22.8c-12.4-12.9-18.3-26.4-21.1-34.1C127.3,229.9,134.9,224.7,142.4,219.6L142.4,219.6z"/>
<path class="st1" d="M306.1,212.1c-3.2,2.4-6.4,4.7-9.6,7.1c4.4,8.8,8.8,17.7,13.3,26.5c-1,0.7-3.5,2.9-4.6,6.6
	c-1.7,6.2,2.3,11.1,2.7,11.7c5.3-4.3,10.5-8.5,15.8-12.8c-3.4-4.7-7.3-10.9-10.7-18.5C309.5,224.9,307.4,217.9,306.1,212.1
	L306.1,212.1z"/>
<path class="st1" d="M318.1,290c3.2-1.5,6.4-3.1,9.6-4.6c0.6,7.7,1.2,15.3,1.7,23l-8.6,0.1C319.9,302.3,319,296.2,318.1,290
	L318.1,290z"/>
<path class="st1" d="M335,283.2c0.9,8.2,1.9,16.5,2.8,24.8c1.1-0.1,2.2-0.2,3.4-0.4c-0.9-8.6-1.9-17.3-2.8-25.9
	C337.3,282.1,336.1,282.7,335,283.2z"/>
<path class="st3" d="M262.5,276.8c2.2,1.2,5.6,2.6,9.8,3c12.1,1.1,21.2-7.9,32.9-17.5c17.9-14.6,30.5-25.1,36.6-30.2
	c1.4,2.8,5.5,12.2,2.8,23.7c-1.8,7.5-5.8,12.6-8,15.1c3,3.1,6,6.2,8.9,9.2c-11.8,7.1-21.4,11.3-28.2,13.9
	c-3.9,1.5-11.3,4.1-11.2,7.3c0.1,1.5,1.8,2.7,2.5,3.1c3.3,2,7.1,1.2,10.6,0.8c9.1-1.1,7.7,1.4,20.2,0.8c3.5-0.2,6.8-0.5,10,1.4
	c0.9,0.5,3.5,2.1,3.6,4.7c0.1,1.6-0.9,3.2-2.2,4c-2.8,1.8-6.8-0.5-10-1.7c-5.7-2.1-8-0.5-24.8,1.1c-11.5,1.1-17.3,1.6-21.3,1.1
	c-6.8-0.9-16.4-4.1-27.3-15.3c0.8-2.3,2.4-8.2,0.3-15.1C266.4,281.7,264,278.6,262.5,276.8L262.5,276.8z"/>
<circle class="st0" cx="246.6" cy="291.3" r="16.8"/>
<circle class="st0" cx="262.9" cy="210.1" r="11.6"/>
<circle class="st2" cx="246.6" cy="291.3" r="10.8"/>
<circle class="st1" cx="418" cy="111.9" r="10.8"/>
<circle class="st4" cx="289.9" cy="260.5" r="7"/>
<path class="st1" d="M249.3,216.4c-1.1,2.1-5.1,9.5-14,12.9c-5.1,1.9-9.6,1.8-12.1,1.5c0.1,1.4,0.1,4.7-1.8,8.2
	c-2.3,4.3-6.1,6.1-7.3,6.7c-0.3,3.9-0.4,11.2,2.7,19.4c3,8,7.6,13.3,10.3,16.1c0.8-1.5,3.5-5.9,9.1-8.5c5.6-2.6,10.7-1.9,12.4-1.5
	c-2.4-3.3-6.6-9.9-7.6-19.1c-1.9-17.3,9-29.6,10.9-31.8C251.1,219,250.2,217.7,249.3,216.4L249.3,216.4z"/>
<path class="st1" d="M262.6,232.6c-8.9,3.9-13.5,13-11.6,21c1.4,5.6,5.9,10.4,11.8,12.2c6,1.8,11.1-0.4,12.5-1
	c-1.4-0.3-9.8-2-14.5-9.8c-0.8-1.2-4.9-8.1-2.3-15.8C259.5,236,261.3,233.8,262.6,232.6L262.6,232.6z"/>
<path class="st4" d="M262.5,304.3c-0.7,1-1.8,2.4-3.6,3.7c-2.4,1.7-4.8,2.3-6.1,2.5c0.8,6.1,2.1,11,3.1,14.6c2.2,7.4,3.8,9.1,5.5,10
	c2.3,1.2,5.2,1.3,7.7,0.1c0.5-0.2,4.2-1.9,4.8-4.9c0.7-3.9-4.7-6.1-8.3-12.4C263.9,315.1,262.4,310.7,262.5,304.3L262.5,304.3z"/>
<path class="st4" d="M242.2,311.4h7.9c1.5,7,2.1,12.8,2.3,17c0.5,8.9-0.6,10.6-1.7,11.5c-3,2.4-9,1.5-11.1-1.6
	c-1.8-2.6,0-5.6,1.3-12.5C242.1,319.9,242.3,314.9,242.2,311.4L242.2,311.4z"/>
<path class="st4" d="M226.3,299.5c0,0.6-0.1,5.7,4.2,9.1c3.4,2.7,7.3,2.4,8.1,2.3c-6.7,13.9-8.4,24.8-8.7,32.4
	c-0.2,4.2,0,9.8-3.8,13.2c-4.1,3.7-11.7,4-14,1c-2.1-2.8,0.7-8,1.9-10.4C218.1,338.8,223,324.9,226.3,299.5L226.3,299.5z"/>
<path class="st2" d="M214.8,271.5c-3.3,8.7-6.6,17.5-9.9,26.2l-10.2,9.3c-3.2,12.2-6.4,24.5-9.6,36.7c10.3-10.6,20.6-21.2,30.9-31.8
	c2.8-8.8,5.6-17.7,8.4-26.5c-1.4-0.5-3.9-1.7-6.1-4.4C215.1,277.2,214.9,272.9,214.8,271.5L214.8,271.5z"/>
<path class="st4" d="M190.9,368.5c-3.7,0.4-7.3-2.3-9-5.2c-2.5-4.4-1.6-10.5,2.6-14.9c10-10,20-20,30-30c-0.8,3.2-2,7.5-3.4,12.6
	c-3.9,13.9-6.4,21.4-11.2,29.1C195.6,367.1,193,368.3,190.9,368.5L190.9,368.5z"/>
<path class="st0" d="M342.6,295.4c0.3,2.8,0.6,5.6,0.9,8.4c2.6,0.5,5.2,1,7.8,1.5c8.4-4.4,16.7-8.8,25.1-13.2
	c-5.1,1.9-12.4,3.9-21.3,4.2C350.5,296.4,346.2,296,342.6,295.4L342.6,295.4z"/>
<path class="st0" d="M256.4,336.9c0,0.3-0.2,5.9-4.6,8.4c-1.8,1-3.6,1-4.6,1c0.7,3.1,3.2,14.9-3.4,22.9c-1.3,1.6-3.9,4.7-7.6,4.6
	c-3.4-0.1-6.4-2.9-7.6-6c-1.1-3-0.3-5.7,0-6.6c-0.5,1.2-4.2,9.8,0,16.3c4.9,7.5,16.9,6.8,23.1,4.6c12.4-4.4,20.4-21.2,19.3-42
	c-0.6,0.4-3.9,2.4-8.1,1.4C258.9,340.5,256.9,337.5,256.4,336.9z"/>
<path class="st2" d="M172.3,298.5c5.5,2.2,11.1,4.5,16.6,6.7c-13.9,36.9-27.8,73.7-41.7,110.6c-1.2-8.2-2.2-20.4,0-34.6
	c2.1-13.4,5.8-21.7,11.3-37.1C162.4,333.3,167.4,317.9,172.3,298.5L172.3,298.5z"/>
<path class="st2" d="M151.1,288.3c4.9,3.2,9.9,6.4,14.8,9.5c-17.5,33.9-35.1,67.8-52.6,101.7c-0.9-5-1.6-12.4-0.3-21.2
	c1.6-11.1,5.7-18.9,7.4-22.2C127.7,342,137.8,319.1,151.1,288.3z"/>
<path class="st2" d="M132.1,269.9c4.9,4.7,9.9,9.4,14.8,14.1c-24.1,32.4-48.3,64.8-72.4,97.1c-0.7-6.6-0.8-16.8,3.2-27.9
	c3.7-10.2,9.4-16.8,11.7-19.4C98.1,323.6,111.3,305.3,132.1,269.9L132.1,269.9z"/>
<path class="st2" d="M121.1,253.3c2.8,4,5.7,8,8.5,12c-32,25.8-64.1,51.6-96.1,77.4c1.1-6.5,3.7-15.8,9.9-25.1
	c8.4-12.5,19.2-18.4,25.1-21.9C81.5,288,99.6,275.3,121.1,253.3L121.1,253.3z"/>
<path class="st2" d="M113.3,236.7c1.9,4.5,3.8,8.9,5.7,13.4c-18.8,9.6-47.3,20.8-83,23c-12.3,0.8-23.5,0.3-33.5-0.7
	C39.4,260.5,76.4,248.6,113.3,236.7L113.3,236.7z"/>
<circle class="st3" cx="208" cy="212.1" r="10.5"/>
<path class="st0" d="M197.9,221.7c1,0.9,4.4,3.8,9.5,3.9c7.4,0.3,12-5.2,12.6-5.9c-0.2,3.3-0.5,6.6-0.8,9.9
	c-1.1,0.9-5.1,3.9-10.9,3.9c-4.4,0-7.6-1.7-8.9-2.6C198.9,227.8,198.4,224.8,197.9,221.7L197.9,221.7z"/>
<path class="st3" d="M199.9,235.3c1.4,0.8,4.4,2.2,8.3,2.2c5.9,0,9.9-3.1,11-4c0,0.9-0.2,4.3-3,7.2c-0.6,0.6-3.6,3.6-7.8,3.1
	C204.4,243.5,200.9,240,199.9,235.3L199.9,235.3z"/>
<path class="st3" d="M205,246.2c2,0.6,4,1.3,6.1,1.9c1.2,13.8-0.9,24.6-2.8,31.6c-2.1,7.8-5.1,17.9-11.7,19.4
	c-3.5,0.8-8.3-0.7-10.1-1.3c-3.1-1-5.5-2.3-7.2-3.4C187.8,278.3,196.4,262.3,205,246.2L205,246.2z"/>
<path class="st3" d="M119,234.6c2.6,7.8,7.9,20.4,18.8,32.7c13.7,15.5,29.2,22.6,37.3,25.6c2.7-4.9,5.4-9.7,8.1-14.6
	c-7.4-2.9-19.6-8.9-31.4-20.5c-11.7-11.6-17.8-23.6-20.9-31C126.9,229.5,123,232.1,119,234.6L119,234.6z"/>
<path class="st2" d="M131.1,227.4c3.8-2.6,7.6-5.2,11.4-7.8c4.5,6.9,11.5,16,21.7,24.9c10.2,8.9,20.1,14.5,27.6,18
	c-3.3,5.9-6.6,11.8-10,17.7c-8.1-4.2-19.9-11.5-31.2-23.7C140.7,245.8,134.7,235.1,131.1,227.4z"/>
<path class="st4" d="M151.8,201.2c-6.8-0.7-13.3,3.2-15.6,9.5c-2.6,6.7,0.4,13.9,5.6,17.6c6,4.3,14.7,3.6,20.4-1.9
	C158.7,218,155.2,209.6,151.8,201.2z"/>
<path class="st2" d="M157.1,200.7c3,7.9,6,15.8,8.9,23.7c4.2-3.4,8.4-6.9,12.6-10.3c-1.6-1.2-3.9-3.4-5.9-6.7
	c-2.1-3.6-2.8-6.9-3.1-8.9C165.5,199.2,161.3,199.9,157.1,200.7L157.1,200.7z"/>
<path class="st4" d="M174.4,197c0,1.5,0.1,4.2,1.4,7.3c1.7,3.8,4.3,6,5.6,7c8.7-5.7,17.3-11.4,26-17c-0.7-2.5-1.5-5-2.2-7.5
	C194.9,190.1,184.6,193.6,174.4,197z"/>
<path class="st4" d="M174.2,175.1c-0.4,1.8-0.8,4.1-0.7,6.8c0.1,3.9,0.9,7.1,1.7,9.2l30.6-8.3v-7.8L174.2,175.1L174.2,175.1z"/>
<path class="st2" d="M157.2,175.5c-0.4,2.8-0.6,5.9-0.6,9.4c0,4,0.4,7.6,0.9,10.7c4.3-1,8.6-2,12.9-2.9c-0.4-2.5-0.7-5.4-0.7-8.7
	c-0.1-3.4,0.2-6.4,0.6-9C166,175.1,161.6,175.3,157.2,175.5L157.2,175.5z"/>
<path class="st2" d="M266,244.7c7.9-1.6,15.8-3.1,23.7-4.7c-0.2,1.2-0.9,4.3-3.7,7c-0.3,0.3-2.4,2.3-5.4,3.1
	C275.8,251.4,270.1,249.2,266,244.7L266,244.7z"/>
<path class="st2" d="M168.5,27.7c8.3,24.4,16.6,48.8,24.9,73.1c5.4-3.6,10.9-7.1,16.3-10.6C196,69.4,182.3,48.5,168.5,27.7z"/>
<path class="st2" d="M119.3,40.7c18,26.7,35.9,53.4,53.9,80.1c4-4.4,8-8.9,12-13.3C163.2,85.2,141.3,62.9,119.3,40.7L119.3,40.7z"/>
<path class="st2" d="M79.4,81.6c24.1,22.5,48.1,45,72.2,67.5c3.8-6.2,7.5-12.4,11.3-18.6C135.1,114.1,107.2,97.8,79.4,81.6
	L79.4,81.6z"/>
<path class="st2" d="M147.9,158c-0.7,7.1-1.3,14.2-2,21.3c-32.2-6.2-64.5-12.4-96.8-18.6C82.1,159.8,115,158.9,147.9,158z"/>
<path class="st3" d="M152.4,174.7c-0.4,3.3-0.6,6.8-0.7,10.6c-0.1,3.8,0,7.4,0.2,10.6c-4.4,2.6-9.5,2.7-13.2,0.2
	c-5.4-3.6-6.2-12-2.3-17.3C139.9,174.1,146.5,172.3,152.4,174.7L152.4,174.7z"/>
<path class="st2" d="M261.5,202.4c1.3,4.9,2.6,9.8,3.9,14.6c-4.4,1.5-8.8-0.6-10.2-3.9C253.6,209.3,256.1,203.7,261.5,202.4
	L261.5,202.4z"/>
<path class="st2" d="M349.7,188.6c-10.2,5.1-20.5,10.1-30.7,15.2c5.4,11.2,10.9,22.5,16.3,33.7c8.6-7,17.3-14.1,25.9-21.1
	C357.4,207.2,353.6,197.9,349.7,188.6L349.7,188.6z"/>
<path class="st3" d="M350,187.9c-7.1,3.5-14.2,7-21.3,10.5c3.8,7.5,7.5,15,11.2,22.4c6.5-3.4,13-6.8,19.5-10.1
	C356.3,203.1,353.1,195.5,350,187.9L350,187.9z"/>
<path class="st0" d="M237.3,66.4c2.4,28.3,4.8,56.7,7.2,85.1c4.4-0.2,10.4,0,17.2,1.5c6.2,1.4,11.2,3.5,14.9,5.4
	c3.7-2.2,7.4-4.3,11.1-6.5c-11.6-28.4-23.2-56.9-34.8-85.3c-1.9-0.5-4.5-1-7.5-1C242.2,65.5,239.4,65.9,237.3,66.4L237.3,66.4z"/>
<path class="st4" d="M389.7,198.1c-0.9,7.3-1.2,17.9,2.7,29.3c4.9,14.2,12.4,18.4,16.7,30.2c3,8.3,4.5,21-2.7,39.6
	c4.1-2.6,9.1-6.4,14-11.7c3.2-3.5,5.7-6.9,7.7-9.9c-1.5-10-3.7-17.8-5.4-23c-4.1-12.5-7.9-17.7-9.9-28.8c-1.4-7.8-1.2-14.3-0.9-18.5
	C404.4,202.9,397,200.5,389.7,198.1L389.7,198.1z"/>
<path class="st3" d="M374.4,326.6c1.7-3,1.1-4.4,1.6-6.8c0,0,0.3-1.2,1-2.6c1.4-3.1,5.9-6.3,11.4-7.4c4.6-0.9,6.2,0.4,9.2-1.2
	c2.3-1.3,3.6-3.3,4.3-4.9c3-0.2,6.7-0.8,10.7-2.6c12.5-5.7,16.9-18.5,17.8-21.3c-1.4,11.5-4.5,20.4-7.1,26.3
	c-2.7,6.2-6,13.5-13,20.9c-5.2,5.4-7.9,8.8-13,10.2c-6.4,1.8-9.2-1.3-14.9,1.7c-3,1.6-5,3.8-9.2,4.3c-2.7,0.3-4-0.5-4.4-0.8
	c-2-1.4-2.7-4.3-2.3-6.6C367.1,331.4,371.4,331.8,374.4,326.6L374.4,326.6z"/>
<path class="st2" d="M401,318c-4.9,2-9.8,4-14.8,6v6.2C391.2,326.1,396.1,322,401,318z"/>
<path class="st2" d="M396.8,175.3c-2,5.6-4.1,11.2-6.1,16.8c7.2,2.3,14.5,4.6,21.7,6.8c2.5-5.4,5-10.7,7.6-16.1
	c-3.3-0.1-7.9-0.6-13.2-2.4C402.6,178.9,399.2,177,396.8,175.3z"/>
<path class="st2" d="M354.4,185.6c4.4,9.8,8.8,19.6,13.2,29.5c5.8-4.5,11.7-9.1,17.5-13.6c1-3.4,1.9-6.8,2.9-10.2
	c-2.3-7-4.6-14.1-7-21.1C372.1,175.3,363.3,180.4,354.4,185.6L354.4,185.6z"/>
<path class="st2" d="M272.6,196.5c5,2.4,8.1,7.5,7.8,12.9c-0.3,4.8-3.2,9-7.6,11.2c1.5,1.1,3.9,2.7,7.2,2.9c3.1,0.3,5.8-0.7,11.2-4
	c3.7-2.3,8.7-5.7,14.1-10.5c-6.1,0.2-10.1-1.4-12.6-2.7c-5.9-3.2-8.1-8.1-14.8-9.5C275.6,196.3,273.7,196.4,272.6,196.5z"/>
<path class="st2" d="M285.8,179.4c-1.2,3.4-2.4,6.9-3.6,10.3c13.6,1.6,27.3,3.2,40.9,4.9c-0.9-6-1.8-11.9-2.7-17.9
	C308.9,177.6,297.3,178.5,285.8,179.4L285.8,179.4z"/>
<path class="st0" d="M284.3,165.1c0.6,3.3,1.2,6.7,1.8,10c11.5-1,23-2,34.6-3c-1.2-6.4-2.4-12.7-3.6-19.1
	C306.1,157,295.2,161.1,284.3,165.1L284.3,165.1z"/>
<path class="st3" d="M253.1,160.9c1.5,10.4,3.1,20.9,4.6,31.3c-10.6,2.3-19.5,2.8-25.8,2.8c-11.6,0-14.8-1.7-16.9-3.7
	c-3.7-3.5-5.7-9.6-4-14.7c0.5-1.4,2.2-5.5,13.5-10.1C230.5,163.9,240.1,160.9,253.1,160.9L253.1,160.9z"/>
<path class="st2" d="M246.9,169.4c0.9,6,1.8,12.1,2.7,18.1c-6.2,1.3-11.3,1.6-14.9,1.6c-6.7,0-8.6-1-9.8-2.1c-2.2-2-3.3-5.6-2.3-8.5
	c0.3-0.8,1.3-3.2,7.8-5.9C233.8,171.2,239.4,169.5,246.9,169.4z"/>
<path class="st0" d="M256.2,161.9c1.8,9.4,3.5,18.7,5.3,28.1c0.5,0.1,9.6,1,15-6.1c0.2-0.3,5-6.6,2.9-13
	C277.2,163.9,267.3,159,256.2,161.9L256.2,161.9z"/>
<path class="st2" d="M260.7,167.1c1.1,5.8,2.2,11.6,3.3,17.4c0.3,0,5.9,0.6,9.3-3.8c0.1-0.2,3.1-4.1,1.8-8.1
	C273.7,168.3,267.6,165.3,260.7,167.1z"/>
<path class="st2" d="M223,158.3c0.5-8.2,0.8-16.5,1-25.1c0.5-22.5-0.2-43.8-1.7-63.7c1.5-0.6,3.3-1.3,5.5-1.8
	c2.3-0.5,4.4-0.7,6.1-0.7c1.3,26.8,2.7,53.7,4,80.5c-0.2,2-0.9,5.7-3.7,8.8c-3.5,3.9-9.5,6-11,4.4
	C222.6,160.3,222.7,159.2,223,158.3z"/>
<path class="st2" d="M212.1,60.7c-1.7,3.3-1.7,6.7-1.4,8.8c8.7-3.1,16.2-4.8,21.5-5.8c17.7-3.3,22-0.6,23.8,0.8c3,2.4,4.4,5.7,5.1,8
	c1.1-0.7,6-3.9,6.1-8.7c0.2-6.1-7.5-10.1-10.4-11.5c-4.9-2.5-9.2-2.8-13.3-3c-8.2-0.5-14.4,1.3-16.1,1.8
	C221.3,53,215.1,54.9,212.1,60.7L212.1,60.7z"/>
<path class="st4" d="M206.2,30.4c3.2,6.8,6.4,13.6,9.6,20.3c2.9-1.8,7.7-4.3,14.1-5.6c7.3-1.4,13.3-0.6,16.8,0.2
	c1.7-6.8,3.3-13.6,5-20.3c-5.6-1.1-14-2.1-24.1-0.8C218.4,25.4,211.1,28.1,206.2,30.4L206.2,30.4z"/>
<path class="st3" d="M204.9,24.9c4.4-2.4,11.8-5.9,21.5-7.1c11-1.4,19.9,0.6,24.9,2.1c-1.9-12.2-13-20.9-25.1-19.9
	C213.8,1.1,204.2,12.2,204.9,24.9L204.9,24.9z"/>
<path class="st0" d="M408.7,124.5c-1.8,3-5.4,8.1-11.6,12.2c-8.6,5.7-17.2,6.2-20.8,6.2c1.6,1,9,5.4,18.7,3.6
	c9.3-1.7,14.5-7.9,15.8-9.5c1,8.1,2,16.2,3,24.4c2.5-7.7,5-15.5,7.4-23.2c1.3,2.4,4.4,7.3,10.4,11c7.4,4.5,14.6,4.4,17.2,4.2
	c-2.7-1.1-10-4.6-15.2-12.8c-4.8-7.5-5.2-14.8-5.2-17.8c-0.7,0.7-4.6,4.8-10.8,4.8C413,127.6,409.7,125.3,408.7,124.5L408.7,124.5z"
	/>
<path class="st3" d="M406.5,145.7l-7,2.8c-0.6,6.6-1.1,13.1-1.7,19.7c2.2,1.9,5.8,4.5,10.6,6.4c6.1,2.4,11.5,2.7,14.8,2.6
	c1.9-8,3.8-15.9,5.7-23.9c-1.5-1.7-3-3.4-4.5-5.1c-3.7,7.4-7.5,14.8-11.2,22.2C410.9,162.2,408.7,153.9,406.5,145.7L406.5,145.7z"/>
<path class="st4" d="M380,62.6c3.1,0.6,11.8,2.6,18.9,10.2c10.4,11.2,8.9,25.4,8.7,27.6c0.5-0.7,3.6-5.4,9.6-6.2
	c4.8-0.6,9.7,1.5,12.7,5.6c-1.1-7.1-4-19.2-12.7-31.3c-4.4-6-9-10.5-13-13.6c-3-0.1-7.5,0.2-12.7,1.9
	C386.3,58.4,382.4,60.8,380,62.6z"/>
<path class="st3" d="M395.5,49.9c-2.4-0.1-7.8,0-13.6,3.1c-4.8,2.6-7.6,6.1-9,8c-4.4,0.1-15.2,0.8-26,8.1
	C334,77.7,329.3,89.9,328,93.9c-3.8-2-7.6-4.1-11.5-6.2c-2.1-1.1-4.1-2.3-6.2-3.4c2.9-5.8,8.1-14.6,17-22.9
	c5.7-5.3,15.5-14.4,31-17.3C376,40.7,390.3,47.2,395.5,49.9L395.5,49.9z"/>
<path class="st4" d="M303.7,85c-5.2,17.9-10.3,35.9-15.5,53.8c2.4,5.9,4.7,11.8,7.1,17.7c2.7-1.4,5.4-2.9,8-4.4
	c11.8-28.1,16.9-33.9,19.2-33.2c1.1,0.3,1.1,1.7,3.5,3.6c0.5,0.4,5.1,3.9,10.7,2.9c5.3-0.9,10.8-5.8,10.7-11.5c0-5.5-5.1-9-6.2-9.8
	c-3.3-2.3-6.6-2.7-7.4-2.8C328.6,100.7,319.8,97.2,303.7,85L303.7,85z"/>
<path class="st0" d="M289.6,144.4c1.4,3.4,2.8,6.9,4.1,10.4c14.4-34.5,17.1-41.2,17.1-41.6c0,0,0-0.1,0-0.1c0-0.2,0.2-0.8,0.2-1.7
	c0.3-3.8-0.8-8.5-2.6-8.9c-2-0.4-4.7,4.8-6.6,8.8C298.4,118.5,293.8,129.4,289.6,144.4L289.6,144.4z"/>
<circle class="st2" cx="334.8" cy="114.3" r="8.4"/>
<circle class="st5" cx="336.6" cy="111.9" r="3.5"/>
<path class="st2" d="M396,151c-4.1,5.6-8.2,11.3-12.3,17c1.7,6.2,3.5,12.4,5.2,18.5c1.5-5.6,2.9-11.6,4.2-18
	C394.3,162.4,395.2,156.5,396,151L396,151z"/>
<path class="st2" d="M321.6,150.2c0.9,6.1,1.7,12.2,2.6,18.3c7-1.1,13.9-2.3,20.9-3.4c-1.6-8-3.3-16-5-24
	C333.9,144.1,327.8,147.2,321.6,150.2L321.6,150.2z"/>
<path class="st0" d="M325.8,175.5c0.5,5.8,1,11.7,1.6,17.5c7.1-3,14.3-5.9,21.4-8.9c-1.2-4.9-2.4-9.7-3.6-14.6
	C338.6,171.5,332.2,173.5,325.8,175.5L325.8,175.5z"/>
<path class="st2" d="M215.1,199.1c1.3,0.3,6.8,1.8,10.1,7s3.2,12.1-0.2,17.9c2.1,0.2,5.7,0.2,9.8-1.5c7.1-2.9,10.4-8.9,11.2-10.6
	c-0.2-1.4-0.4-4.9,1.5-8.6c2.8-5.4,8-7.1,9-7.4c-7.2,1.5-15.6,2.7-24.8,3.2C225.7,199.4,220.2,199.4,215.1,199.1L215.1,199.1z"/>
</svg>
