<?xml version="1.0" encoding="UTF-8"?>
<svg id="Layer_1" data-name="Layer 1" xmlns="http://www.w3.org/2000/svg" viewBox="0 0 637.76 648.47">
  <defs>
    <style>
      .cls-1, .cls-2 {
        stroke: #000;
      }

      .cls-1, .cls-2, .cls-3, .cls-4, .cls-5, .cls-6 {
        stroke-miterlimit: 10;
      }

      .cls-7, .cls-6 {
        fill: #fff;
      }

      .cls-8 {
        fill: #fffdeb;
      }

      .cls-9, .cls-5 {
        fill: #ff7bac;
      }

      .cls-10 {
        fill: #6b8f48;
      }

      .cls-11 {
        fill: #c8ba00;
      }

      .cls-2 {
        fill: none;
        stroke-width: 5px;
      }

      .cls-3 {
        stroke: #ff7b3a;
      }

      .cls-3, .cls-4 {
        fill: #ff7b3a;
      }

      .cls-4 {
        stroke: #ff931e;
      }

      .cls-5 {
        stroke: #ff7bac;
      }

      .cls-6 {
        stroke: #fff;
      }
    </style>
  </defs>
  <path class="cls-3" d="M232.05,585.65c6.58,5.83,16.2,13.78,28.56,22.16,20.49,13.88,36.69,24.85,60.57,30.53,35.16,8.36,64.55,.03,74.61-2.95,11.58-3.44,20.8-7.72,27.19-11.08-9.12-5.53-18.24-11.06-27.36-16.59-24.87,9.67-44.89,9.57-56.46,8.46-22.04-2.11-39.17-10.36-63.28-21.91-13.74-6.59-24.8-12.97-32.57-17.76-3.75,3.05-7.5,6.09-11.26,9.14Z"/>
  <path class="cls-10" d="M380.66,593.95c-18.42,7.28-33.28,7.78-42.48,7.21-21.05-1.3-37.52-9.81-65.08-23.8-10.54-5.35-18.97-10.25-24.59-13.65-2.65,4.25-5.3,8.5-7.95,12.75,8.74,5.99,18.57,12.03,29.53,17.78,23.14,12.14,44.51,23.66,72.01,26.52,12.38,1.29,34.27,1.71,61.49-8.28-7.64-6.17-15.28-12.34-22.93-18.51Z"/>
  <path class="cls-5" d="M352.4,567.76c4.23,3.85,8.46,7.7,12.7,11.54-2.08-19.55-4.16-39.09-6.23-58.64-3.31-1.54-6.62-3.08-9.93-4.62,1.15,17.24,2.31,34.48,3.46,51.71Z"/>
  <path class="cls-3" d="M480.9,384.38c-3.12,4.34-10.93,16.41-11.33,33.74-.43,18.73,8.08,31.9,11.09,36.15-4.9,1.2-9.8,2.41-14.7,3.61-2.34-5.73-7.05-19.5-4.1-36.87,3.38-19.92,14.77-32.38,19.04-36.63Z"/>
  <path class="cls-9" d="M272.62,513.38c-2.08,16.31-4.16,32.62-6.23,48.93,14.65-3.95,29.3-7.9,43.94-11.84-7.79-13.5-15.58-27.01-23.37-40.51-4.78,1.14-9.56,2.29-14.34,3.43Z"/>
  <path class="cls-11" d="M225.58,551.13c2.19-.87,8.94-3.24,17.06-.92,10.24,2.92,15.01,11.1,15.94,12.76,4.82-18.78,2.12-31.22-1.18-39.05-4.12-9.81-8.53-10.87-11.99-21.22-6.3-18.81,1.34-36,1.74-36.87,9.49-20.54,30.23-26.42,33.31-27.23-29.28,1.39-53.86,13.48-59.5,31.36-2.75,8.72-2.95,25.05,3.08,39.32,2.74,6.49,5.91,10.52,6.75,18.32,1.03,9.61-2.22,17.91-5.22,23.53Z"/>
  <path class="cls-3" d="M252.56,52.61c-22.57,11.05-59.46,33.18-89.66,74.28-10.46,14.23-29.74,41.05-38.24,81.75-6.42,30.73-4.05,56.75-1.32,72.96,12.6-2.2,25.2-4.4,37.8-6.59-2.44-13.4-9.09-59.34,17.58-104.6,20.2-34.28,49.36-50.96,58.89-56.26,16.62-9.23,31.9-13.83,42.63-16.26-9.23-15.09-18.46-30.18-27.69-45.27Z"/>
  <path class="cls-5" d="M405.52,175.32c-1.48-3.22-33.98-71.06-101.98-77-50.23-4.39-85.93,27.97-98.31,39.18-9.27,8.39-43.78,40.63-48.05,91.8-1.17,14.03-3.97,47.58,18.9,75.16,12.79,15.43,28.43,22.73,37.68,26.13,2.14-5.72,5.36-13.76,9.84-23.1,18.21-38,40.24-62.29,46.3-68.79,13.42-14.38,29.25-31.33,55.51-44.75,31.06-15.88,60.8-18.7,80.1-18.61Z"/>
  <circle class="cls-9" cx="399.7" cy="445.02" r="31.11"/>
  <circle class="cls-7" cx="399.7" cy="445.02" r="21.32"/>
  <line class="cls-2" x1="394.88" y1="424.25" x2="404.52" y2="465.79"/>
  <line class="cls-2" x1="378.93" y1="449.84" x2="420.47" y2="440.2"/>
  <path class="cls-9" d="M290.34,376.16c-.89-13.33-.8-39.8,12.57-68.97,3.37-7.35,17.19-35.81,49.21-58.19,22.12-15.46,43.58-21.49,56.4-24.07-10.42,32.93-20.84,65.86-31.25,98.79-28.98,17.48-57.95,34.96-86.93,52.45Z"/>
  <path class="cls-1" d="M142.89,496.95c6.68-6.68,240.54-162.27,240.54-162.27l20.05,42.95-260.59,119.32Z"/>
  <path class="cls-1" d="M392.98,328.95c2.86,0,21,39.94,21,39.94,16.8-8.5,33.61-17.01,50.41-25.51,16.92-46.81,33.85-93.62,50.77-140.43l-122.18,126Z"/>
  <path class="cls-1" d="M149.58,422.49c-1.75,4.6-4.94,14.83-2.86,27.68,1.8,11.13,6.7,18.99,9.55,22.91,15.59-10.18,31.18-20.36,46.77-30.54-1.47-4.48-2.9-9.93-3.82-16.23-.95-6.52-1.12-12.35-.95-17.18-16.23,4.45-32.45,8.91-48.68,13.36Z"/>
  <path class="cls-1" d="M159.51,380.85c13.62,6.06,27.25,12.11,40.87,18.17,1.58-12.12,3.67-24.98,6.41-38.47,3.03-14.92,6.49-28.83,10.15-41.68-20.93-3.38-41.85-6.77-62.78-10.15,1.78,24.04,3.56,48.09,5.34,72.13Z"/>
  <path class="cls-1" d="M221.27,218.89c-5.16,19.8-10.33,39.59-15.49,59.39,6.45,9.75,12.91,19.51,19.36,29.26,5.68-11.12,12.49-23.16,20.66-35.72,8.11-12.46,16.29-23.49,24.1-33.14-16.21-6.6-32.42-13.2-48.63-19.8Z"/>
  <path class="cls-1" d="M259.57,171.13c3.44,7.26,6.91,15.75,9.9,25.39,3.97,12.81,6.14,24.52,7.32,34.43,6.86-6.04,14.45-12.27,22.81-18.5,6.33-4.72,12.52-9.01,18.5-12.91-1.74-19.66-6.43-34.76-10.33-44.75-4.93-12.63-9.22-18.69-10.33-20.23-9.09-12.58-20.3-19.39-27.11-22.81-3.59,19.8-7.17,39.59-10.76,59.39Z"/>
  <path class="cls-1" d="M340.91,90.22c-5.68,7.44-13.69,19.87-18.5,37.01-5.65,20.13-4.02,36.51-3.44,41.31,1.3,10.78,4.1,19.46,6.45,25.39,7.31-2.88,14.62-5.76,21.93-8.64,6.89-2.71,13.78-5.43,20.67-8.14-1.21-6.69-2.08-15.36-1.29-25.39,.47-6.01,1.45-11.35,2.58-15.92-1.74-2.8-3.48-5.59-5.22-8.39-7.73-12.41-15.45-24.82-23.18-37.23Z"/>
  <path class="cls-1" d="M412.77,133.69c-9.86,4.31-17.56,12.92-18.82,14.27-2.32,2.49-3.86,4.51-5.28,6.39-3.67,4.85-8.49,12.09-12.91,21.95,12.23-1.22,27.28-1.7,44.32,0,14.19,1.42,26.63,4.03,37.01,6.89,4.02-10.47,8.03-20.94,12.05-31.41,3.87-5.14,7.75-10.3,11.62-15.49,9.02-12.09,17.92-24.14,26.68-36.15-13.27,12.7-25.62,18.55-34,21.52-11.71,4.14-25.71,6.21-36.15,7.75-15.72,2.32-17.86,1.38-24.53,4.3Z"/>
  <path class="cls-1" d="M469.15,182.74c3.25-9.53,10.38-26.29,25.82-42.17,18.2-18.71,38.28-26.26,48.2-29.26-10.45,9.68-13.45,18.32-14.2,24.53-1.47,12.15,5.46,16.67,2.58,28.83-1.07,4.53-4.89,10.25-12.48,21.52-4.69,6.96-8.78,12.56-11.62,16.35-12.77-6.6-25.53-13.2-38.3-19.8Z"/>
  <path class="cls-10" d="M49.39,546.51c8.69-.24,21.6-1.98,33.02-10.32,19.73-14.41,27.06-42.74,30.96-57.79,4.16-16.06,5.2-30.14,17.54-40.76,4.06-3.49,8.09-5.53,10.83-6.71-1.81,4.87-5.69,17.34-1.55,31.99,2.09,7.4,5.54,12.93,8.26,16.51-6.54,4.61-15.72,12.07-24.25,23.22-9.94,12.99-10.99,20.52-17.03,27.86-7.53,9.15-22.93,18.12-57.79,15.99Z"/>
  <path class="cls-10" d="M143.29,310.21c1.38,20.64,2.75,41.28,4.13,61.91-4.05-8.12-14.95-26.93-37.15-37.15-7.72-3.55-20.68-9.52-36.12-5.68-23.72,5.9-33.41,29.99-34.57,33.02,1.17-5.58,7.84-34.76,35.08-51.08,5.55-3.32,22.98-13.42,45.4-9.8,10.52,1.69,18.47,5.81,23.22,8.77Z"/>
  <path class="cls-10" d="M109.57,246.37c1.09-3.6,9.03-28.26,34.59-39.21,31.6-13.54,60.16,6.7,61.5,7.69-2.56,18.45-5.13,36.9-7.69,55.35-1.17-20.65-15.47-38.35-35.36-43.82-20.06-5.51-41.56,2.58-53.04,19.99Z"/>
  <path class="cls-10" d="M260.25,107.99c-3.08,15.63-6.15,31.26-9.23,46.89-3.39-4.96-14.72-20.13-34.59-24.6-24.29-5.46-51.42,7.27-66.88,32.29,3.15-7.69,13.65-30.47,39.21-45.36,32.5-18.93,65.05-10.95,71.5-9.23Z"/>
  <path class="cls-10" d="M347.12,81.85c7.95,14.54,15.9,29.08,23.85,43.62,5.7-8.89,12.86-22.04,17.66-38.98C401.36,41.54,388.94-.09,388.02,0c-.54,.05,3.92,14.57-.61,32.28-5.85,22.85-23.53,38.78-40.3,49.57Z"/>
  <path class="cls-10" d="M458.68,19.49c-.74,3.19,17.05,4.49,23.75,17.05,7.74,14.51-4.17,34.91-9.75,44.46-12.72,21.79-31.17,34.18-43.85,40.81,9.88-1.12,22.82-3.57,37.15-9.14,16.98-6.59,29.77-15.14,38.37-21.93,2.37-5.49,9.08-22.99,2.44-42.64-1.65-4.88-6.61-19.54-20.71-26.8-12.24-6.3-26.75-4.64-27.41-1.83Z"/>
  <path class="cls-10" d="M554.3,107.2c-11.03,7.86-13.49,22.47-14.01,25.58-1.31,7.82-.3,14.35,.61,18.27,3.34-5.14,9.07-12.42,18.27-17.66,11.69-6.66,19.23-4.47,35.33-10.35,5.93-2.17,17.4-6.36,26.19-14.62,15.93-14.97,17.21-37.77,17.05-48.12-5.56,18.13-14.73,26.2-20.1,29.85-10.29,6.99-23.37,9.12-38.37,11.57-15.26,2.49-18.87,1.13-24.97,5.48Z"/>
  <path class="cls-4" d="M216.2,431.81c-1.94-22.71-1.78-57.02,10.65-95.83,19.05-59.52,55.53-93.93,62.82-100.62,13.63-12.52,33.5-30.75,65.48-40.99,44.93-14.38,85.8-4.04,105.95,1.06,16.65,4.22,30.05,9.58,39.4,13.84-4.79,5.15-9.58,10.29-14.37,15.44-16.3-8.14-58.69-26.41-108.67-14.43-21.81,5.23-37.04,14.29-45.19,19.22-43.92,26.59-64.23,65.39-74,84.65-22.33,43.99-25.59,85.09-25.55,108.61-5.5,3.02-11,6.03-16.5,9.05Z"/>
  <path class="cls-7" d="M379.82,248.86c-22.45,22.64-44.9,45.27-67.34,67.91,20.58-7.11,41.16-14.22,61.73-21.33,1.87-15.53,3.74-31.05,5.61-46.58Z"/>
  <path d="M359.05,269.65c-6.55,6.55-13.09,13.09-19.64,19.64,2.62,4.68,5.24,9.35,7.86,14.03,6.17-2.99,12.35-5.99,18.52-8.98,2.24-5.24,4.49-10.48,6.73-15.71-4.49-2.99-8.98-5.99-13.47-8.98Z"/>
  <rect class="cls-7" x="351.77" y="282.81" width="9" height="9"/>
  <path class="cls-11" d="M240.35,415.65c13.31-9.23,26.63-18.45,39.94-27.68-.83-16.95,.32-44.19,13.05-73.94,4.95-11.58,23.28-52.74,68.8-77.5,18.75-10.2,36.08-14.34,47.45-16.21,.4-2.9,.79-5.8,1.19-8.7-13.6,.66-34.66,3.36-57.73,13.84-32.06,14.56-50.35,36.09-62.08,50.22-5.59,6.73-29.46,36.34-42.31,83.04-6.31,22.94-8,42.86-8.3,56.94Z"/>
  <path d="M425.41,213.2c-12.65,33.48-25.31,66.96-37.96,100.44,17.93-23.73,35.85-47.45,53.78-71.18-5.27-9.75-10.54-19.51-15.82-29.26Z"/>
  <path d="M454.67,220.71c-3.69,14.63-7.38,29.26-11.07,43.89,11.6-11.73,23.2-23.46,34.8-35.19-3.25-1.73-7.08-3.53-11.47-5.14-4.46-1.64-8.61-2.77-12.26-3.56Z"/>
  <path d="M524.3,203.2c-10.96,29.27-21.92,58.53-32.89,87.8,14.59-18.12,32.34-26.17,42.84-20.98,3.44,1.7,9.36,6.34,10.24,13.21,.15,1.2,.98,8.91-4.41,11.89-3.72,2.05-8.98,1.07-12.7-2.69,.33,2.52,1.5,8.54,6.44,12.69,7.45,6.27,18.72,4.28,24.9,.78,17.54-9.92,13.34-42.88,13.1-44.6-5-35.9-41.41-55-47.53-58.09Z"/>
  <path d="M326.3,440.28c.08,.06-7.06,5.49-6.11,11.46,.82,5.19,7.31,10.07,13.38,9.94,7.56-.17,12.75-8.1,17.62-15.54,3.92-5.99,4.67-9.23,6.84-13.5,6.45-12.73,19.69-23.57,32.48-26.75,11.79-2.93,13.9,3.18,36.98,4.25,15.88,.73,29.24,1.27,38.31-7.69,6.19-6.11,9.82-16.1,9.27-22.05-.28-3.05-1.04-6.61-1.04-6.61-.76-3.55-1.39-4.97-2.09-7.77-1.14-4.57-1.36-8.37-1.39-9.63-.18-6.96,3.27-17.23,11.6-21.46,.83-.42,8.78-4.32,14.27-.45,2.73,1.92,3.7,4.95,3.88,5.52,.34,1.13,1.18,4.57-.63,7.92-2.84,5.23-9.4,5.22-10.67,5.22-1.1,0-4.07,0-5.1-1.74-.67-1.12-.29-2.55-.35-2.55-.11-.01-.73,4.28-.92,6.98-.91,12.83,6.97,19.51,6.11,30.57-.25,3.28-1.29,14.59-9.94,24.08-7.39,8.1-16.36,10.5-21.4,11.85-2.31,.62-9.67,2.39-27.9,.38-20.86-2.3-27.41-6.41-34.39-5.43-2.34,.33-3.99,1.11-4.37,1.26-6.51,2.42-11.66,6.92-17.74,15.26-5.82,7.98-5.41,9.77-10.08,16.84-6.64,10.04-14.05,20.99-24.81,22.04-9.5,.93-20.68-6.84-21.72-15.19-1.14-9.09,9.94-17.2,9.94-17.2Z"/>
  <path d="M147.05,505.3c20.33-10.77,40.65-21.55,60.98-32.32-12.39,10.57-32.44,30.63-46.01,61.89-8.2,18.9-11.56,36.17-12.97,49.07-.67-26.21-1.33-52.43-2-78.64Z"/>
  <path d="M203.15,536.13c-4.81,5.44-6.13,12.96-3.33,19.14,2.13,4.69,7.21,9.87,14.15,9.78,6.99-.09,11.27-5.48,11.86-6.24,2.39-.78,7.9-2.22,14.56-.62,8.67,2.08,13.55,7.93,14.98,9.78-.85,1.95-8.05,17.67-25.38,21.84-10.65,2.56-26.6,1.12-34.74-10.61-8.35-12.03-5.78-30.96,7.91-43.06Z"/>
  <path class="cls-3" d="M228.08,54.89c-9.32,6.48-18.63,12.96-27.95,19.44-11.31-2.95-29.39-6.16-50.43-2.43-36.91,6.55-51.65,28.92-74.13,21.87-12.88-4.04-25.19-16.76-24.91-30.38,.27-13.17,12.33-28.45,24.3-26.73,8.61,1.24,13.58,10.75,14.58,12.76-1.58-1.22-6.97-5.05-12.76-3.65-9.26,2.24-14.16,16.57-10.33,23.09,5.24,8.91,27.54,4.53,41.32,1.82,31.14-6.12,39.22-16.56,61.37-21.27,13.19-2.8,32.78-3.86,58.94,5.47Z"/>
  <path class="cls-11" d="M187.67,85.37c-9.93,9.39-19.85,18.79-29.78,28.18-12.26-.37-33.49,.64-56.36,11.17-42.79,19.69-60.54,59.02-67.53,74.44-3.5,7.72-9.67,22.95-12.48,43.11-3.15,22.54-5.17,37.04,2.79,49.94,2.68,4.34,6.54,8.57,8.1,16.48,.8,4.07,2.77,14.03-3.51,20.21-6.26,6.16-18.37,6.26-24.67,0-7.11-7.07-3.39-18.87-2.13-22.86,2.18-6.91,5.64-9.91,8.59-14.22,8.26-12.1,5.93-24.98,5.76-40.32,0,0-.24-21.7,7.91-53.79,8.34-32.83,26.41-55.22,32.19-61.99,7.54-8.83,28.51-32.77,65.47-44.92,28.16-9.25,52.6-7.38,65.64-5.42Z"/>
  <path class="cls-11" d="M151.61,121.34c-4.02,5.57-8.3,12.26-12.33,20.08-3.25,6.3-5.78,12.28-7.78,17.72-8.61-.51-23.3,0-38.2,8.04-19.39,10.47-27.42,27.39-35.3,43.99,0,0-9.79,20.63-8.48,40.59,.47,7.15,2.6,10.61,3.48,11.9,3.55,5.18,7.19,4.63,9.58,8.75,3.47,5.98,1.85,17.54-6.04,21.66-4.35,2.27-10.27,2.1-14.58-1.04-5.47-3.99-6.55-11.49-4.97-16.46,1.74-5.48,5.98-5.58,8.86-12.11,1.81-4.11,1.69-7.6,1.59-12.02-.19-8.85,.42-17.7,0-26.54-.65-13.74,4.4-35.16,15.28-53.08,14.95-24.63,36.67-35.69,45.04-39.81,17.68-8.71,33.87-11.02,43.83-11.66Z"/>
  <path class="cls-11" d="M128.56,165.2c-2.59,4.96-5.31,11.12-7.55,18.38-1.88,6.11-3.02,11.73-3.71,16.6-4.49,.94-14.17,3.64-22.52,12.06-8.89,8.97-11.02,19.12-12.36,25.49-1.77,8.42-3.61,17.19,1.1,23.97,3.7,5.32,8.08,4.59,10.46,10.05,2.17,4.99,2.01,13.61-4.02,17.29-4.75,2.9-11.66,1.83-15.28-2.41-4.27-5-1.94-11.99-1.45-13.46,1.07-3.21,2.57-4.3,4.04-6.68,4.34-6.97,2.51-15.34,1.93-19.33-2.41-16.57,4.83-39.32,8.34-47.4,3.08-7.09,12.1-23.13,41.02-34.58Z"/>
  <circle class="cls-3" cx="273.19" cy="488.88" r="34.89"/>
  <circle cx="273.19" cy="488.88" r="19.87"/>
  <circle class="cls-6" cx="273.19" cy="488.88" r="6.06"/>
  <path class="cls-3" d="M266.99,568.98c14.3-3.83,28.59-7.66,42.89-11.48-5.47,8.28-10.94,16.56-16.41,24.84-8.83-4.45-17.66-8.91-26.48-13.36Z"/>
  <path d="M294.01,585.81c-3.4,4.9-7.53,12.76-7.71,22.7-.1,5.38-.3,15.86,6.43,19.3,4.67,2.38,11.38,.72,14.89-3.21,5.54-6.2,1.65-16.45-.24-21.43-3.35-8.81-9.38-14.37-13.37-17.37Z"/>
  <path class="cls-9" d="M368.69,516.47c20.05-2.63,41.23-6.05,63.37-10.46,25.98-5.18,50.25-11.13,72.67-17.44-1.07-12.79-2.13-25.58-3.2-38.37-25.32,9.53-46.3,13.1-61.34,14.53-17.53,1.67-36.98,1.4-51.74,13.95-7.34,6.24-12.21,14.53-12.21,14.53-5.47,9.33-7.04,18.14-7.56,23.26Z"/>
  <path class="cls-9" d="M398.34,499.9c6.2-1.16,12.4-2.33,18.6-3.49-6.69,18.51-13.37,37.01-20.06,55.52,.48-17.34,.97-34.69,1.45-52.03Z"/>
  <path class="cls-9" d="M455.32,488.86c-6.59,1.55-13.18,3.1-19.77,4.65,3.88,15.31,7.75,30.62,11.63,45.93,2.71-16.86,5.43-33.72,8.14-50.58Z"/>
  <path class="cls-9" d="M484.68,482.75c-6.1,1.45-12.21,2.91-18.31,4.36,1.16,15.02,2.33,30.04,3.49,45.06,4.94-16.47,9.88-32.95,14.83-49.42Z"/>
  <path class="cls-9" d="M492.79,479.84c3.39-1.16,6.78-2.33,10.17-3.49,1.74,15.5,3.49,31.01,5.23,46.51-5.14-14.34-10.27-28.68-15.41-43.02Z"/>
  <polygon class="cls-5" points="396.89 607.37 381.11 593.75 376.14 551.15 389.39 555.29 396.89 607.37"/>
  <polygon class="cls-5" points="415.89 558.48 402.27 557.5 415.89 620.61 431.71 628.53 415.89 558.48"/>
  <polygon class="cls-5" points="458.58 635.7 445.43 632.39 429.87 558.48 441.28 557.5 458.58 635.7"/>
  <polygon class="cls-8" points="458.58 555.29 441.28 557.5 458.58 635.7 472.69 639.89 458.58 555.29"/>
  <polygon class="cls-5" points="472.69 555.29 458.58 555.29 472.69 639.89 487.12 645.02 472.69 555.29"/>
  <polygon class="cls-8" points="484.68 555.29 472.69 555.29 487.12 645.02 498.48 647.91 484.68 555.29"/>
  <polygon class="cls-5" points="495.14 553.29 484.68 555.29 498.48 647.91 507.97 646.63 495.14 553.29"/>
  <path class="cls-10" d="M510.18,454.38c2.67-.43,7.45-1.57,12.34-5,3.84-2.7,6.26-5.77,7.64-7.85,6.27,11.96,6.6,24.61,.31,32.13-3.13,3.75-10.81,9.69-17.03,7.26-1.82-.71-3.1-1.97-3.97-3.1,1.77,.33,5.51,.75,7.73-1.41,3.97-3.88-.3-12.82-1-14.28-1.8-3.76-4.28-6.28-6.01-7.76Z"/>
  <path class="cls-10" d="M335.4,510.51c-.85,4.15-3.61,7.39-7.05,8.16-5.12,1.15-9.56-3.64-11.12-7.42-2.47-5.94,1.16-11.77,2.6-14.09,.66-1.06,7.17-11.23,15.57-9.64,4.42,.83,7.8,4.61,9.27,8.16,2.54,6.12-1.54,9.28,.37,16.69,.48,1.87,2.58,8.79,8.16,11.12,6.85,2.87,16.33-2.27,20.77-8.9,4.8-7.18,1.04-12.12,5.19-20.02,2.74-5.23,7.48-8.97,18.54-13.72,16.19-6.96,29.19-8.92,41.16-11.12,7.5-1.38,23.54-5.62,55.62-14.09,19.95-5.27,29.5-8.08,33.75-16.69,1.96-3.98,4-11.63,4.08-19.65,.05-5.67-.89-9.75,.74-16.69,1.02-4.36,2.15-8.96,5.56-10.01,2.74-.85,7.09,.56,7.97,3.85,.55,2.05-.36,4.41-2.24,6.1,.72-.4,3.48-2.04,4.41-5.33,1.2-4.23-1.29-8.9-4.94-10.55-4.28-1.94-8.74,.91-10.05,1.74-5.96,3.8-7.56,11.09-8.49,15.32-1.06,4.8-1.16,8.91-1.16,8.91-.55,6.27-.1,8.21-1.81,12.23-3.26,7.64-9.6,11.62-16.69,15.95-11.97,7.3-22.72,9.94-31.98,12.14-19.14,4.55-38.12,9.86-57.39,13.82-22.27,4.57-31.05,5.71-36.34,13.72-6.16,9.33-8.53,19.65-8.53,19.65-1.58,6.87-1.46,12.31-4.82,13.72-2.37,.99-5.97-.24-7.79-2.6-3.89-5.03,3.08-11.6,.37-19.65-2.79-8.29-13.49-11.16-14.83-11.5-11.29-2.86-20.35,4.1-22.25,5.56-5.49,4.22-7.82,9.27-10.38,14.83-2.98,6.47-4.91,10.66-3.34,15.2,1.75,5.04,6.89,9.37,12.98,9.64,6.51,.29,13-4.06,14.28-9.71,.45-1.99,.18-3.81-.19-5.12Z"/>
</svg>